<svg xmlns="http://www.w3.org/2000/svg" width="230" height="50" xml:space="preserve"><path style="fill:#fff;fill-opacity:1;fill-rule:evenodd;stroke:none" d="M213.027 424.208c0-8.641 6.54-16.306 16.94-16.306 10.74 0 17.184 7.714 17.184 16.306 0 8.836-6.59 16.305-17.086 16.305-10.301 0-17.038-7.518-17.038-16.305zm4.686 0c0 6.98 5.273 12.107 12.352 12.107 7.127 0 12.4-5.126 12.4-12.107 0-6.932-5.273-12.107-12.4-12.107-7.08 0-12.352 5.175-12.352 12.107" transform="matrix(1.25 0 0 -1.25 -262.205 555.799)"/><path style="fill:#ce0f3e;fill-opacity:1;fill-rule:evenodd;stroke:none" d="M250.52 427.479c4.296.683 5.614 2.929 5.614 7.079v5.516h-5.614v-6.054h2.978c.146-2.831-.977-4.15-2.978-4.393v-2.148" transform="matrix(1.25 0 0 -1.25 -262.205 555.799)"/><path style="fill:#fff;fill-opacity:1;fill-rule:evenodd;stroke:none" d="M260.918 440.074v-31.732h4.589v13.767h1.904c2.295 0 4.198-.733 8.397-7.275l4.198-6.492h5.468c-2.197 3.027-2.978 4.1-4.345 6.249-2.441 3.954-4.198 6.932-7.078 8.836 3.417 1.318 5.32 4.1 5.32 7.762 0 5.517-4.003 8.885-10.447 8.885h-8.006zm4.589-3.906h2.929c4.394 0 6.2-1.806 6.2-4.784.049-2.685-1.318-5.175-6.2-5.175h-2.93v9.959M305.636 440.074h-18.014v-31.732h18.454v4.1h-13.914v9.862h13.035v4.1h-13.035v9.569h13.474v4.1M310.42 408.342h4.54v31.732h-4.54v-31.732zM324.188 440.074h-4.541v-31.732h18.893v4.1h-14.352v27.632M346.107 440.074h-4.54v-31.732h18.893v4.1h-14.353v27.632M369.296 429.334l-8.494 10.984h-5.517l11.814-14.987v-16.794h4.54v16.745l11.766 15.036h-5.468l-8.641-10.984M388.91 440.22a2.833 2.833 0 0 1-2.832-2.831 2.833 2.833 0 0 1 2.831-2.831 2.833 2.833 0 0 1 2.832 2.83 2.833 2.833 0 0 1-2.832 2.832zm0-.537c1.22 0 2.294-1.025 2.294-2.294a2.292 2.292 0 0 0-2.295-2.295 2.292 2.292 0 0 0-2.294 2.295 2.291 2.291 0 0 0 2.294 2.294zm-1.319-.781v-3.027h.781v1.172c.098.049.196 0 .245-.048.146-.05.39-.44.732-1.124h.878l-.293.489c-.195.39-.34.635-.683.83.293.048.83.244.83.83 0 .634-.488.878-1.123.878h-1.367zm.781-.537h.342c.342 0 .586-.097.586-.39 0-.293-.244-.342-.586-.342h-.342v.732" transform="matrix(1.25 0 0 -1.25 -262.205 555.799)"/></svg>