<svg viewBox="0 0 9390 9390" xmlns="http://www.w3.org/2000/svg" xmlns:xlink="http://www.w3.org/1999/xlink"><defs><linearGradient id="e" x1="5435" x2="2552" xlink:href="none" y1="8086" y2="6397"><stop offset="0" stop-color="#bf360c" stop-opacity=".4"/><stop offset=".33" stop-color="#bf360c" stop-opacity="0"/></linearGradient><linearGradient id="h" x1="1459" x2="4233" xlink:href="none" y1="3632" y2="2011"><stop offset="0" stop-color="#bf360c" stop-opacity=".2"/><stop offset=".66" stop-color="#bf360c" stop-opacity="0"/></linearGradient><linearGradient id="i" x1="5816" x2="2652" xlink:href="none" y1="8314" y2="6458"><stop offset="0" stop-color="#bf360c" stop-opacity=".2"/><stop offset=".33" stop-color="#bf360c" stop-opacity="0"/></linearGradient><linearGradient id="l" x1="5978" x2="6704" xlink:href="none" y1="2417" y2="5596"><stop offset="0" stop-color="#ea6100" stop-opacity=".3"/><stop offset=".66" stop-color="#ea6100" stop-opacity="0"/></linearGradient><linearGradient id="m" x1="5979" x2="6691" xlink:href="none" y1="2430" y2="5541"><stop offset="0" stop-color="#bf360c" stop-opacity=".3"/><stop offset=".66" stop-color="#bf360c" stop-opacity="0"/></linearGradient><linearGradient id="o" x1="1405" x2="4000" xlink:href="none" y1="3663" y2="2147"><stop offset="0" stop-color="#a52714" stop-opacity=".6"/><stop offset=".66" stop-color="#a52714" stop-opacity="0"/></linearGradient><linearGradient id="q" x1="350" x2="6413" xlink:href="none" y1="5107" y2="5107"><stop offset="0" stop-color="#f2a700" stop-opacity=".4"/><stop offset=".33" stop-color="#f19800" stop-opacity="0"/></linearGradient><radialGradient id="a" cx="1293.44" cy="56.19" gradientTransform="matrix(25 0 0 -25 -27825 4125)" r="166.25" xlink:href="none"><stop offset="0" stop-color="#bf360c" stop-opacity=".2"/><stop offset="1" stop-color="#bf360c" stop-opacity="0"/></radialGradient><radialGradient id="r" cx="1154.43" cy="70.88" r="154.31" xlink:href="#a"/><radialGradient id="s" cx="1300.69" cy="-23.27" r="173.74" xlink:href="#a"/><radialGradient id="t" cx="602.97" cy="103.52" gradientTransform="matrix(25 0 0 -25 -13425 4125)" r="349.48" xlink:href="none"><stop offset="0" stop-color="#fff" stop-opacity=".1"/><stop offset="1" stop-color="#fff" stop-opacity="0"/></radialGradient><clipPath id="d"><path d="M350 4700a4350 4350 0 1 1 8700 0 4350 4350 0 1 1-8700 0z"/></clipPath><clipPath id="j"><use xlink:href="#b"/></clipPath><clipPath id="n"><use xlink:href="#c"/></clipPath><clipPath id="p"><path d="m2988 5690 1712-2967h4350V350H1040v1994"/></clipPath><path id="c" d="m4700 2723 1713 2967-1923 3360h4560V2723z"/><path id="b" d="M350 9050h4140l1922-1922V5690H2988L350 1165z"/><path id="g" d="M1040 350v5340h1947l1713-2967h4350V350z"/><use id="f" xlink:href="#b"/><use id="k" xlink:href="#c"/></defs><g clip-path="url(#d)"><use fill="url(#e)" xlink:href="#f"/><use fill="#f09300" xlink:href="#g"/><use fill="url(#h)" xlink:href="#g"/><path d="M3035 5670 1066 2295l-30 50 1955 3352 43-25z" fill="#bf360c" fill-opacity=".15"/><use fill="#f4b400" xlink:href="#f"/><use fill="url(#i)" xlink:href="#f"/></g><path d="m6373 5754-40-23-1898 3320h57l1882-3296z" fill="#a52714" fill-opacity=".15"/><g clip-path="url(#d)"><g clip-path="url(#j)"><use fill="#ffcd40" xlink:href="#k"/><use fill="url(#l)" xlink:href="#k"/></g><use fill="#f7cb4d" xlink:href="#k"/><use fill="url(#m)" xlink:href="#k"/><g clip-path="url(#n)"><use fill="#f09300" xlink:href="#g"/><use fill="url(#o)" xlink:href="#g"/></g><path d="M4700 2723v1035l3875-1035z" fill="url(#a)"/><g clip-path="url(#p)"><use fill="url(#q)" xlink:href="#f"/></g><path d="m1040 2350 2830 2830-882 510z" fill="url(#r)"/><path d="m4494 9045 1036-3865 883 510-1920 3356z" fill="url(#s)"/><path d="M2723 4700a1977 1977 0 1 1 3954 0 1977 1977 0 0 1-3954 0z" fill="#f5f5f5"/><path d="M3118 4700a1580 1580 0 1 1 3164 0 1580 1580 0 1 1-3164 0z" fill="#f6bf26"/><g fill="#bf360c"><path d="M4700 2673a1977 1977 0 0 0-1977 1978v50a1977 1977 0 0 1 1977-1978h4350v-50z" fill-opacity=".2"/><path d="M4750 2723h-25a1976 1976 0 0 1 0 3952h25a1977 1977 0 0 0 0-3955z" opacity=".1"/><path d="M4700 9000a4350 4350 0 0 0 4350-4325v25a4350 4350 0 1 1-8700 0v-25a4350 4350 0 0 0 4350 4325z" fill-opacity=".15"/></g><g fill="#fff"><path d="M6410 5690a1974 1974 0 0 1-3421 0L350 1215l2638 4525a1974 1974 0 0 0 3421 0v-50z" fill-opacity=".1"/><path d="M6430 5754a1971 1971 0 0 0 170-1584 1955 1955 0 0 1-191 1517L4490 9050h57l1883-3294zM4700 400a4350 4350 0 0 1 4350 4325v-25a4350 4350 0 1 0-8700 0v25A4350 4350 0 0 1 4700 400z" fill-opacity=".2"/></g><path d="M350 4700a4350 4350 0 1 1 8700 0 4350 4350 0 1 1-8700 0z" fill="url(#t)"/></g></svg>