<svg xmlns="http://www.w3.org/2000/svg" xlink="http://www.w3.org/1999/xlink" viewBox="0 0 132 24" id="svg359214125"><g><defs><linearGradient id="idss359214125_1g-1621205006" x1="0" x2="1" y1="0.6783844911555117" y2="0.32161550884448825"><stop offset="0" stop-color="rgb(255,166,90)" stop-opacity="1"></stop><stop offset="1" stop-color="rgb(255,83,122)" stop-opacity="1"></stop></linearGradient></defs><path d="M 20.835 22.78 C 16.194 24.426 10.992 23.14 7.715 19.537 C 7.335 19.1 6.818 18.797 6.244 18.674 C 5.949 18.609 5.647 18.576 5.344 18.575 C 5.01 18.574 4.675 18.594 4.344 18.636 C 4.111 18.664 3.868 18.703 3.631 18.739 C 2.928 18.849 2.2 18.961 1.578 18.852 C 1.425 18.826 1.276 18.782 1.133 18.723 C 0.991 18.664 0.859 18.586 0.739 18.49 C 0.611 18.386 0.498 18.266 0.406 18.132 C 0.298 17.974 0.211 17.803 0.147 17.624 L 0.147 17.621 C 0.077 17.443 0.033 17.258 0.01 17.07 C -0.007 16.908 -0.001 16.747 0.028 16.586 C 0.056 16.439 0.107 16.294 0.176 16.16 C 0.248 16.025 0.332 15.898 0.433 15.782 C 0.836 15.308 1.468 14.939 2.081 14.582 C 2.286 14.462 2.498 14.339 2.695 14.215 C 2.977 14.04 3.247 13.846 3.502 13.635 C 3.733 13.444 3.942 13.23 4.126 12.995 C 4.484 12.541 4.679 11.984 4.684 11.412 C 4.749 9.06 5.538 6.781 6.949 4.872 C 8.36 2.963 10.327 1.512 12.595 0.707 C 14.863 -0.098 17.327 -0.219 19.667 0.36 C 22.007 0.938 24.113 2.189 25.715 3.95 C 26.094 4.387 26.612 4.69 27.186 4.813 C 27.481 4.878 27.784 4.911 28.086 4.911 C 28.42 4.913 28.755 4.893 29.086 4.851 C 29.319 4.823 29.562 4.784 29.798 4.748 C 30.501 4.638 31.229 4.525 31.851 4.635 C 32.003 4.661 32.153 4.705 32.296 4.764 C 32.438 4.823 32.57 4.901 32.69 4.997 C 32.818 5.101 32.93 5.221 33.022 5.357 C 33.129 5.514 33.217 5.685 33.282 5.863 L 33.282 5.866 C 33.35 6.043 33.396 6.228 33.418 6.416 C 33.436 6.577 33.43 6.74 33.4 6.899 C 33.372 7.047 33.322 7.191 33.252 7.326 C 33.181 7.46 33.095 7.586 32.996 7.703 C 32.592 8.177 31.96 8.546 31.348 8.903 C 31.143 9.023 30.931 9.147 30.734 9.272 C 30.452 9.447 30.182 9.64 29.927 9.852 C 29.696 10.042 29.486 10.256 29.303 10.492 C 28.944 10.946 28.748 11.502 28.745 12.075 C 28.618 16.89 25.478 21.138 20.832 22.78 Z M 14.25 5.143 C 13.791 5.306 13.351 5.513 12.935 5.761 C 12.132 6.242 11.435 6.872 10.882 7.615 C 10.06 8.718 9.583 10.029 9.51 11.39 C 9.437 12.786 9.793 14.172 10.533 15.37 C 11.273 16.568 12.364 17.522 13.664 18.111 C 14.507 18.495 15.418 18.716 16.347 18.762 C 16.82 18.785 17.295 18.762 17.764 18.695 C 18.732 18.554 19.66 18.224 20.496 17.727 C 21.298 17.246 21.995 16.616 22.548 15.873 C 23.371 14.77 23.848 13.459 23.92 12.098 C 23.944 11.637 23.922 11.176 23.852 10.719 C 23.708 9.776 23.37 8.871 22.858 8.059 C 22.61 7.666 22.323 7.298 22.001 6.96 C 20.028 4.891 16.974 4.175 14.252 5.144 Z" fill="url(#idss359214125_1g-1621205006)"></path></g><path d="M 47.955 11.855 C 47.303 11.377 46.526 11.027 45.625 10.807 L 42.999 10.135 C 42.856 10.099 42.719 10.06 42.592 10.016 L 42.59 10.016 C 42.204 9.886 41.893 9.723 41.654 9.528 C 41.334 9.267 41.175 8.92 41.175 8.487 C 41.175 8.198 41.267 7.934 41.454 7.696 C 41.639 7.457 41.894 7.269 42.221 7.132 C 42.547 6.995 42.925 6.925 43.355 6.925 C 44.052 6.925 44.646 7.089 45.135 7.414 C 45.625 7.739 45.929 8.198 46.047 8.79 L 48.914 7.773 C 48.717 7.055 48.395 6.453 47.95 5.961 C 47.379 5.332 46.704 4.877 45.926 4.595 C 45.147 4.313 44.334 4.171 43.489 4.171 C 42.48 4.171 41.565 4.359 40.742 4.735 C 39.919 5.111 39.269 5.643 38.795 6.33 C 38.32 7.016 38.083 7.8 38.083 8.682 C 38.083 9.785 38.4 10.651 39.033 11.279 C 39.065 11.312 39.096 11.342 39.128 11.371 C 39.825 12.007 40.73 12.455 41.843 12.716 L 43.999 13.259 L 44 13.259 L 44.512 13.388 C 45.091 13.533 45.547 13.747 45.881 14.028 C 46.215 14.31 46.381 14.689 46.381 15.166 C 46.381 15.542 46.273 15.875 46.059 16.164 C 45.843 16.453 45.539 16.677 45.147 16.836 C 44.754 16.995 44.29 17.075 43.756 17.075 C 42.762 17.075 41.983 16.848 41.42 16.392 C 40.856 15.937 40.515 15.318 40.396 14.537 L 37.444 15.586 C 37.614 16.327 37.92 16.982 38.362 17.552 C 38.931 18.289 39.68 18.853 40.609 19.243 C 41.534 19.634 42.584 19.829 43.756 19.829 C 44.927 19.829 45.906 19.624 46.781 19.212 C 47.656 18.8 48.331 18.228 48.806 17.498 C 49.28 16.768 49.518 15.947 49.518 15.036 C 49.518 13.851 49.151 12.918 48.417 12.239 C 48.27 12.103 48.116 11.975 47.955 11.855 Z M 130.917 12.239 C 130.77 12.103 130.616 11.975 130.455 11.855 C 129.803 11.377 129.026 11.027 128.125 10.807 L 125.499 10.135 C 125.356 10.099 125.219 10.06 125.092 10.016 L 125.09 10.016 C 124.704 9.886 124.393 9.723 124.154 9.528 C 123.834 9.267 123.675 8.92 123.675 8.487 C 123.675 8.198 123.767 7.934 123.954 7.696 C 124.139 7.457 124.394 7.269 124.721 7.132 C 125.047 6.995 125.425 6.925 125.855 6.925 C 126.552 6.925 127.146 7.089 127.635 7.414 C 128.125 7.739 128.429 8.198 128.547 8.79 L 131.414 7.773 C 131.217 7.055 130.895 6.453 130.45 5.961 C 129.879 5.332 129.204 4.877 128.426 4.595 C 127.647 4.313 126.834 4.171 125.989 4.171 C 124.98 4.171 124.065 4.359 123.242 4.735 C 122.419 5.111 121.769 5.643 121.295 6.33 C 120.82 7.016 120.583 7.8 120.583 8.682 C 120.583 9.785 120.9 10.651 121.533 11.279 C 121.565 11.312 121.596 11.342 121.628 11.371 C 122.325 12.007 123.23 12.455 124.343 12.716 L 126.499 13.259 L 126.5 13.259 L 127.012 13.388 C 127.591 13.533 128.047 13.747 128.381 14.028 C 128.715 14.31 128.881 14.689 128.881 15.166 C 128.881 15.542 128.773 15.875 128.559 16.164 C 128.343 16.453 128.039 16.677 127.647 16.836 C 127.254 16.995 126.79 17.075 126.256 17.075 C 125.262 17.075 124.483 16.848 123.92 16.392 C 123.356 15.937 123.015 15.318 122.896 14.537 L 119.944 15.586 C 120.114 16.327 120.42 16.982 120.862 17.552 C 121.431 18.289 122.18 18.853 123.109 19.243 C 124.034 19.634 125.084 19.829 126.256 19.829 C 127.427 19.829 128.406 19.624 129.281 19.212 C 130.156 18.8 130.831 18.228 131.306 17.498 C 131.78 16.768 132.018 15.947 132.018 15.036 C 132.018 13.851 131.651 12.918 130.917 12.239 Z M 51.035 7.923 L 53.816 7.923 L 53.816 19.59 L 51.035 19.59 Z M 52.425 2.889 C 51.465 2.889 50.688 3.648 50.688 4.583 C 50.688 5.519 51.465 6.278 52.425 6.278 C 53.384 6.278 54.163 5.519 54.163 4.583 C 54.163 3.648 53.386 2.889 52.425 2.889 Z M 64.997 9.547 C 64.621 9.056 64.164 8.659 63.628 8.357 C 62.835 7.908 61.912 7.684 60.859 7.684 C 59.806 7.684 58.823 7.934 57.955 8.433 C 57.088 8.932 56.41 9.614 55.921 10.482 C 55.431 11.349 55.186 12.311 55.186 13.366 C 55.186 14.422 55.431 15.383 55.921 16.251 C 56.41 17.118 57.092 17.805 57.967 18.311 C 58.842 18.817 59.806 19.07 60.859 19.07 C 61.912 19.07 62.839 18.843 63.64 18.387 C 64.033 18.163 64.382 17.893 64.686 17.573 L 64.686 18.246 C 64.686 18.94 64.541 19.533 64.251 20.024 C 63.962 20.516 63.559 20.889 63.04 21.142 C 62.521 21.393 61.898 21.52 61.171 21.52 C 60.281 21.52 59.55 21.337 58.979 20.968 C 58.408 20.6 58.034 20.154 57.856 19.634 L 55.186 20.61 C 55.468 21.275 55.898 21.86 56.477 22.366 C 57.055 22.872 57.755 23.258 58.578 23.527 C 59.401 23.795 60.281 23.928 61.215 23.928 C 62.476 23.928 63.577 23.701 64.518 23.245 C 65.46 22.79 66.187 22.128 66.699 21.26 C 67.21 20.393 67.467 19.366 67.467 18.181 L 67.467 11.176 C 67.467 10.41 67.492 9.749 67.544 9.192 C 67.596 8.636 67.674 8.212 67.778 7.923 L 64.997 7.923 Z M 64.229 15.058 C 63.94 15.549 63.536 15.94 63.017 16.229 C 62.498 16.518 61.912 16.663 61.26 16.663 C 60.607 16.663 60.066 16.515 59.547 16.219 C 59.028 15.922 58.62 15.525 58.323 15.026 C 58.027 14.527 57.878 13.973 57.878 13.366 C 57.878 12.759 58.027 12.202 58.323 11.696 C 58.62 11.19 59.028 10.793 59.547 10.504 C 60.066 10.214 60.637 10.07 61.26 10.07 C 61.883 10.07 62.494 10.212 63.006 10.493 C 63.517 10.775 63.922 11.169 64.219 11.675 C 64.515 12.181 64.664 12.745 64.664 13.366 C 64.664 13.988 64.518 14.566 64.229 15.058 Z M 85.489 8.26 C 84.814 7.877 84.04 7.684 83.164 7.684 C 82.289 7.684 81.466 7.877 80.784 8.26 C 80.102 8.643 79.56 9.145 79.16 9.766 C 78.834 9.116 78.377 8.607 77.791 8.238 C 77.205 7.869 76.49 7.684 75.645 7.684 C 74.933 7.684 74.291 7.819 73.72 8.086 C 73.149 8.354 72.686 8.718 72.33 9.181 C 72.134 9.436 71.97 9.712 71.841 10.005 L 71.841 7.923 L 69.371 7.923 L 69.371 19.59 L 72.152 19.59 L 72.152 13.28 C 72.152 12.643 72.266 12.101 72.496 11.653 C 72.726 11.205 73.035 10.865 73.42 10.634 C 73.806 10.402 74.221 10.287 74.666 10.287 C 75.111 10.287 75.519 10.392 75.89 10.602 C 76.26 10.812 76.553 11.125 76.768 11.545 C 76.983 11.964 77.091 12.47 77.091 13.063 L 77.091 19.59 L 79.872 19.59 L 79.872 13.063 C 79.872 12.455 79.986 11.942 80.216 11.523 C 80.446 11.104 80.754 10.793 81.14 10.59 C 81.526 10.388 81.941 10.287 82.386 10.287 C 83.127 10.287 83.716 10.537 84.154 11.036 C 84.591 11.534 84.811 12.21 84.811 13.063 L 84.811 19.59 L 87.592 19.59 L 87.592 12.434 C 87.592 11.465 87.409 10.624 87.046 9.908 C 86.682 9.192 86.163 8.643 85.489 8.26 Z M 101.643 16.337 L 101.643 7.923 L 98.862 7.923 L 98.862 9.354 C 98.732 9.202 98.589 9.062 98.439 8.932 C 97.98 8.534 97.449 8.227 96.848 8.01 C 96.247 7.793 95.577 7.684 94.835 7.684 C 93.767 7.684 92.784 7.952 91.887 8.487 C 90.99 9.022 90.288 9.752 89.785 10.677 C 89.279 11.602 89.029 12.629 89.029 13.757 C 89.029 14.884 89.279 15.893 89.785 16.826 C 90.288 17.759 90.99 18.492 91.887 19.027 C 92.784 19.561 93.767 19.829 94.835 19.829 C 95.903 19.829 96.907 19.59 97.716 19.113 C 98.29 18.775 98.769 18.337 99.151 17.8 L 99.151 19.59 L 101.954 19.59 C 101.834 19.287 101.754 18.857 101.71 18.301 C 101.665 17.744 101.643 17.089 101.643 16.337 Z M 98.405 15.535 C 98.101 16.07 97.683 16.489 97.149 16.793 C 96.615 17.096 96.006 17.248 95.325 17.248 C 94.687 17.248 94.101 17.093 93.567 16.783 C 93.033 16.472 92.611 16.048 92.299 15.513 C 91.988 14.978 91.832 14.386 91.832 13.735 C 91.832 13.084 91.988 12.513 92.299 11.978 C 92.611 11.443 93.036 11.021 93.578 10.71 C 94.119 10.4 94.709 10.243 95.347 10.243 C 95.985 10.243 96.615 10.4 97.149 10.71 C 97.683 11.021 98.101 11.44 98.405 11.968 C 98.709 12.496 98.862 13.092 98.862 13.757 C 98.862 14.422 98.709 15 98.405 15.535 Z M 115.516 5.19 C 114.293 4.511 112.931 4.171 111.433 4.171 C 109.935 4.171 108.556 4.511 107.34 5.19 C 106.124 5.87 105.162 6.81 104.459 8.01 C 103.753 9.21 103.402 10.533 103.402 11.978 C 103.402 13.424 103.753 14.787 104.459 15.98 C 105.162 17.173 106.124 18.113 107.34 18.8 C 108.556 19.486 109.92 19.829 111.433 19.829 C 112.946 19.829 114.293 19.486 115.516 18.8 C 116.74 18.113 117.702 17.173 118.408 15.98 C 119.111 14.787 119.464 13.453 119.464 11.978 C 119.464 10.504 119.111 9.21 118.408 8.01 C 117.702 6.81 116.74 5.87 115.516 5.19 Z M 115.806 14.571 C 115.367 15.344 114.758 15.954 113.98 16.402 C 113.201 16.851 112.353 17.075 111.433 17.075 C 110.514 17.075 109.646 16.851 108.875 16.402 C 108.104 15.954 107.495 15.344 107.051 14.571 C 106.606 13.797 106.383 12.933 106.383 11.978 C 106.383 11.024 106.606 10.186 107.051 9.419 C 107.495 8.653 108.104 8.046 108.875 7.598 C 109.646 7.149 110.499 6.925 111.433 6.925 C 112.368 6.925 113.198 7.149 113.969 7.598 C 114.741 8.046 115.349 8.653 115.794 9.419 C 116.239 10.186 116.461 11.039 116.461 11.978 C 116.461 12.918 116.242 13.797 115.806 14.571 Z" fill="var(--token-f9376adb-fe94-4614-8108-c32dbf90bd1c, rgba(35, 38, 43, 0.95)) /* {&quot;name&quot;:&quot;Uno&quot;} */"></path></svg>
