<?xml version="1.0" encoding="utf-8"?>
<svg xmlns="http://www.w3.org/2000/svg" width="353" height="353" viewBox="0 0 353 353" fill="none">
<g clip-path="url(#clip0_1_5)">
<path d="M185.2 119C183.4 119.3 181.8 119.5 180.3 119.5C179.4 119.5 178.1 119.4 176.3 119.2C174.6 119.1 173.3 119 172.3 119C171.1 119 169.7 119.1 168.3 119.2C166.3 119.6 164.9 119.9 164 120.1C161.1 120.5 157.5 121.1 153 121.7C151.8 121.9 151 122.2 150.6 122.4C142.6 123.3 136.8 123.7 133.2 123.7H126.5C124 123.9 121.7 124.1 119.6 124.4C118.1 124.7 116 125.4 113.4 126.4C112.5 126.8 111.6 127.1 110.7 127.3C105.5 127.7 101.3 128.1 98.1 128.4C90.4 129.6 81.6 132.2 71.6 136.1C63.9 139.1 57.6 142.2 52.9 145.5C46.3 150 41.9 155.2 39.5 161.1C38 164.5 37.1 168.4 36.8 172.9C36.5 175.6 36.4 179.1 36.5 183.6C35.8 184.7 35.3 185.4 35 185.8C34.1 186.5 32.7 187.8 31 189.6C28.9 191.1 27.5 192.4 26.7 193.4C26 194.5 25.2 195.7 24.3 197.2C23.2 198.7 22.6 199.9 22.4 200.9C22.6 201.8 22.8 202.8 23.1 203.9C23.8 205.1 24.3 205.8 24.4 206.1C24.4 206.3 24.5 207 24.6 208.1C24.8 208.8 25.1 209.4 25.5 209.7C26.2 211.3 28.3 212.4 31.5 212.9C33.7 213 35.7 213 37.3 212.9C37.9 214.6 38.6 216.4 39.3 218.2C39.7 218.6 40.7 219.8 42.2 221.7C43.5 223.2 44.5 224.5 45.1 225.5C45.8 227.4 46.2 230.2 46 234C45.5 250.7 44.8 266.7 44 282C43.9 282.4 43.8 282.9 43.8 283.3V287.8C44.4 288.1 44.9 288.4 45.6 288.7C46.9 289.8 48.9 291.2 51.6 293.2C54.8 295.4 58.1 297.1 61.5 298.3C61.7 297.9 61.8 297.6 62 297.4C65.2 297.4 68.7 297.2 72.5 296.7C79.3 295.8 84.8 294.2 89 291.9C92 290.2 95.8 287.3 100.4 283C102.8 280.8 104.6 279 106 277.6C107.8 275.4 109.3 273.3 110.5 271.4C111.8 268.4 112.6 265 112.9 261.2C113.2 258.5 113.2 254.9 112.9 250.4C112.3 242.5 112 238.1 111.8 237.1C112 236.9 112 236.8 111.8 236.6C111.4 237.2 110.8 237.7 110 238.2C110 237.5 110.1 236.7 110.2 236C110.2 235.3 110.3 234.4 110.5 233.5C111.8 232.8 113 231.4 114 229.5C114.7 228.3 115.5 226.5 116.4 224.1L120.2 214.3C121.3 211.4 121.8 209.4 122 208.1V207.4C122.5 206.9 123 206.5 123.6 206.3C125.5 205.2 127.6 204.3 129.8 203.3C130.1 204.4 130.8 205.3 131.8 206.3C133.2 207.6 134.7 208.3 136.3 208.5H139.5C140.2 208.5 141.5 208.7 143.2 209.2C144.3 209.3 145.4 209.3 146.5 209.2C147.7 208.9 148.5 208.6 149 208.3C149.9 207.7 150.4 206.6 150.5 205C150.5 204.7 150.4 203.5 150.1 201.5C149.8 200.8 149.5 199.6 149.4 198.2C150.5 198 151.4 197.9 152.4 197.9C152.4 198.1 152.5 198.5 152.6 199C152.7 199.5 152.9 200.4 153.1 201.7C153.5 203.5 153.8 205.5 153.9 207.7V213.3L153.7 242.3C153.8 241.2 154.2 240.4 154.8 239.8C154.7 240.3 154.6 240.8 154.6 241.2C154.6 242.4 154.5 243.7 154.3 245.2C154 244.9 153.8 244.4 153.6 243.8L153.1 267.5C153 275.5 153.2 281.7 153.8 286C153.8 286.4 153.9 287 154.1 287.8C154.1 290.8 154.3 295.1 154.6 300.7C154.7 303.4 154.8 305 155 305.6C155 307.4 155.3 308.9 155.9 310.2C157.1 314.1 159.1 316.6 161.9 317.8C163 318.2 164.1 318.5 165.4 318.5H166.3C167.4 318.9 168 319.2 168.3 319.2C168.8 319.2 169.5 319 170.3 318.7H171C173.2 318.7 175.6 318.3 178.2 317.4C178.9 317.3 179.7 317.1 180.4 316.7C181.9 316.4 183.4 316 184.9 315.6C186.7 316.3 188.2 316.3 189.5 315.6C190.6 315.3 191.3 314.7 191.7 313.8C192 313.6 192.4 313.4 192.8 313.1C194 311.6 194.8 309.1 195.3 305.6C195.5 302.4 195.7 298.9 195.7 295.1C195.7 292.9 195.6 289.4 195.5 284.6L194.8 270.4C194.6 266.1 194.4 263.1 194.1 261.5C193.8 259.3 193 254.9 191.9 248.3C191.9 248.1 191.8 247.8 191.6 247.6C191.8 240.3 191.9 234.8 191.9 230.9C191.9 222.3 191.4 214.6 190.5 207.7C192 207 193.1 206.4 193.8 205.9C194.7 205.3 195.3 204.8 195.6 204.3C196.2 203.4 196.4 202.5 196.3 201.4V201C196.8 200.8 197.1 200.5 197.2 200.2V199.3C197.1 198.1 197.1 195.8 197.2 192.4V190.6C197.1 189.5 196.9 188.6 196.7 187.7H197C197 187.4 196.9 187.1 196.7 186.8L197 184.6C197 184.5 196.8 182.9 196.3 180C196.1 178 196.2 176.4 196.8 175.3C197.2 173.8 198 173 199 172.9C199.9 172.9 200.7 173.2 201.2 173.7C201.8 172.7 202.3 172.1 202.6 171.7C203.3 171.1 204 170.9 204.6 171C204.8 171 205.1 171.1 205.5 171.2V170.3C205.6 170.9 205.8 171.7 206 172.5C206.1 173.6 206.5 174.8 207.1 176.1C207.5 177.3 208 178.2 208.4 178.8C209.6 180 211.3 180.3 213.5 179.9C214.7 179.9 216.5 179.7 218.9 179.2C219.8 179.1 220.9 179.1 222.4 179.2C224.2 179 225.3 178.4 225.7 177.4C226.3 176.7 226.6 175.5 226.6 173.9C226.3 172.1 226 170.9 225.7 170.3C225.6 169.7 225.1 168.6 224.4 166.8C223.7 164.9 223.1 162.1 222.6 158.3C222.4 156.7 222.2 155.4 221.9 154.5C221.8 154.4 221.3 153.8 220.4 152.9C219.8 149.4 218.7 143.9 217.1 136.6C215.7 129.9 214.7 124.4 214.1 120.1C210.9 119.9 207.4 119.7 203.7 119.4H199C198.7 119.4 198.4 119.5 198.2 119.8C197.9 119.6 197.7 119.3 197.7 119.1C197 118.5 196.2 118.2 195.3 118C193.9 117.6 192.1 117.6 189.7 118C188 118.4 186.4 118.7 185.2 119ZM147.5 133.5L167.2 131.7C169.4 131.5 171.1 131.2 172.3 130.8L172.5 130.6C174 130.6 175.7 130.4 177.6 130.1H182.7C182.7 130.7 182.8 131.2 183 131.9C183.1 132.5 183.3 133.3 183.7 134.1C183.8 134.8 184 135.9 184.4 137.2C184.4 138.1 184.6 139.3 184.9 140.8C184.9 141.4 185.1 142.5 185.4 144.1C185.5 145.4 185.7 146.5 185.9 147.4C186.1 148.9 186.1 151.6 185.6 155.7C185.5 160.4 185.5 166.3 185.6 173.5C185.6 176.2 185.7 179.9 185.9 184.5L182.1 185.4C178.9 186.3 177.2 186.7 177 186.7C175.8 187 174.4 187.4 172.9 188C170.5 188.9 169.1 189.5 168.5 189.6C167.9 189.6 167.1 189.8 166.3 190.1C165.1 190.1 164.3 190.2 164.1 190.3C163.6 190.3 163.1 190.4 162.7 190.6H162.5C162.2 191 162 191.5 162 192.1C161.9 192.7 161.9 193.2 162.2 193.5C162.8 193.8 163.6 194 164.4 194C167.7 194 170.1 193.8 171.6 193.5L173.4 193C174.3 192.7 174.9 192.5 175.2 192.5H178.9C179.5 192.4 180.3 192.2 181.3 191.8L184.2 191.1C184.8 191.1 185.6 190.9 186.4 190.4V191.2C186.4 192.9 186.6 194.2 186.9 195.2C187.1 196.3 187.6 197.2 188.3 198.2C187.7 198.3 187.2 198.5 186.7 198.9L183.5 200.7C182.4 201.4 181.5 202 180.6 202.3C179.2 202.7 178.3 203.3 177.7 203.9C176.8 204.1 176.1 204.6 175.7 205.4L168.2 209C167 209.4 166.1 209.9 165.5 210.3C165.4 209.1 165.1 208.2 164.6 207.4C164.5 205.8 164.3 204.3 163.9 202.9C163.8 202.8 163.6 202.6 163.4 202.2C162.8 201.6 162.6 201 162.6 200.4L162.1 199C162.1 198.7 161.9 198.3 161.6 197.7C161.2 197.3 160.9 196.9 160.9 196.6C160.8 196.2 160.7 195.5 160.7 194.6C160.5 193.9 160.3 193 160 191.9C157 190.6 153.6 189.9 149.6 189.9L149.1 184.5C149.1 183 148.9 181.8 148.4 180.8C147.8 179 146.7 177.7 145.2 177C143.3 176.1 141.3 176.1 139.2 177L137 177.7C136.4 177.8 135.8 178 135 178.2C133.6 178.5 132.8 178.7 132.5 178.9C132.3 178.9 132 179 131.8 179.1C133 177.6 134.1 176 135.1 174.3C136.3 172.1 137 170.1 137.3 168.3C138.2 164 137.3 159.7 134.6 155.6C134.4 155.3 134.1 155.1 133.9 154.9C134.1 154.8 134.3 154.6 134.6 154.4C135.5 153.7 136.3 152.9 136.8 152C137.3 150.5 137.4 149.1 137.1 147.7C136.7 146.1 135.3 144.7 133.1 143.5C130.1 142.1 127.3 141.6 124.5 141.9C123 142 121.8 142.5 120.8 143.2C119.7 143.9 119.1 145.2 118.9 146.8C118.8 148.1 119.1 149.3 119.8 150.3C120.5 150.9 121.7 151.5 123.1 152.1C124 152.4 125.1 152.8 126.6 153.2C127.2 153.5 128.1 154 129.1 154.6C129.2 154.6 129.4 154.7 129.6 154.8C127.5 159.4 124.8 164.7 121.5 170.6C119.5 174.3 118.1 177.3 117.3 179.5C115.9 179.4 114.9 179.2 114.1 179C113.7 179 112.5 178.6 110.6 177.9C109.2 177.5 108.1 177.2 107.3 177.2C107.3 177.1 107.2 176.8 107 176.4V175.3C107.2 174.6 107.3 174.1 107.3 173.9V172.1C107.3 171.2 107.7 169.8 108.4 167.8L115.7 149.6C116 148.7 116.4 147.9 116.8 147.4L118.4 145.8C118.5 145.7 118.6 145.5 118.8 145.1C116.6 144.4 114.7 144 113 144.2C111 144.5 108.8 145.3 106.6 146.7C103.9 148.2 101.9 150 100.6 152.3C99.5 153.5 98.5 155.3 97.4 157.9C96.3 160.4 95.7 162.4 95.4 163.9C95.2 165.8 95.3 168.1 95.8 170.6C96.1 172.8 96.6 174.8 97.2 176.5C98.5 179.7 100.6 182.4 103.4 184.5C104.1 185.6 105.3 186.6 106.9 187.7C109.1 189 111.3 189.7 113.4 189.7C115.9 189.8 118 189 119.6 187.3C121.7 186.7 123.9 185.6 126.1 184.1C126.5 183.7 127 183.3 127.4 183C127.4 183.4 127.5 184 127.6 184.6L128.3 186.6V188.4C128.1 189.4 128 190.8 128 192.6V193.3C125 194 122.1 195.2 119.4 196.6C118.8 195.7 117.9 195.1 116.9 194.8C115.9 194.4 114.7 194.1 113.2 194.1C108.6 193.7 103.9 193.7 99.3 194.1C93.7 194.5 88.5 195.6 83.9 197.3C80.8 198.3 77.8 199.7 74.8 201.5C72.1 203.3 70.2 205.1 69 206.9C67.9 208.4 67.1 210.6 66.5 213.6C65.3 218.2 64.3 224.5 63.4 232.6C62.8 237.2 62.5 240.9 62.5 243.7C62.4 247.9 62.6 251.6 63.2 254.9C63.9 258.9 65.2 262.5 66.8 265.7C68.7 269.2 71.1 272.1 73.9 274.3C75.4 275.7 76.9 276.5 78.4 276.7C80.5 277 82.1 276.6 83.1 275.4C83.4 275.1 83.6 274.7 83.6 274.3C83.7 273.9 83.6 273.6 83.3 273.4C83.2 273.3 82.6 273.3 81.7 273.4C80 273.4 78.1 272.2 76.1 269.7C73.9 266.4 72.3 263.5 71.5 261C71.8 261.2 72.1 261.3 72.4 261.3C73 261.4 73.5 261.3 74.2 261C74.8 260.9 75.3 260.5 75.8 259.9C76 259.3 76.1 258.7 76 257.9C76 257.4 75.8 256.8 75.5 256C74.9 255.8 74.4 255.5 73.7 255.3C73 255 72.4 255 71.9 255.3C71.3 255.5 70.8 255.8 70.5 256.2L70.3 256.4C69.9 254.6 69.6 252.6 69.6 250.4C69.6 248.4 69.8 245.8 70.3 242.9C70.9 243 71.6 243 72.3 242.9C72.9 242.5 73.4 241.9 74.1 241.3C74.4 240.6 74.6 239.9 74.6 239.3C74.4 238.4 74.1 237.5 73.7 236.8C73.1 236.4 72.3 236.1 71.5 236.1H71C71.9 231.3 72.9 226.4 73.9 221.4C73.9 221.8 74.1 222.3 74.6 222.7C74.8 223.1 75.3 223.4 75.9 223.4C76.3 223.6 76.8 223.6 77.2 223.4C78.1 223 78.8 222.4 79.2 221.6C79.5 220.2 79.3 219.1 78.5 218.3C77.9 217.4 77 217.1 75.8 217.2C75.2 217.3 74.7 217.7 74.2 218.3L74 218.5C74.1 218.1 74.3 217.6 74.5 217C75.1 214.6 75.6 212.9 76 211.9C76.7 211 77.7 210.1 79 209.4C79.4 208.8 80.3 208.2 81.6 207.4C85.8 204.5 89.2 202.8 91.6 202.2C93.4 201.8 96.2 201.7 99.9 202H103.1C103.1 202.1 103 202.2 102.8 202.2C102.1 202.5 100.7 203.3 98.6 204.7C96.6 206 95.4 206.9 95 207.4C93.9 208 93 208.7 92.3 209.6C91.4 209.6 90.7 209.7 90.1 210C89.4 210.6 88.8 211.4 88.3 212.2C88.1 212.8 87.7 213.7 87.2 214.9C86.6 217 86.1 218.7 85.4 220C84.8 220 84.3 220.1 83.6 220.3C83.2 220.4 82.8 220.8 82.5 221.4C82.1 221.8 81.8 222.4 81.6 223.2C81.6 223.6 81.7 223.9 81.9 224C81.9 224.7 82.2 225.4 82.7 225.9C82.9 226.1 83.2 226.4 83.6 226.7C83.3 228.4 83.1 230 82.9 231.6V235.6C82.6 235.6 82.2 235.8 81.8 236.1C81.4 236.4 81 237 80.7 237.9C80.4 238.2 80.2 238.7 80.2 239.3C80.2 240.2 80.6 241 81.3 241.7C82 242.1 82.7 242.6 83.3 243C83.5 245.7 84 247.7 84.8 249C85.7 251.2 87.2 252.6 89.1 253C90 253.3 90.9 253.3 92 253C92 253.7 92.2 254.5 92.5 255.2C92.9 255.8 93.5 256.3 94.1 256.6C94.8 257 95.7 257.3 96.7 257.3C97.3 257.1 98 256.7 98.7 256.2C99.1 256 99.5 255.7 99.8 255.3C99.8 256.5 99.7 257.4 99.6 258.2C99.6 260.2 99.4 261.9 98.9 263.4C98 266.5 95.9 269.5 92.5 272.5C92.3 272.1 92 271.7 91.6 271.4C90.7 270.5 89.7 270.1 88.5 270.3C87.8 270.3 87.1 270.5 86.5 270.8C85.8 271.4 85.3 271.9 85.2 272.3C84.9 273.2 84.8 274.1 84.9 275C85.2 275.6 85.7 276.2 86.5 276.8L87 277.3C82.4 280.3 77.9 282.3 73.6 283.3C70.3 284 67 284.3 63.6 284C61.4 283.7 59.1 283.2 56.9 282.4C56.3 281.4 55.7 280.8 54.9 280.4L56.9 238.3C56.9 234.3 56.8 231.1 56.7 228.9C56.5 225.5 55.8 222.5 54.7 220C54.3 218.9 53.5 217.5 52.3 215.5C50.6 213.4 49.6 211.9 49.1 211C48.5 209.9 48 208.6 47.5 207V205.9C47.4 204.7 46.9 203.7 46.2 202.7C46.1 201.6 45.9 200.6 45.5 199.6C45.2 200.2 44.7 200.7 44.1 201.1C44 201.1 43.8 201 43.4 200.9C42.3 200.6 41.2 200.6 40.1 200.9C40 200.9 39 201.3 37.2 202C36.1 202.4 35.3 202.6 34.8 202.5C33.9 202.5 33.3 202.1 33.2 201.4C33.1 201.1 33.2 200.6 33.7 199.8C34.3 199.2 35.9 197.2 38.5 193.8C40.6 191.3 42 189 42.6 187.1C43.3 185.6 43.8 184.4 43.9 183.6C44.2 183 44.4 182.5 44.4 182C44.4 181.9 44.5 181.8 44.6 181.8C44.9 180.6 45.3 179.1 45.7 177.3C47.2 172.5 48.6 168.7 50 165.9C52.2 161.9 54.7 158.7 57.5 156.1C59.3 154.6 61.5 153.1 64 151.6C65.6 150.9 68.1 149.8 71.3 148.4C78.4 145.4 83.7 143.3 87.1 142.2C92.7 140 97.9 138.3 102.7 137.3C103.6 137.2 104.7 137.1 105.9 137.1C107.5 137 110.3 136.7 114.2 136.2C117.7 135.6 120.6 135.3 122.7 135.1C125.4 135 129.5 134.9 135.2 134.7C136.1 134.7 137.1 134.6 138.4 134.4C138.6 134.6 138.9 134.7 139.1 134.7C139.8 134.8 140.8 134.7 142 134.2C144.1 133.8 145.8 133.6 147.5 133.5ZM210.1 161.1C212.3 160 214.2 159.8 215.7 160.4C216.2 160.7 216.6 161 216.8 161.2V162.8C217 165 217.8 168.2 219.3 172.2L214.6 173.8C213.6 173.9 212.9 173.9 212.4 173.8C211.8 173.6 211.3 173 210.6 172C210.3 171.1 210.1 169.5 209.9 167.3C209.6 165.5 209.2 164.1 208.6 163.1C208.4 162.5 208.3 162.1 208.3 162C209 161.7 209.6 161.4 210.1 161.1ZM134.2 187.2C134.4 186.9 134.9 186.6 135.7 186.3L142.4 183.2C143 185.4 143.5 187.8 143.8 190.3H142.4V192.1C142.6 193.5 142.7 194.5 142.9 195.3C143.2 195.4 143.6 196.2 144 197.5C144.1 198.1 144.3 198.6 144.5 198.8C144.5 199.7 144.6 200.6 144.7 201.5C142.8 201.2 140.7 201.1 138.5 201.3C137.8 201.3 137.3 201.2 137.2 201C137 200.9 136.9 200.6 136.7 200.2L134.3 189.5C134 188.5 134 187.8 134.2 187.2ZM110.1 208.4V210.8C109.9 213.5 109.4 217.4 108.5 222.6C108.2 225 107.7 226.7 106.9 227.7C106.6 228.1 106.2 228.7 105.6 229.3C105.3 229.3 105 229.4 104.7 229.5C103.6 230.4 102.7 231 102 231.4C101.1 232 100.3 232.2 99.6 232.1C98.7 231.7 98 231.4 97.6 231.4C96.9 231.4 96.2 231.8 95.6 232.7C95 233.1 94.7 233.7 94.9 234.3C94.9 234.9 95.4 235.4 96.3 236.1C97.8 236.7 98.9 237.2 99.6 237.7C100 237.8 100.6 238 101.2 238.2C101.2 238.4 101.1 238.7 100.9 238.9C100.5 239.2 100 239.4 99.6 239.6C97.4 240.7 96 241.2 95.6 241.4C93.9 241.7 92.5 241.8 91.3 241.7C90.7 237.2 90.6 232.7 91.1 228C91.5 226.1 92 224.1 92.4 222C92.3 221.8 92.1 221.3 91.9 220.7C91.8 219.5 91.9 218.3 92.4 217.2C92.7 216 93.3 215 94.2 214C95.6 212.7 97.6 211.4 100.2 210C104.4 207.8 107.7 207.4 110.1 208.4ZM175.6 222.7C175 223.3 173 225.2 169.6 228.5C168.2 229.7 167 230.8 165.8 231.7V224.5C166.2 224.2 166.7 223.9 167.2 223.7L170.3 220.4C171.8 218.9 174.1 217.2 177.2 215.3C179 214.1 180.5 213 181.7 212.1V219.9C179.8 219.9 177.9 220.9 175.6 222.7ZM165.8 238.3C166.2 237.9 166.8 237.6 167.4 237.4C168.3 237.4 168.9 237.6 169.4 237.9C170 238.1 170.4 238.6 170.7 239.3C171.4 240.8 171.6 242 171.2 243C171 243.6 170.7 244.1 170.3 244.6C169.6 245 169 245.2 168.5 245.1C167.8 245.1 167.1 244.7 166.5 244C165.8 243.6 165.3 243 165 242.4C164.5 241.8 164.5 241 165 240C165.2 239.1 165.5 238.6 165.8 238.3ZM174.5 249.9C175.4 249.3 176.3 249.1 177.4 249.4C178.5 249.7 179.1 250.2 179.4 251C179.7 251.6 179.9 252.1 179.9 252.5C179.9 253.1 179.8 253.6 179.7 253.9C179.4 254.3 178.9 254.9 178.1 255.5C177.2 255.9 176.6 256.2 176.1 256.2C175.4 256.3 174.8 256.2 174.3 255.9C173.9 255.7 173.5 255.2 173.2 254.6C172.8 253.5 172.7 252.6 173 251.9C173.4 251 173.9 250.3 174.5 249.9ZM162.2 250.1L162.4 249.9C163.3 249.6 164.3 249.7 165.3 250.1C166 250.2 166.6 250.5 166.9 251C167.5 252 167.6 253.1 167.2 254.3C166.9 254.9 166.6 255.2 166.5 255.4C165.6 256 164.6 256.2 163.4 256.1C163.1 255.9 162.8 255.8 162.5 255.8V253C162.3 251.8 162.2 250.8 162.2 250.1ZM162.9 262.4C163.2 263 163.4 263.7 163.4 264.4C163.4 265 163.2 265.5 162.9 265.9V262.4ZM174 262.6C174.4 262.9 174.6 263.5 174.5 264.5C174.5 265.1 174.3 265.6 174 266.3C173.7 266.7 173.2 267 172.4 267C171.7 267.1 171 267.1 170.4 267C169.8 266.9 169.4 266.6 169.1 266.1C168.2 265.2 168.1 264.3 168.6 263.2C168.8 262.8 169 262.3 169.3 261.9C169.7 261.6 170.2 261.4 170.6 261.4C171.3 261.3 172 261.3 172.6 261.6C173.3 261.6 173.7 262 174 262.6ZM178.2 242.8C178 242.1 178 241.3 178.2 240.6C178.4 239.9 178.9 239.3 179.6 238.8C180.3 238.4 181 238.1 181.6 238.1C182.2 237.9 182.8 238 183.5 238.3C183.7 238.3 184.1 238.5 184.6 238.8C184.6 240.4 184.7 242.1 184.8 243.9C184.5 244.5 184.1 244.8 183.7 245C183.1 245.3 182.3 245.3 181.3 245C179.7 244.7 178.7 243.9 178.2 242.8ZM185.2 249.4C185.3 250.5 185.5 251.6 185.7 252.7C185 252 184.7 251 185 249.8C185.1 249.9 185.2 249.8 185.2 249.4ZM184.3 257.7C185 257.7 185.8 257.9 186.5 258.4V263C186.2 263.4 185.6 263.8 184.7 264.1C183.5 264.3 182.6 264.1 181.8 263.4C181.2 263.1 180.8 262.5 180.7 261.6C180.4 261 180.5 260.3 180.9 259.6C181.2 258.7 181.6 258.1 182 257.8C182.8 257.8 183.5 257.7 184.3 257.7ZM187 268V270.9C186.6 270.3 186.3 269.6 186.3 268.9C186.3 268.3 186.5 267.7 186.8 267C186.9 267.5 187 267.8 187 268ZM179.6 271.9C179.9 272.8 180 273.5 179.8 274.1C179.7 275 179.2 275.6 178.5 276.1C177.9 276.5 177.2 276.8 176.5 276.9C175.9 276.9 175.4 276.8 174.7 276.7C174.1 276.5 173.6 276 173.1 275.3C172.8 274.6 172.7 273.8 172.9 272.9C173.3 272 173.9 271.3 174.5 270.7C175.1 270.6 175.6 270.4 176 270.2H177.6C178.5 270.6 179.2 271.1 179.6 271.9ZM182 286.3C181.1 285.4 180.9 284.4 181.2 283.3C181.3 282.9 181.5 282.5 181.9 282.2C182.8 281.2 183.7 280.8 184.8 280.9C185.9 280.9 186.6 281.3 187 282.2C187.3 282.5 187.5 282.8 187.5 283.1C187.8 283.5 187.8 283.9 187.5 284.2C187.5 284.5 187.4 284.8 187.2 285.1C187.1 285.7 186.8 286.2 186.4 286.6C185.7 287.1 184.8 287.2 183.9 286.9C183.3 286.9 182.7 286.7 182 286.3ZM183.2 301.8C182.5 302.3 181.7 302.5 181 302.5C180.3 302.6 179.7 302.5 179.2 302.2C178.5 301.9 177.9 301.4 177.6 300.6C177 299.6 177.1 298.7 177.9 298C178.8 296.8 180 296.2 181.6 296.4H182.1C182.8 296.5 183.4 296.9 183.9 297.5C184.4 298.4 184.6 299.2 184.4 299.9C184 300.7 183.6 301.2 183.2 301.8ZM163.4 275.5C163.8 275.3 164.4 275.1 165.2 275.1C166.1 275.1 166.8 275.5 167.4 276.2C168 277.2 168.1 278.2 167.6 279.3C167.4 280 167 280.5 166.5 280.7C165.8 281.1 165 281.3 164.3 281.1H163.6L163.4 275.5ZM163.5 286.3C163.9 286.4 164.3 286.6 164.6 287C165 287.9 165.3 288.7 165.3 289.4C165.3 290.1 164.9 290.8 164.2 291.4C164.1 291.7 164 291.9 163.8 292.1L163.5 286.3ZM170.7 286.3C171.4 285.8 172.2 285.6 172.9 285.6C173.6 285.6 174.3 285.8 174.9 286.3C175.5 286.7 175.8 287.3 175.8 288.1C175.9 289 175.9 289.7 175.6 290.3C175.1 291 174.6 291.6 174.2 291.9C173.8 292.1 173.1 292.2 172.2 292.1C171.1 292.1 170.4 291.9 170 291.4C169.3 290.7 168.8 290 168.6 289.4C168.7 288.2 169.3 287.1 170.7 286.3ZM164 298.7C164.7 298.5 165.4 298.6 166 298.9C166.6 299.1 167.1 299.5 167.5 300C168.2 300.6 168.6 301.5 168.4 302.5C168.3 303.8 167.7 304.7 166.6 305.1C165.9 305.3 165.2 305.3 164.6 305.1H164.1L164 298.7ZM173.1 309H174.2C174.6 309.2 175.1 309.3 175.6 309.5C174.4 309.6 172.8 309.8 170.9 310C171.1 309.8 171.4 309.6 171.8 309.3C172.3 309.1 172.7 309 173.1 309ZM90.4 261.9C89 262.5 88.1 263.4 87.8 264.6C87.8 265.5 88.2 266.3 89.1 267C90 267.7 91 268.1 92.3 268.1C92.9 268.1 93.4 267.8 94.1 267.3C94.5 266.9 94.8 266.2 94.9 265.3C95.2 264.7 95.1 264.1 94.5 263.3C94.2 262.7 93.7 262.2 92.9 261.7C92.1 261.7 91.3 261.8 90.4 261.9ZM81.1 257.7C81.2 258.4 81.7 259 82.4 259.5C83 259.9 83.8 260.2 84.6 260.2C85.2 260.2 86 260 86.8 259.7C87.4 259.4 87.9 258.8 88.4 257.9C88.5 257.3 88.6 256.6 88.6 255.9C88.5 255.2 88.1 254.5 87.5 253.9C86.9 253.3 86.3 252.9 85.5 252.8C84.9 252.6 84.1 252.6 83.3 252.8C82.7 253.2 82.2 253.6 81.9 253.9C81.5 254.3 81.2 254.9 81.1 255.7C80.8 256.3 80.8 257 81.1 257.7ZM83 263.3C81.7 262.7 80.5 262.8 79.3 263.7C78.7 264.2 78.3 264.7 78.2 265.1C77.9 265.8 77.7 266.5 77.7 267.1C78 268.5 78.8 269.4 79.9 270C80.6 270.2 81.3 270.3 81.9 270.3C82.6 270.1 83.3 269.9 83.8 269.6C84.4 269.2 84.7 268.6 84.9 268C85.1 267.4 85.3 266.8 85.3 266.2C85.2 265.5 84.8 264.9 84.2 264.4C83.9 263.8 83.5 263.4 83 263.3ZM83 246.8C82.6 246.1 82 245.5 81.2 245.2C80.5 244.8 79.7 244.6 78.8 244.7C78.2 244.7 77.5 244.9 76.8 245.4C76.4 246 76.1 246.6 76 247.4C75.8 248.1 75.9 248.8 76.2 249.4C76.3 250.1 76.6 250.7 77.1 251.2C77.8 251.8 78.6 252 79.5 251.9C80.2 251.9 81 251.7 81.7 251.2C82.4 250.8 82.9 250.1 83 249.2C83.3 248.4 83.3 247.6 83 246.8ZM79.3 226.7C78.6 226.3 77.9 226.3 77.4 226.7C75.9 227 75 227.9 74.8 229.4C74.5 230.8 74.8 231.9 75.6 232.7C76.5 233.6 77.6 233.8 78.8 233.4C79.7 233.4 80.3 233.2 80.6 232.7C81.3 232.3 81.8 231.6 81.9 230.7C81.9 229.8 81.7 229 81.2 228.1C80.7 227.3 80 226.9 79.3 226.7ZM81.1 212.9C80.8 213.8 80.9 214.5 81.6 215.1C81.8 215.8 82.3 216.3 82.9 216.6C83.5 216.9 84.2 217 84.9 216.9C85.5 216.7 86.1 216.2 86.9 215.5C87.3 214.9 87.6 214.3 87.8 213.5C87.8 212.6 87.6 211.8 87.1 211.3C86.8 210.6 86.2 210 85.2 209.7C85.2 209.8 85.1 209.9 85 209.9C84.1 209.7 83.2 209.8 82.1 210.4C81.6 211 81.2 211.8 81.1 212.9ZM107.1 138.8C106.9 138.7 106.7 138.5 106.7 138.3C105.3 138.6 104.1 139 102.9 139.4C104.1 139.2 105.5 139 107.1 138.8ZM332.8 194.1C332.6 193.4 331.6 192.6 329.9 191.9C328.3 191.5 326.7 191.3 325.1 191.4C322.9 191.7 321.2 191.9 320.2 191.9C319.5 191.9 318.2 191.7 316.6 191.4C313.5 190.5 311.3 190.1 309.9 190.1C308.4 189.9 306.1 190.1 303 190.8C302.7 190.5 302.4 190.2 302.2 189.9C301.3 188.6 300.6 187.6 300.2 187C299.1 186 297.7 185.5 295.7 185.5C294.8 185.5 293.2 185.7 290.8 186.2C289 186.5 286 186.7 281.9 186.9C278.4 187.2 275.6 187.6 273.7 188.2C271.6 188.5 268.9 189.2 265.6 190.2C262.1 191.3 259.6 191.9 258.1 192.2C251.4 193.3 246.5 194 243.3 194.4C238.7 195.1 234.9 196.3 231.8 197.7L226.9 202.6C225.7 203.8 224.9 204.9 224.4 205.9C224.2 207 224.2 208.8 224.4 211.5C224.4 211.7 224.5 211.9 224.7 212.2C224.1 213.6 223.6 214.8 223.1 216C223 216.7 222.9 217.8 222.9 219.2C222.7 220.1 222.6 221.2 222.6 222.7C222.5 224.5 222.1 227.2 221.5 230.7C221.1 235.2 221.5 239.4 222.9 243.4C223 244.3 223.5 245.5 224.2 247.2C224.5 248.7 224.7 250 224.9 251C224.9 251.9 224.7 253.5 224.4 255.8C224.4 256 224.3 256.1 224.2 256.3C224.3 257 224.4 257.7 224.4 258.3C224.4 259.5 224.6 261 224.9 262.8C225.3 263.7 225.8 265 226.3 266.8C226.4 268.6 226.8 270.8 227.4 273.5C227.5 275.1 227.7 276.5 228.1 277.7C229.4 279.5 231.1 280.5 233.2 280.7C234.1 280.8 234.8 280.7 235.4 280.4C235.4 280.6 235.5 280.7 235.6 280.9C236.8 283.4 240.1 284.6 245.3 284.2C256.7 283.6 269.5 282.4 283.8 280.7C292.9 279.5 305.8 277.6 322.4 275.1C325.1 274.6 327.1 274 328.4 273.2C329.9 272.2 330.9 270.8 331.6 269C332.2 267.5 332.4 266 332.4 264.4C332.6 264.2 332.7 264.1 332.9 264.1C332.8 267.3 332.7 270 332.7 272.4C332.7 276.1 333.4 278.7 334.9 280.2C336.1 281.1 337.5 281.3 339.1 281C340.9 280.9 342.1 280.1 342.7 278.8C343.4 277.6 343.7 275.8 343.5 273.2L343 262.5C343 260 342.6 258 341.9 256.5C341.5 255.8 340.9 255 340.1 254.3C339.2 253.7 338.3 253.4 337.2 253.4C336.6 253.4 335.7 253.6 334.5 254.1C333 254.5 332 254.8 331.4 254.8C331.1 255.1 330.8 255.3 330.5 255.3C330.1 254.6 329.8 254 329.7 253.5C328.2 248.7 326.9 241.8 325.9 232.8C324.8 224.5 323.9 218.3 323 214.3C324.2 214 325.1 213.6 325.9 213.2L327 211C327.3 209.9 327.5 209.1 327.7 208.6L329.5 205.6C330.2 204.1 331 202 331.9 199.4C332.6 198.1 333 197.3 333 197C333.1 195.9 333.1 195 332.8 194.1ZM305.8 195.7H306.7C308.5 195.7 311.4 196.3 315.3 197.5C318.9 198.6 321.8 198.9 324 198.4C322.9 201.1 321.9 202.9 320.8 204L320.1 204.7C319 204.1 317.8 203.2 316.3 202.2C313.1 200 310.3 198.3 307.8 197.1C306.9 196.5 306.3 196.2 305.8 196V195.7ZM298.3 197.9C299.5 198.6 301.1 199.6 303.2 200.8C303.9 201.2 305 202.2 306.3 203.7C307.5 204.9 308.4 205.6 309.2 205.9C309.6 206.2 310.3 206.5 311.2 206.8C311.8 207.4 312.3 207.8 312.8 208.1C313.2 208.8 313.6 210 313.9 211.4L315.7 219.9C317.6 228.5 319 235.6 319.9 241.1C320.6 247.2 321.5 251.5 322.4 254C323 255.7 323.6 257.5 324.4 259.4C324.4 260.3 324.7 261 325.3 261.6C325.6 262.2 325.9 262.6 326.2 262.9C326.8 264.6 326.6 265.8 325.7 266.7C325.3 267 324.2 267.3 322.5 267.6C322.5 266.5 322.3 265.6 322 264.9C321.3 262.8 320.8 261.3 320.7 260.4C320.4 258.6 320.2 257.3 320 256.4C319.8 255.5 319.4 254 318.9 252.1C318.3 250 317.9 248.6 317.8 247.8C317.2 245.6 316.7 243.9 316.4 242.7C315.7 240.7 314.7 239.2 313.5 238.2C312.4 237.6 310.5 237.3 307.7 237.1C306.8 236.9 306.2 236.7 305.9 236.7C305.2 236.2 304.6 235.9 304.1 235.8C302.7 235.1 301.2 235 299.4 235.6C297.9 236 296.9 237 296.3 238.5C295.7 239.6 295.4 240.1 295.4 240.3C294.8 240.7 294.3 241.1 293.8 241.4C293.7 239.2 293.5 237.4 293.3 236L292.6 232.5C292.2 231.3 291.9 230.2 291.9 229.2C291.9 227.8 291.8 226.8 291.7 226C291.7 224.7 291.5 223.7 291.2 223.1C290.6 221.3 289.1 219.3 286.7 217.1C284.3 214.7 282.2 213.3 280.5 212.7C278.8 212.2 277 212.2 275.1 212.7C271.6 212.9 268.2 214.2 265.1 216.4C261.7 218.6 259 221.6 257.1 225.3C256 227 255.3 228.8 254.9 230.7C254.3 233.1 254.2 235.5 254.6 238C254.8 238.9 255.2 240.1 255.7 241.8C256.2 243.5 256.5 244.8 256.6 245.5C256.9 245.8 257.1 246.3 257.1 247.1C256.7 246.7 256.2 246.3 255.7 246C254.5 245.1 253.2 244.9 251.7 245.3C250.1 245.9 248.9 246.8 248.2 248C247.8 246.8 247 245.9 245.8 245.1C244.7 244.2 243.6 243.7 242.5 243.7C241.3 244 240.2 244.5 239.3 245.3C238.2 246.2 237.7 247.2 237.7 248.5C237.6 249.5 237.7 250.6 238.2 251.8C238.5 252.4 239 253.4 239.8 254.9C240.7 256.8 241.3 259.3 241.8 262.2C242.1 263.9 242.5 266.5 242.9 270C243.2 271.9 243.7 273.4 244.3 274.5C244.7 274.8 245.1 275.1 245.4 275.4C244.2 275.5 243 275.7 241.8 275.9C242 274.4 241.8 272.6 241.1 270.5C240.2 268.1 239.6 266.4 239.3 265.2C238.7 263.8 238.2 262 237.7 259.6L236.1 255.5C235.4 253.6 234.9 252.2 234.6 251.5C234.1 249.9 233.7 248.5 233.5 247.3C233.2 246.6 233 245.5 233 244.1C232.7 242.5 232.5 241.4 232.5 240.8C232.2 238.4 231.7 235.7 230.9 232.5C230.9 232.4 230.5 230.1 229.6 225.8L229.3 226.3C229.5 224.5 229.6 223.5 229.8 223.2V219.6C229.8 218.3 230 217.1 230.5 216.1C231 213.9 232.7 211.1 235.7 207.8C237.2 206.2 238.7 204.5 240.3 202.9C241 202.3 241.5 201.8 241.6 201.1C242.8 201 244 200.8 245.2 200.6C246.4 200.5 248.2 200.4 250.8 200.4H256.4C257.7 200.1 259.3 199.7 261.2 199.1C261.7 199.1 263.4 198.7 266.4 198C275.3 195.1 284.5 193.7 294.2 193.7C295.1 195.5 296.4 196.8 298.3 197.9ZM282.7 224.4C283 224.7 283.2 225 283.4 225.3C283.8 225.7 284.1 226.4 284.3 227.3C284.4 229.5 284.7 232.7 285.1 236.7L286.9 247.4C287.5 252.8 288.2 257.3 288.9 261.1C287.4 261.3 284.4 261.5 280 261.5C276.3 261.7 273.4 262 271.4 262.4C269.7 262.8 267.9 263.5 266 264.4L265.3 262.5V261.8C265.1 261.4 264.9 260.5 264.6 259.1C263.9 257.1 263.3 254.2 263 250.6L261.9 236.4C261.7 234.6 261.8 233.3 262.1 232.6C262.3 231.7 262.9 230.6 263.9 229.1C264.8 228 265.4 227.3 265.8 226.9C268.8 223.6 272.3 221.6 276.5 220.9C278.1 220.7 279.2 220.9 279.8 221.6C280 221.9 280.4 222.3 280.9 222.7C281.1 223.3 281.4 223.7 281.6 223.8C281.7 223.9 282 224.1 282.7 224.4ZM273.1 272.1V271.7C273.4 271.5 273.6 271.4 273.8 271.4V271.9C273.6 271.9 273.4 272 273.1 272.1ZM252.5 275C252.5 274.9 252.6 274.8 252.7 274.8V275.1C252.6 274.9 252.5 274.9 252.5 275ZM269.3 249.2C267.9 250.6 267.3 251.8 267.3 252.8C267.3 254.4 268.2 256 270 257.4C270.7 258 271.5 258.5 272.2 258.8C273.1 259 274.2 259.1 275.4 259C277.9 258.6 279.7 257.9 281 257C281.9 256.3 282.6 255.1 283.2 253.5C283.4 252 283.5 250.9 283.4 250.2C283.4 248.8 282.9 247.8 281.8 247C281.4 246.6 280.5 246.3 279.1 246.3C275.1 246 271.8 246.9 269.3 249.2ZM274.8 252.1C275.7 251.5 277.1 251 279 250.7C279.2 251 279 251.5 278.3 252.1C278 252.5 277.8 253 277.6 253.6L272.7 254.1C272.7 254 272.8 253.8 273 253.6L273.8 252.5C274.1 252.4 274.4 252.3 274.8 252.1ZM280 234.3C279.9 233.4 279.6 232.7 279.1 232.3C278.7 231.9 278.1 231.5 277.3 231.2C275.1 230.3 272.9 230.3 270.9 231C270.3 231.1 269.7 231.3 269.1 231.7C268.5 232.3 267.9 233.3 267.2 234.6C266.8 236 266.7 237 267 237.8C267.4 238.5 268.2 238.8 269.4 238.5C269.4 239.1 269.8 239.6 270.5 239.8C272.5 240.3 274.3 240.2 276.1 239.6C277.6 239 278.7 238 279.4 236.7C279.8 235.9 280 235.2 280 234.3ZM300.2 124.8C300.2 124.4 300.1 123.9 300 123.5H300.2C300.5 123.5 300.9 123.3 301.3 123C301.9 122.7 302.5 122.4 303.2 122.1C303.9 121.9 304.3 121.6 304.3 121.3L304.7 120.6C304.9 120.1 304.9 119.6 304.7 119C304.5 118.6 304 118.3 303.2 118.1L301.8 117.4C300.9 117.1 300 117.1 298.9 117.4L298.2 117.6C297.5 118.1 297 118.6 296.8 119C295.3 119.1 293 119.4 289.7 119.8C288.5 120 287.3 120.1 286.4 120.3V120.8C286.2 121.4 286.1 122.1 285.9 122.8C285.2 124.4 284.2 126.5 283 129C282.5 130.1 282 130.7 281.6 131C280.9 131.5 280 131.6 278.9 131.3C277.9 131 277.3 130.3 277.1 129.3C277 128.6 277.1 127.7 277.4 126.6C277.4 126.5 277.6 126 278.1 125.3C278.7 125.4 279.2 125.4 279.7 125.3L282.6 124C283.2 123.8 283.7 123.5 284.2 123.1C284.4 122.7 284.5 122.1 284.4 121.3L284.2 120.8C283.6 119.9 282.7 119.4 281.7 119.2C281 119.1 279.8 119.3 278.2 119.9L277.7 120.2C277.4 120.3 277.2 120.5 277 120.9H275.4C275 121.2 274.7 121.5 274.6 121.8C274.4 121.9 274.3 122 274.3 122.2C272.3 122.4 270 122.5 267.6 122.7C267.2 122.7 266.7 122.8 266.3 123H265.2C264.8 123.1 264.3 123.1 263.8 123C263.7 123 263.6 123.1 263.6 123.2C263.3 123.9 262.8 124.8 262 125.9C261.7 126.8 261.4 127.9 261.2 129.4C260.6 131.1 260.2 132.3 260.1 133C259.8 133.9 259.5 134.5 259.2 135C258.3 135.9 257.4 136.1 256.3 135.7C255.2 135.4 254.6 134.7 254.3 133.7C254.2 133.1 254.3 132.1 254.6 130.8L255.3 128.1C255.9 128.1 256.6 128 257.5 127.8C258.7 127.6 259.5 127.2 259.9 126.7C260.3 126.5 260.6 126.2 260.6 125.9C260.9 125.7 260.9 125.3 260.6 124.8C260.5 124.5 260.3 124.3 259.9 124.1C259.6 123.9 258.8 123.8 257.5 123.6C256.8 123.3 256.2 123.1 255.9 123.1C255.3 123.1 254.8 123.3 254.6 123.6C254.1 123.7 253.7 123.9 253.5 124.3C248.7 124.7 244.3 125.3 240.1 126.1C238.9 126.3 237.7 126.4 236.3 126.6C235.4 126.7 234.6 126.9 233.9 127.3C233.4 125.5 232.8 124.3 232 123.8C231.1 122.3 229.6 121.4 227.5 120.9C226.2 120.6 224.4 120.4 222 120.4H220.6C221.3 125.4 222.6 132.1 224.4 140.5C226.6 151 228.1 159 228.9 164.3V165.2C229.6 165 230.4 164.7 231.3 164.3C234.5 163.1 236.5 161.8 237.3 160.3C238 159.1 238.4 157.6 238.2 155.8C238.2 155.2 237.9 153.7 237.3 151.2C237.2 149.8 237.1 147.9 237.1 145.3C236.8 143.6 236.6 142.2 236.6 141.1C237.8 140.9 239.2 140.7 240.8 140.4L241.5 140.1C241.6 140 241.7 139.8 241.9 139.6C242.1 138.9 242.3 138.1 242.6 137.4C243 136.5 243.3 135.7 243.4 135V133C243.6 132.3 243.8 131.7 244.1 131.4C244.8 130.3 245.7 129.8 246.8 129.8C248 129.9 248.8 130.5 249.3 131.6C249.9 132.3 249.9 133.5 249.5 134.9C249.2 134.6 248.8 134.4 248.4 134.4C247.5 134.3 246.6 134.4 245.7 134.9C244.5 135.3 243.9 136 243.7 136.9C243.7 137.5 243.8 137.9 243.9 138.2C244 138.5 244.4 138.7 245 138.9C245.1 139.1 245.5 139.2 246.1 139.2H247.4C248.3 139.2 248.9 139 249.3 138.7C253.6 138.1 258.5 137.4 264 136.7C264.6 135.4 264.9 134.3 265.1 133.4C265.2 132.4 265.4 131.7 265.6 131.2C265.7 130.3 266 129.6 266.4 129C266.8 128.4 267.5 128 268.4 127.7C269.3 127.4 269.9 127.4 270.4 127.7C271.6 128.3 272.1 129.8 271.8 132.2H269.1C268.5 132.2 267.9 132.4 267.3 132.9C266.7 133.2 266.3 133.6 266.2 134C265.9 134.7 266 135.3 266.7 135.6L267.4 136.3C267.8 136.3 268.3 136.5 268.7 137L269.8 137.3H270.5C271.7 137.4 272.6 137.3 273 137C273.6 136.7 273.9 136.3 274.1 135.7C275.3 135.5 276.4 135.4 277.4 135.2C280.8 134.9 284 134.5 287 134.1C287.6 132.8 287.9 131.8 288.1 131C288.4 129.8 288.6 129 288.6 128.8C289 128.2 289.4 127.6 289.7 126.9C290.1 126.3 290.7 126 291.5 125.8C292.1 125.4 292.6 125.4 293.3 125.8C294.2 126.3 294.7 127 294.9 128C294.9 128.2 295 128.3 295.1 128.3H293.3L291.3 128.8C290.6 129 290 129.5 289.5 130.1L288.8 130.3L288.6 131.2C288.3 131.9 288.5 132.7 289.3 133.4C289.7 134.1 290.4 134.6 291.3 134.7C291.8 134.9 292.5 134.9 293.5 134.7C294.7 134.7 295.6 134.5 296 134C296.6 133.7 297 133.3 297.3 132.7C302.2 132 306.5 131.1 310.2 130.2C310.8 129 311.2 128.2 311.3 127.6C311.6 126.2 312 125.2 312.4 124.6C313 123.6 313.9 123 314.9 122.8C315.6 122.7 316.3 123 316.9 123.7C317.6 124.3 318 125 318 125.9V126.4H316.9L313.1 127.5C312.4 127.7 311.9 128.3 311.8 129.3C311.7 130 312 130.7 312.7 131.3C312.9 131.5 313.3 131.6 313.8 131.8L315.3 132.7H316.2C316.3 132.7 316.5 132.8 316.9 132.9C317.2 133.1 317.7 133.1 318.3 132.9C318.9 132.8 319.3 132.7 319.6 132.7C320 132.3 320.4 131.8 320.7 131.3C320.8 131.1 320.9 130.8 320.9 130.5C321.5 130.3 322.1 130.2 322.8 130.2L327.3 129.8C327.5 128.3 327.8 126.9 328 125.5V124.8C328.1 124.6 328.3 124.4 328.7 124.1C329.1 123.5 329.4 123 329.4 122.5C330.1 121.1 330.2 119.9 329.7 118.7C329.2 118 328.5 117.1 327.5 116C326.4 115.3 325.7 114.7 325.3 114.2C322.6 114.5 320.6 114.7 319.4 114.9C318.8 115.1 317.6 115.2 315.6 115.2H313.8C313.5 115.6 313.3 116.2 313.1 117C313 117.4 312.8 117.9 312.6 118.3C311.1 118.5 309.8 118.6 308.6 118.8C308.5 119.1 308.3 119.5 307.9 120.1C307.6 120.4 307.2 120.9 306.8 121.5L306.3 122.3C306.2 122.6 306.1 122.9 306.1 123.2C306.2 123.5 306.3 123.9 306.3 124.3C306.4 125.7 306 126.8 305 127.6C304.6 127.9 304.1 128.1 303.6 128.1C302.9 128.1 302.4 127.9 302.1 127.6C301.2 126.8 300.5 125.9 300.2 124.8ZM296.9 34C296.7 34 296.1 34.2 295.1 34.5H293.3C292.1 34.2 291.2 34.2 290.6 34.5C289.9 34.5 289.1 34.8 288.4 35.3C287.5 36.2 286.9 37 286.6 37.5C286.3 38.2 286.3 39 286.6 39.7C286.3 40 286.1 40.3 285.9 40.6H284.9V40.8C283.6 41 282.3 41.2 281.1 41.5H279.3C278.6 41.6 277.9 41.7 277.3 41.9C276.4 41.9 275.5 42 274.6 42.2C274.2 42.3 273.8 42.4 273.5 42.4C272.6 42.6 271.7 42.7 270.8 42.9C269.7 42.9 268.6 43.1 267.5 43.4C260.1 44 252.7 44.6 245.5 45.4C244.4 45.4 243.5 45.5 242.6 45.7C232.6 46.6 222.5 47.3 212.2 47.9C209.5 48.2 206.8 48.6 204 49C202 49.1 200.2 49.3 198.4 49.5C197.5 49.6 196.6 49.7 195.7 49.9C189.3 50.5 182.8 51.1 176.3 51.8C175.6 51.8 174.8 51.9 174.1 52L148.1 56.2C145.6 56.5 143.7 56.4 142.5 56C141.3 55.6 140.4 54.7 139.6 53.3C139.3 53.1 139 52.8 138.9 52.6C138.3 51.4 137.9 50.2 137.6 49.1C136.9 48.5 136 48.4 134.9 48.8C134.9 48.2 135 47.7 135.2 47.3C135 47.1 134.9 47 134.7 47C134.5 47 133.4 46.7 131.4 46.2C130 46 128.1 45.3 125.5 44H122C102.2 46.4 82.6 48.7 63.1 51.1C57.8 51.7 52.6 52.4 47.5 53.1C47.6 53.2 47.7 53.4 47.7 53.8C47.5 54.1 47.1 54.4 46.6 54.7C44.1 57.1 42.3 59 41 60.7C40.8 60.6 40.4 60.5 39.9 60.3C38.2 59.6 36.5 58.2 34.8 56.2C34.2 55.6 33.8 55.1 33.5 54.7C32.4 54.8 31.4 54.9 30.3 55.1C28.6 55.8 26.4 56.6 23.9 57.3C21.8 58 19.4 58.9 16.7 60C15.6 60.3 14.9 60.8 14.5 61.4H14.4C14.4 62 14.3 62.6 14.1 63.4C14 63.8 13.9 64.4 13.9 65C13.6 66.5 13.2 68 12.8 69.6C12.1 72.9 10.8 75.1 9.2 76.3C9.1 77.7 9 79.3 9 81.2L9.2 87.9C9.5 90 9.8 91.4 9.9 92.2C10.1 93.5 10.8 95.1 11.9 96.8C13.4 99.5 15.2 102 17.3 104C19.1 105.4 20.9 106.5 22.6 107.3C24.3 107 25.8 106.7 27.1 106.5C27.1 106.2 27 105.9 26.9 105.8H27C27.6 106.5 28.5 107.1 29.5 107.4C30.6 107.4 31.5 107.2 32.2 106.7C33.5 106.3 35 105 36.6 102.9L41.1 97.6C42 98.6 42.5 99.8 42.5 101.3C42.5 102 42.3 102.9 42 103.8C42 103.9 41.9 104.1 41.8 104.5C50.1 103.3 58.3 102.2 66.3 101.2C87.1 98.5 107.9 96.1 128.6 94C129.2 93.9 129.7 93.8 130.1 93.8H132.1C132.5 93.5 132.9 93 133.2 92.4C134.4 91.7 136 90.2 138.1 87.9C139.9 86.3 141 85.1 141.4 84.4C141.7 83.8 142 82.8 142.2 81.5C142.5 81.2 142.9 81 143.3 80.8H143.6C143.8 81 144.3 81.2 145.1 81.2C145.8 81.4 146.6 81.3 147.3 81C148 80.9 148.7 80.3 149.2 79.4C150.7 79.3 152.4 79.2 154.3 79C158.3 78.5 162.6 78 167 77.6C171.4 77.3 175.9 76.9 180.6 76.5C183.1 76.1 185.7 75.8 188.1 75.7H189.5C192.8 75.4 196.1 75 199.5 74.6C200.2 75 201.4 75.1 202.8 74.8L262.5 69.7C265 69.4 268.7 68.8 273.5 67.9C278.7 67.2 282.3 66.5 284.4 66C285.3 65.9 286.2 65.8 286.9 65.8V67.1C287.3 68.5 288.1 69.5 289.1 70.3C290 70.7 291 70.9 292.2 70.8H292.7C293.3 71.4 293.9 71.7 294.5 71.9L294.8 72.1C297.9 70.9 300.9 69.9 303.7 69C307.2 67.8 310.9 66.6 314.6 65.7C318.2 64 320.9 62.7 322.7 61.6C324.4 60.7 325.5 60.2 325.8 60.1C326.4 59.9 327.3 59.5 328.5 59C329.1 58.7 329.6 58.3 329.8 57.9C330.7 57.7 331.6 57.6 332.5 57.6C332.5 56.4 332.4 55.4 332.3 54.5C332.4 54.5 332.5 54.6 332.7 54.9C334.1 56.3 335.7 56.7 337.6 56.3C338 56.3 338.4 56.1 338.7 55.8C338.6 54.7 338.4 53.8 338 52.9C336.6 48.6 335.8 45.6 335.6 44C335.3 42.4 335.4 40.5 335.8 38.4C333.7 38.3 331.6 38.1 329.4 37.9C329.2 38.2 329.1 38.5 328.9 38.8V38.6C328.7 38.4 328.6 38.1 328.4 37.9C325.3 37.5 322 37.1 318.4 36.8L311.1 35.7C309 35.6 307.3 35.4 306.2 35C304.6 34.9 303.3 34.8 302.4 34.8C301.1 34.8 300.3 34.7 300 34.5C298.6 34.2 297.5 34 296.9 34ZM321.4 43.9C321.1 44 320.9 44.1 320.7 44.3C320.6 45 320.5 46.2 320.5 47.6L320.2 50.6C320.1 52.2 320.1 53.6 320.2 54.8V55.5H318.9L314.6 57.1C312.1 57.8 309.3 58.6 306.3 59.5C305 59.8 303.9 60 303 60C301.6 60.2 300.3 60.3 298.9 60.5H295.6C295 60.5 294.5 60.6 293.8 60.7C293.4 60.3 292.8 59.9 292.2 59.6V59C292 58.3 291.2 57.6 290 57C288.7 56.4 287.2 56.1 285.5 56.1C283.1 56.1 280.3 56.4 276.9 57C272.9 58.1 270 58.7 268.2 59C265.1 59.7 261.2 60.2 256.4 60.5C251.4 61 247.5 61.3 244.9 61.4H244C239.8 61.7 234.6 62.5 228.2 63.6C226.8 63.6 225.3 63.7 223.7 63.8V64.3H222.3C222.1 64.6 221.8 64.8 221.6 65C220.4 65.3 219.1 65.6 217.6 65.9H213.3C211.8 66 210.3 66.1 208.7 66.1C206.3 66.4 204 66.7 201.5 66.8C196.8 67 192 67.3 187.3 67.6C184.8 67.6 182.2 67.8 179.7 68.3H177.3C177.6 68.3 178.1 68.1 178.9 67.6L187.1 66.5C187.7 66.2 188.1 66 188.2 65.8C185 64.3 181.6 63.8 178 64.2H176C176 64.1 175.3 63.9 173.8 63.5C172.5 63.1 170.7 62.9 168.3 63C165.6 63.3 163.6 63.5 162.3 63.5C160.4 63.4 158.9 63.4 157.8 63.5C154.8 63.8 152.6 64 151.1 64.2C149.4 64.1 148.2 64.1 147.3 64.2C145.8 64.5 144.8 65.1 144.1 66C143.5 67.1 143.7 68.5 144.6 70.5H143.8C143.6 70.5 143.3 70.6 142.9 70.8L142.7 69.7C142.4 67.3 142.2 65.3 142 63.8C145.5 63.6 149.2 63.1 152.9 62.5C153.6 62.5 154.3 62.4 154.9 62.3C158.1 62 161.5 61.7 165.1 61.4C166.3 61.3 167.5 61.2 168.9 61.2C169.9 60.7 170.9 60.5 172 60.5C179.1 59.9 186.3 59.4 193.5 58.7C197.5 58.3 201.5 57.7 205.7 57.1C215.7 56.5 225.8 55.8 236.1 54.9C238.8 54.7 241.5 54.4 244.3 54.1C244.8 53.8 245.3 53.6 245.7 53.6C247.3 53.6 249 53.5 250.8 53.4C251.2 53.2 251.8 53.1 252.6 52.9C257.8 52.6 263.2 52.2 268.7 51.6H272C272.7 51.4 273.5 51.4 274.4 51.6H275.8C276.7 51.4 277.5 51.4 278.2 51.6C278.9 51.6 279.5 51.5 280 51.3C280.9 51.3 281.6 51.4 282.2 51.6C282.3 51.7 282.5 51.9 282.7 52.3C283.6 52.9 284.4 53.1 285.1 53.1C286.2 53 287.1 52.7 287.8 52.3C287.9 51.6 288.3 50.7 288.9 49.6C290.4 47.1 291.9 44.8 293.5 42.9L295.5 40.9C296.4 41.1 297.5 41.4 298.8 41.8C300.7 42.2 302.1 42.5 302.8 42.5H306.3C307.5 42.5 309.3 42.6 311.5 42.8C313.2 42.9 315.7 43.1 318.8 43.5H319.5C320.3 43.5 320.9 43.7 321.4 43.9ZM325.2 43.9V43.4C325.3 43.4 325.5 43.2 325.7 42.9C326.1 42.9 326.7 42.7 327.3 42.4V45.7C327.4 47.1 327.5 48.3 327.5 49.5L327.3 53H326.2C325.9 53.2 325.6 53.3 325.3 53.3C325.4 50.3 325.4 47.1 325.2 43.9ZM90.8 63.2C90 63.4 86.5 64 80.6 65C76.4 65.6 72.2 66.3 67.9 67C60 68.1 52.2 69.1 44.3 70.2C45.2 69.6 45.8 68.8 46.3 68C46.5 67.5 47.2 66.5 48.3 65C48.9 64.3 49.4 63.7 49.7 63.2C55.8 62.6 61.5 62.1 66.8 61.6C68.7 61.4 70.7 61.1 72.7 60.8C79.8 59.9 87 58.8 94.3 57.6C97.2 57.2 100.5 56.9 104.3 56.8C110.6 56.6 114.7 56.5 116.8 56.5C121.8 56.5 126.5 56.7 131.1 57C131.1 57.6 130.9 58.1 130.6 58.6C130.2 58.6 129.5 58.7 128.6 58.8C123.8 60.2 117.7 61.1 110.1 61.7C99.2 62.5 92.7 63.1 90.8 63.2ZM91.3 77.2L83.3 78.3C77.8 79 73 79.4 69 79.7C62.9 80.3 57.9 80.7 53.8 81C51.3 81.3 48.8 81.6 46.5 81.9V81.2C46.5 79 46.2 77.3 45.6 76.1C45.5 75.9 45.3 75.6 44.9 75.3C45.8 75 46.8 74.8 47.8 74.6C48 74.4 48.4 74.3 48.9 74.3C54.3 73.9 60.8 73.2 68.5 72.3C70.3 72 72.2 71.7 74.1 71.6C90 69.6 101.9 68.3 109.6 67.9C112.1 67.7 115.9 67.6 120.8 67.4H122.3L124.8 66.7C125.5 66.2 126.1 66 126.6 66H128.4L130 65.6H132C132.9 67.8 134 69.1 135.3 69.3C135.4 69.3 135.5 69.4 135.5 69.6V70.1L135.3 70.3V70.1C134.1 69.6 132.3 69.7 130.1 70.5L126.6 71.9H125.7L122.2 72.7V73H120.6L120.4 73.5C119.7 73.2 119.1 72.8 118.8 72.4C116.6 72.6 114.3 73 111.9 73.5C102.6 75.1 95.8 76.4 91.3 77.2ZM132.3 78.2C133.2 78.2 133.8 78.6 134.2 79.3H134.6C134.4 79.4 134.2 79.6 134.2 79.8C133.3 81.3 131.8 82.8 129.7 84.4C129.4 84.7 129 85 128.6 85.3C128.1 85.3 127.6 85.4 127 85.5L125 86.2C123.4 86.5 122.1 86.2 121.2 85.4C121.1 85.2 121 85.1 120.8 84.9C111.1 87.4 101.1 88.6 90.7 88.2H85.3C83.4 88.2 81.7 88.3 80.2 88.4C78.6 88.6 76.4 89.1 73.5 89.8L67 91.3C63.3 92 58 92.7 51.1 93.2L46.7 89V88.8L67.7 87.7H68.8C75.8 87.1 80.9 86.6 84.1 86.4C88.3 85.8 95.9 84.7 107.1 83.1C112.9 82 118.1 81.3 122.5 80.9L130.3 78.9C131.2 78.4 131.9 78.2 132.3 78.2ZM24 78.2C24.6 77.9 25.4 77.6 26.4 77.3L28.2 76.5C28.9 76.3 29.6 76.4 30.1 76.7C31 76.3 31.9 76 33 75.9C33.6 75.7 34.4 75.6 35.4 75.6C35 76.7 34.6 77.6 34.3 78.5C34.3 79.2 34.7 80.7 35.4 83C35.4 83.3 35.5 83.6 35.6 83.9C33.6 84.5 31.6 85 29.8 85.5C29.7 85.3 29.4 85.2 29 85C28.8 85.1 28.7 85.3 28.5 85.5C27.9 85.6 27.2 85.6 26.5 85.5L25.7 85L24.6 85.5C23.7 85.9 22.9 85.7 22.2 84.8C21.1 84.1 20.7 83.1 20.8 81.9C21 81.7 21.3 81.1 21.7 80.1C22.6 79.5 23.4 78.8 24 78.2ZM24.4 72.6V71.9C24.8 69.2 26.5 67.2 29.5 65.7C30.6 65.2 32.1 64.7 34.1 64.3C34.8 65.4 35.6 66.5 36.5 67.6C37.6 69 38.5 69.9 39.2 70.5C37.9 70.7 36.6 70.8 35.2 70.8C32.8 71.1 31.1 71.4 30.1 71.6C29 71.8 28 72.2 27 72.6H24.4ZM32.9 90C33.6 89.9 34.5 89.8 35.5 89.8H35.8C35.4 90.2 34.8 90.9 34.2 91.8C33.9 92.4 33.5 93.1 33.1 93.8H29.6C27.8 93.9 26.6 93.8 26 93.5C25.3 93.4 24.8 93 24.5 92.4C23.9 92 23.6 91.4 23.6 90.6C25.9 90.5 29 90.3 32.9 90Z" fill="#0000FF"/>
</g>
<defs>
<clipPath id="clip0_1_5">
<rect width="334.3" height="285" fill="white" transform="translate(9 34)"/>
</clipPath>
</defs>
</svg>