<svg xmlns="http://www.w3.org/2000/svg" viewBox="0 0 132 24"><defs><linearGradient id="a" x1="0" x2="1" y1=".678" y2=".322"><stop offset="0" stop-color="#FFA65A"/><stop offset="1" stop-color="#FF537A"/></linearGradient></defs><path d="M20.835 22.78c-4.641 1.646-9.843.36-13.12-3.243a2.697 2.697 0 0 0-1.471-.863 4.25 4.25 0 0 0-.9-.099 7.77 7.77 0 0 0-1 .061c-.233.028-.476.067-.713.103-.703.11-1.431.222-2.053.113a2.082 2.082 0 0 1-.445-.129 1.63 1.63 0 0 1-.727-.591 2.233 2.233 0 0 1-.259-.508v-.003a2.247 2.247 0 0 1-.137-.551 1.585 1.585 0 0 1 .166-.91c.072-.135.156-.262.257-.378.403-.474 1.035-.843 1.648-1.2.205-.12.417-.243.614-.367.282-.175.552-.369.807-.58a4.15 4.15 0 0 0 .624-.64 2.593 2.593 0 0 0 .558-1.583 11.535 11.535 0 0 1 2.265-6.54A12.006 12.006 0 0 1 12.595.707 12.318 12.318 0 0 1 19.667.36a12.09 12.09 0 0 1 6.048 3.59c.379.437.897.74 1.471.863.295.065.598.098.9.098.334.002.669-.018 1-.06.233-.028.476-.067.712-.103.703-.11 1.431-.223 2.053-.113.152.026.302.07.445.129a1.63 1.63 0 0 1 .726.593c.107.157.195.328.26.506v.003c.068.177.114.362.136.55a1.558 1.558 0 0 1-.166.91c-.071.134-.157.26-.256.377-.404.474-1.036.843-1.648 1.2-.205.12-.417.244-.614.369a7.196 7.196 0 0 0-.807.58c-.231.19-.441.404-.624.64a2.572 2.572 0 0 0-.558 1.583c-.127 4.815-3.267 9.063-7.913 10.705ZM14.25 5.143c-.459.163-.899.37-1.315.618a7.114 7.114 0 0 0-2.053 1.854A6.938 6.938 0 0 0 9.51 11.39a6.884 6.884 0 0 0 1.023 3.98 7.134 7.134 0 0 0 3.131 2.741 7.35 7.35 0 0 0 4.1.584 7.447 7.447 0 0 0 2.732-.968 7.123 7.123 0 0 0 2.052-1.854 6.922 6.922 0 0 0 1.372-3.775 6.771 6.771 0 0 0-.068-1.379 6.955 6.955 0 0 0-1.851-3.759c-1.973-2.069-5.027-2.785-7.749-1.816Z" fill="url(#a)"/><path d="M47.955 11.855c-.652-.478-1.429-.828-2.33-1.048l-2.626-.672a4.925 4.925 0 0 1-.407-.119h-.002c-.386-.13-.697-.293-.936-.488-.32-.261-.479-.608-.479-1.041 0-.289.092-.553.279-.791.185-.239.44-.427.767-.564a2.908 2.908 0 0 1 1.134-.207c.697 0 1.291.164 1.78.489.49.325.794.784.912 1.376l2.867-1.017c-.197-.718-.519-1.32-.964-1.812a5.002 5.002 0 0 0-2.024-1.366 7.108 7.108 0 0 0-2.437-.424c-1.009 0-1.924.188-2.747.564-.823.376-1.473.908-1.947 1.595-.475.686-.712 1.47-.712 2.352 0 1.103.317 1.969.95 2.597.032.033.063.063.095.092.697.636 1.602 1.084 2.715 1.345l2.156.543H44l.512.129c.579.145 1.035.359 1.369.64.334.282.5.661.5 1.138 0 .376-.108.709-.322.998-.216.289-.52.513-.912.672-.393.159-.857.239-1.391.239-.994 0-1.773-.227-2.336-.683-.564-.455-.905-1.074-1.024-1.855l-2.952 1.049c.17.741.476 1.396.918 1.966.569.737 1.318 1.301 2.247 1.691.925.391 1.975.586 3.147.586 1.171 0 2.15-.205 3.025-.617.875-.412 1.55-.984 2.025-1.714.474-.73.712-1.551.712-2.462 0-1.185-.367-2.118-1.101-2.797a5.664 5.664 0 0 0-.462-.384Zm82.962.384a5.664 5.664 0 0 0-.462-.384c-.652-.478-1.429-.828-2.33-1.048l-2.626-.672a4.925 4.925 0 0 1-.407-.119h-.002c-.386-.13-.697-.293-.936-.488-.32-.261-.479-.608-.479-1.041 0-.289.092-.553.279-.791.185-.239.44-.427.767-.564a2.908 2.908 0 0 1 1.134-.207c.697 0 1.291.164 1.78.489.49.325.794.784.912 1.376l2.867-1.017c-.197-.718-.519-1.32-.964-1.812a5.002 5.002 0 0 0-2.024-1.366 7.108 7.108 0 0 0-2.437-.424c-1.009 0-1.924.188-2.747.564-.823.376-1.473.908-1.947 1.595-.475.686-.712 1.47-.712 2.352 0 1.103.317 1.969.95 2.597.032.033.063.063.095.092.697.636 1.602 1.084 2.715 1.345l2.156.543h.001l.512.129c.579.145 1.035.359 1.369.64.334.282.5.661.5 1.138 0 .376-.108.709-.322.998-.216.289-.52.513-.912.672-.393.159-.857.239-1.391.239-.994 0-1.773-.227-2.336-.683-.564-.455-.905-1.074-1.024-1.855l-2.952 1.049c.17.741.476 1.396.918 1.966.569.737 1.318 1.301 2.247 1.691.925.391 1.975.586 3.147.586 1.171 0 2.15-.205 3.025-.617.875-.412 1.55-.984 2.025-1.714.474-.73.712-1.551.712-2.462 0-1.185-.367-2.118-1.101-2.797ZM51.035 7.923h2.781V19.59h-2.781Zm1.39-5.034c-.96 0-1.737.759-1.737 1.694 0 .936.777 1.695 1.737 1.695.959 0 1.738-.759 1.738-1.695 0-.935-.777-1.694-1.738-1.694Zm12.572 6.658a4.476 4.476 0 0 0-1.369-1.19c-.793-.449-1.716-.673-2.769-.673-1.053 0-2.036.25-2.904.749a5.36 5.36 0 0 0-2.034 2.049c-.49.867-.735 1.829-.735 2.884 0 1.056.245 2.017.735 2.885a5.418 5.418 0 0 0 2.046 2.06 5.674 5.674 0 0 0 2.892.759c1.053 0 1.98-.227 2.781-.683a4.514 4.514 0 0 0 1.046-.814v.673c0 .694-.145 1.287-.435 1.778a2.793 2.793 0 0 1-1.211 1.118c-.519.251-1.142.378-1.869.378-.89 0-1.621-.183-2.192-.552-.571-.368-.945-.814-1.123-1.334l-2.67.976a4.81 4.81 0 0 0 1.291 1.756c.578.506 1.278.892 2.101 1.161a8.47 8.47 0 0 0 2.637.401c1.261 0 2.362-.227 3.303-.683.942-.455 1.669-1.117 2.181-1.985.511-.867.768-1.894.768-3.079v-7.005c0-.766.025-1.427.077-1.984.052-.556.13-.98.234-1.269h-2.781Zm-.768 5.511a3.16 3.16 0 0 1-1.212 1.171 3.55 3.55 0 0 1-1.757.434 3.319 3.319 0 0 1-1.713-.444 3.306 3.306 0 0 1-1.224-1.193 3.195 3.195 0 0 1-.445-1.66c0-.607.149-1.164.445-1.67a3.193 3.193 0 0 1 1.224-1.192 3.451 3.451 0 0 1 1.713-.434 3.65 3.65 0 0 1 1.746.423c.511.282.916.676 1.213 1.182.296.506.445 1.07.445 1.691 0 .622-.146 1.2-.435 1.692Zm21.26-6.798c-.675-.383-1.449-.576-2.325-.576-.875 0-1.698.193-2.38.576a4.532 4.532 0 0 0-1.624 1.506 3.752 3.752 0 0 0-1.369-1.528c-.586-.369-1.301-.554-2.146-.554-.712 0-1.354.135-1.925.402a3.699 3.699 0 0 0-1.39 1.095c-.196.255-.36.531-.489.824V7.923h-2.47V19.59h2.781v-6.31c0-.637.114-1.179.344-1.627.23-.448.539-.788.924-1.019a2.375 2.375 0 0 1 1.246-.347c.445 0 .853.105 1.224.315.37.21.663.523.878.943.215.419.323.925.323 1.518v6.527h2.781v-6.527c0-.608.114-1.121.344-1.54.23-.419.538-.73.924-.933a2.647 2.647 0 0 1 1.246-.303c.741 0 1.33.25 1.768.749.437.498.657 1.174.657 2.027v6.527h2.781v-7.156c0-.969-.183-1.81-.546-2.526a3.859 3.859 0 0 0-1.557-1.648Zm16.154 8.077V7.923h-2.781v1.431a4.012 4.012 0 0 0-.423-.422 4.99 4.99 0 0 0-1.591-.922c-.601-.217-1.271-.326-2.013-.326a5.65 5.65 0 0 0-2.948.803 5.645 5.645 0 0 0-2.102 2.19c-.506.925-.756 1.952-.756 3.08 0 1.127.25 2.136.756 3.069a5.62 5.62 0 0 0 2.102 2.201 5.66 5.66 0 0 0 2.948.802c1.068 0 2.072-.239 2.881-.716a4.614 4.614 0 0 0 1.435-1.313v1.79h2.803c-.12-.303-.2-.733-.244-1.289a24.81 24.81 0 0 1-.067-1.964Zm-3.238-.802a3.293 3.293 0 0 1-1.256 1.258c-.534.303-1.143.455-1.824.455a3.463 3.463 0 0 1-3.026-1.735 3.472 3.472 0 0 1-.467-1.778c0-.651.156-1.222.467-1.757a3.428 3.428 0 0 1 1.279-1.268 3.5 3.5 0 0 1 1.769-.467c.638 0 1.268.157 1.802.467.534.311.952.73 1.256 1.258a3.52 3.52 0 0 1 .457 1.789c0 .665-.153 1.243-.457 1.778ZM115.516 5.19c-1.223-.679-2.585-1.019-4.083-1.019-1.498 0-2.877.34-4.093 1.019a7.554 7.554 0 0 0-2.881 2.82c-.706 1.2-1.057 2.523-1.057 3.968 0 1.446.351 2.809 1.057 4.002a7.655 7.655 0 0 0 2.881 2.82c1.216.686 2.58 1.029 4.093 1.029s2.86-.343 4.083-1.029a7.649 7.649 0 0 0 2.892-2.82c.703-1.193 1.056-2.527 1.056-4.002 0-1.474-.353-2.768-1.056-3.968a7.548 7.548 0 0 0-2.892-2.82Zm.29 9.381a4.835 4.835 0 0 1-1.826 1.831 5.009 5.009 0 0 1-2.547.673 5.03 5.03 0 0 1-2.558-.673 4.916 4.916 0 0 1-1.824-1.831c-.445-.774-.668-1.638-.668-2.593 0-.954.223-1.792.668-2.559a4.94 4.94 0 0 1 1.824-1.821 4.991 4.991 0 0 1 2.558-.673c.935 0 1.765.224 2.536.673a4.943 4.943 0 0 1 1.825 1.821c.445.767.667 1.62.667 2.559 0 .94-.219 1.819-.655 2.593Z" fill="var(--token-f9376adb-fe94-4614-8108-c32dbf90bd1c, #fff) /* {&quot;name&quot;:&quot;Uno&quot;} */"/></svg>
