<svg width="120" height="47" fill="none" xmlns="http://www.w3.org/2000/svg"><path d="M1.72 13.87c1.186 1.24 2.54 2.36 3.531 3.74 8.828 12.288 21.525 18.464 35.665 21.803 4.88 1.153 10.426 1.042 15.378.057 14.155-2.817 27.128-8.638 38.31-17.93 3.223-2.678 5.941-5.963 8.29-9.807-1.293.487-2.605.928-3.875 1.469-3.74 1.592-7.406 3.38-11.219 4.767-1.664.606-3.624.596-5.433.51-.671-.032-1.692-1.009-1.821-1.693-.12-.635.585-1.935 1.182-2.12 9.837-3.046 18.283-8.81 27.186-13.684 3.122-1.71 5.093-1.236 6.412 1.804 3.352 7.724 4.832 15.875 4.661 24.304-.006.28-.444.55-1.107 1.322-6.847-2.57-4.716-9.902-8.09-15.808-.848 1.413-1.348 2.54-2.102 3.456-14.597 17.74-33.81 27.128-56.143 30.633-3.4.534-7.054.323-10.47-.257-12.703-2.155-24.028-7.47-33.381-16.364-3.013-2.866-5.174-6.692-7.413-10.273C.41 18.41.4 16.48 0 14.797c.573-.31 1.147-.618 1.72-.927Z" fill="#b3441e"/></svg>
