<svg width="500" height="500" fill="none" xmlns="http://www.w3.org/2000/svg"><g filter="url(#a)"><path d="M445.988 304V185c0-5.6 0-8.4-1.09-10.539a9.995 9.995 0 0 0-4.37-4.371c-2.139-1.09-4.939-1.09-10.54-1.09H397c-5.6 0-8.4 0-10.54 1.09a10.006 10.006 0 0 0-4.37 4.371C381 176.6 381 179.4 381 185v119m64.988 0H476m-30.012 0H381m64.988 36v83c0 5.601 0 8.401-1.09 10.54a9.995 9.995 0 0 1-4.37 4.371C438.389 439 435.589 439 429.988 439H397c-5.6 0-8.4 0-10.54-1.089a10.006 10.006 0 0 1-4.37-4.371C381 431.401 381 428.601 381 423V304" stroke="#7BB560" stroke-width="60"/><path d="M250 136c0-5.6 0-8.4 1.09-10.539a10.006 10.006 0 0 1 4.37-4.371C257.6 120 260.4 120 266 120h33c5.601 0 8.401 0 10.54 1.09a9.995 9.995 0 0 1 4.37 4.371C315 127.6 315 130.4 315 136v108c0 5.601 0 8.401-1.09 10.54a9.995 9.995 0 0 1-4.37 4.371C307.401 260 304.601 260 299 260h-33c-5.6 0-8.4 0-10.54-1.089a10.006 10.006 0 0 1-4.37-4.371C250 252.401 250 249.601 250 244V136ZM250 307c0-5.6 0-8.4 1.09-10.539a10.006 10.006 0 0 1 4.37-4.371C257.6 291 260.4 291 266 291h33c5.601 0 8.401 0 10.54 1.09a9.995 9.995 0 0 1 4.37 4.371C315 298.6 315 301.4 315 307v116c0 5.601 0 8.401-1.09 10.54a9.995 9.995 0 0 1-4.37 4.371C307.401 439 304.601 439 299 439h-33c-5.6 0-8.4 0-10.54-1.089a10.006 10.006 0 0 1-4.37-4.371C250 431.401 250 428.601 250 423V307Z" stroke="#BECE57" stroke-width="60"/><path d="M202.493 67.379c-16.092-9.325-36.696-3.84-46.021 12.253l-38.822 66.992c-4.679 8.075-7.018 12.112-7.467 16.074a19.063 19.063 0 0 0 3.576 13.432c2.36 3.214 6.397 5.554 14.471 10.233 8.075 4.679 12.112 7.019 16.075 7.468a19.063 19.063 0 0 0 9.695-1.437v246.107c0 9.788 0 14.682 1.677 18.515a19.994 19.994 0 0 0 10.308 10.308c3.833 1.677 8.727 1.677 18.515 1.677 9.789 0 14.683 0 18.515-1.677a20 20 0 0 0 10.309-10.308C215 453.183 215 448.289 215 438.501V101.757c0-5.46 0-9.28-.314-12.24.335-8.771-4.07-17.431-12.193-22.138Z" fill="#F2CA60"/><path fill-rule="evenodd" clip-rule="evenodd" d="M69.472 30c-2.295-.001-5.544-.004-8.482.236-3.523.288-9.146 1.065-15.15 4.124a40 40 0 0 0-17.48 17.48c-3.059 6.004-3.836 11.627-4.124 15.15-.24 2.938-.237 6.187-.236 8.482v348.057c-.001 2.295-.004 5.544.236 8.482.288 3.523 1.065 9.146 4.124 15.149a39.998 39.998 0 0 0 17.48 17.481c6.004 3.059 11.627 3.836 15.15 4.124 2.938.24 6.186.237 8.48.236h34.048c2.295.001 5.543.004 8.481-.236 3.523-.288 9.146-1.065 15.149-4.124a39.997 39.997 0 0 0 17.481-17.481c3.059-6.003 3.836-11.626 4.124-15.149.24-2.938.237-6.186.236-8.481l-.001-139.029h-60v124.5h-4.987v-129.5h65v-60h-.013v-20.683c-1.732.184-3.491.18-5.247-.019-2.783-.316-5.368-1.278-8.123-2.622-2.675-1.304-5.833-3.134-9.734-5.395l-.322-.186c-3.9-2.261-7.058-4.09-9.52-5.763-2.536-1.722-4.656-3.486-6.314-5.744a24.064 24.064 0 0 1-4.513-16.954c.315-2.784 1.278-5.368 2.621-8.123 1.305-2.676 3.135-5.833 5.395-9.734l35.757-61.705.001-7.101c.001-2.295.004-5.544-.236-8.482-.288-3.523-1.065-9.145-4.124-15.15a39.998 39.998 0 0 0-17.481-17.48c-6.003-3.059-11.626-3.836-15.149-4.124-2.938-.24-6.187-.237-8.482-.236H69.472Zm19.517 189.501H84v-129.5h4.989v129.5Z" fill="#EC8F5E"/></g><defs><filter id="a" x="22" y="30" width="460" height="447.001" filterUnits="userSpaceOnUse" color-interpolation-filters="sRGB"><feFlood flood-opacity="0" result="BackgroundImageFix"/><feColorMatrix in="SourceAlpha" values="0 0 0 0 0 0 0 0 0 0 0 0 0 0 0 0 0 0 127 0" result="hardAlpha"/><feOffset dx="2" dy="4"/><feGaussianBlur stdDeviation="2"/><feComposite in2="hardAlpha" operator="out"/><feColorMatrix values="0 0 0 0 0 0 0 0 0 0 0 0 0 0 0 0 0 0 0.1 0"/><feBlend in2="BackgroundImageFix" result="effect1_dropShadow_29_99"/><feBlend in="SourceGraphic" in2="effect1_dropShadow_29_99" result="shape"/><feColorMatrix in="SourceAlpha" values="0 0 0 0 0 0 0 0 0 0 0 0 0 0 0 0 0 0 127 0" result="hardAlpha"/><feOffset dx="-4" dy="-4"/><feComposite in2="hardAlpha" operator="arithmetic" k2="-1" k3="1"/><feColorMatrix values="0 0 0 0 0 0 0 0 0 0 0 0 0 0 0 0 0 0 0.1 0"/><feBlend in2="shape" result="effect2_innerShadow_29_99"/></filter></defs></svg>