<svg width="28" height="28" fill="none" xmlns="http://www.w3.org/2000/svg"><g clip-path="url(#a)"><path d="M9.333 15.167V5.25a1.75 1.75 0 0 1 3.5 0V11L13 15.5" fill="#fff"/><path d="M9.333 15.167V5.25a1.75 1.75 0 0 1 3.5 0V11L13 15.5" stroke="#000" stroke-linecap="round" stroke-linejoin="round"/><path d="M12.833 15v-3.917a1.75 1.75 0 1 1 3.5 0V14" fill="#fff"/><path d="M12.833 15v-3.917a1.75 1.75 0 1 1 3.5 0V14" stroke="#000" stroke-linecap="round" stroke-linejoin="round"/><path d="M16.5 15c0-.464-.078-4.172.25-4.5a1.75 1.75 0 0 1 2.987 1.237v3.52" fill="#fff"/><path d="M16.5 15c0-.464-.078-4.172.25-4.5a1.75 1.75 0 0 1 2.987 1.237v3.52" stroke="#000" stroke-linecap="round" stroke-linejoin="round"/><path d="M19.833 13.417a1.75 1.75 0 1 1 3.5 0v5.25a7 7 0 0 1-7 7H14h.243a7 7 0 0 1-5.848-3.15 87.43 87.43 0 0 1-.228-.35c-.364-.56-1.642-2.786-3.834-6.683a1.75 1.75 0 0 1 .625-2.359 2.178 2.178 0 0 1 2.66.327l1.715 1.715" fill="#fff"/><path d="M19.833 13.417a1.75 1.75 0 1 1 3.5 0v5.25a7 7 0 0 1-7 7H14h.243a7 7 0 0 1-5.848-3.15 87.43 87.43 0 0 1-.228-.35c-.364-.56-1.642-2.786-3.834-6.683a1.75 1.75 0 0 1 .625-2.359 2.178 2.178 0 0 1 2.66.327l1.715 1.715" stroke="#000" stroke-linecap="round" stroke-linejoin="round"/></g><defs><clipPath id="a"><path fill="#fff" d="M0 0h28v28H0z"/></clipPath></defs></svg>
