<svg xmlns="http://www.w3.org/2000/svg" width="1155" height="1155" xml:space="preserve"><path fill="#FFF" d="M0 0h1155v1155H0z"/><path d="M0 0h100v100H0z" transform="matrix(.35 0 0 .35 350 70)" style="fill:#000"/><path d="M0 0h100v100H0z" transform="matrix(.35 0 0 .35 385 70)" style="fill:#000"/><path d="M0 0h100v100H0z" transform="matrix(.35 0 0 .35 490 70)" style="fill:#000"/><path d="M0 0h100v100H0z" transform="matrix(.35 0 0 .35 525 70)" style="fill:#000"/><path d="M0 0h100v100H0z" transform="matrix(.35 0 0 .35 595 70)" style="fill:#000"/><path d="M0 0h100v100H0z" transform="matrix(.35 0 0 .35 665 70)" style="fill:#000"/><path d="M0 0h100v100H0z" transform="matrix(.35 0 0 .35 700 70)" style="fill:#000"/><path d="M0 0h100v100H0z" transform="matrix(.35 0 0 .35 735 70)" style="fill:#000"/><path d="M0 0h100v100H0z" transform="matrix(.35 0 0 .35 770 70)" style="fill:#000"/><path d="M0 0h100v100H0z" transform="matrix(.35 0 0 .35 350 105)" style="fill:#000"/><path d="M0 0h100v100H0z" transform="matrix(.35 0 0 .35 385 105)" style="fill:#000"/><path d="M0 0h100v100H0z" transform="matrix(.35 0 0 .35 420 105)" style="fill:#000"/><path d="M0 0h100v100H0z" transform="matrix(.35 0 0 .35 490 105)" style="fill:#000"/><path d="M0 0h100v100H0z" transform="matrix(.35 0 0 .35 525 105)" style="fill:#000"/><path d="M0 0h100v100H0z" transform="matrix(.35 0 0 .35 630 105)" style="fill:#000"/><path d="M0 0h100v100H0z" transform="matrix(.35 0 0 .35 665 105)" style="fill:#000"/><path d="M0 0h100v100H0z" transform="matrix(.35 0 0 .35 385 140)" style="fill:#000"/><path d="M0 0h100v100H0z" transform="matrix(.35 0 0 .35 420 140)" style="fill:#000"/><path d="M0 0h100v100H0z" transform="matrix(.35 0 0 .35 490 140)" style="fill:#000"/><path d="M0 0h100v100H0z" transform="matrix(.35 0 0 .35 595 140)" style="fill:#000"/><path d="M0 0h100v100H0z" transform="matrix(.35 0 0 .35 700 140)" style="fill:#000"/><path d="M0 0h100v100H0z" transform="matrix(.35 0 0 .35 770 140)" style="fill:#000"/><path d="M0 0h100v100H0z" transform="matrix(.35 0 0 .35 350 175)" style="fill:#000"/><path d="M0 0h100v100H0z" transform="matrix(.35 0 0 .35 455 175)" style="fill:#000"/><path d="M0 0h100v100H0z" transform="matrix(.35 0 0 .35 560 175)" style="fill:#000"/><path d="M0 0h100v100H0z" transform="matrix(.35 0 0 .35 665 175)" style="fill:#000"/><path d="M0 0h100v100H0z" transform="matrix(.35 0 0 .35 385 210)" style="fill:#000"/><path d="M0 0h100v100H0z" transform="matrix(.35 0 0 .35 420 210)" style="fill:#000"/><path d="M0 0h100v100H0z" transform="matrix(.35 0 0 .35 455 210)" style="fill:#000"/><path d="M0 0h100v100H0z" transform="matrix(.35 0 0 .35 490 210)" style="fill:#000"/><path d="M0 0h100v100H0z" transform="matrix(.35 0 0 .35 560 210)" style="fill:#000"/><path d="M0 0h100v100H0z" transform="matrix(.35 0 0 .35 595 210)" style="fill:#000"/><path d="M0 0h100v100H0z" transform="matrix(.35 0 0 .35 665 210)" style="fill:#000"/><path d="M0 0h100v100H0z" transform="matrix(.35 0 0 .35 700 210)" style="fill:#000"/><path d="M0 0h100v100H0z" transform="matrix(.35 0 0 .35 735 210)" style="fill:#000"/><path d="M0 0h100v100H0z" transform="matrix(.35 0 0 .35 420 245)" style="fill:#000"/><path d="M0 0h100v100H0z" transform="matrix(.35 0 0 .35 525 245)" style="fill:#000"/><path d="M0 0h100v100H0z" transform="matrix(.35 0 0 .35 630 245)" style="fill:#000"/><path d="M0 0h100v100H0z" transform="matrix(.35 0 0 .35 700 245)" style="fill:#000"/><path d="M0 0h100v100H0z" transform="matrix(.35 0 0 .35 735 245)" style="fill:#000"/><path d="M0 0h100v100H0z" transform="matrix(.35 0 0 .35 350 280)" style="fill:#000"/><path d="M0 0h100v100H0z" transform="matrix(.35 0 0 .35 420 280)" style="fill:#000"/><path d="M0 0h100v100H0z" transform="matrix(.35 0 0 .35 490 280)" style="fill:#000"/><path d="M0 0h100v100H0z" transform="matrix(.35 0 0 .35 560 280)" style="fill:#000"/><path d="M0 0h100v100H0z" transform="matrix(.35 0 0 .35 630 280)" style="fill:#000"/><path d="M0 0h100v100H0z" transform="matrix(.35 0 0 .35 700 280)" style="fill:#000"/><path d="M0 0h100v100H0z" transform="matrix(.35 0 0 .35 770 280)" style="fill:#000"/><path d="M0 0h100v100H0z" transform="matrix(.35 0 0 .35 350 315)" style="fill:#000"/><path d="M0 0h100v100H0z" transform="matrix(.35 0 0 .35 455 315)" style="fill:#000"/><path d="M0 0h100v100H0z" transform="matrix(.35 0 0 .35 595 315)" style="fill:#000"/><path d="M0 0h100v100H0z" transform="matrix(.35 0 0 .35 630 315)" style="fill:#000"/><path d="M0 0h100v100H0z" transform="matrix(.35 0 0 .35 665 315)" style="fill:#000"/><path d="M0 0h100v100H0z" transform="matrix(.35 0 0 .35 735 315)" style="fill:#000"/><path d="M0 0h100v100H0z" transform="matrix(.35 0 0 .35 70 350)" style="fill:#000"/><path d="M0 0h100v100H0z" transform="matrix(.35 0 0 .35 140 350)" style="fill:#000"/><path d="M0 0h100v100H0z" transform="matrix(.35 0 0 .35 175 350)" style="fill:#000"/><path d="M0 0h100v100H0z" transform="matrix(.35 0 0 .35 245 350)" style="fill:#000"/><path d="M0 0h100v100H0z" transform="matrix(.35 0 0 .35 280 350)" style="fill:#000"/><path d="M0 0h100v100H0z" transform="matrix(.35 0 0 .35 315 350)" style="fill:#000"/><path d="M0 0h100v100H0z" transform="matrix(.35 0 0 .35 420 350)" style="fill:#000"/><path d="M0 0h100v100H0z" transform="matrix(.35 0 0 .35 455 350)" style="fill:#000"/><path d="M0 0h100v100H0z" transform="matrix(.35 0 0 .35 490 350)" style="fill:#000"/><path d="M0 0h100v100H0z" transform="matrix(.35 0 0 .35 525 350)" style="fill:#000"/><path d="M0 0h100v100H0z" transform="matrix(.35 0 0 .35 630 350)" style="fill:#000"/><path d="M0 0h100v100H0z" transform="matrix(.35 0 0 .35 665 350)" style="fill:#000"/><path d="M0 0h100v100H0z" transform="matrix(.35 0 0 .35 700 350)" style="fill:#000"/><path d="M0 0h100v100H0z" transform="matrix(.35 0 0 .35 840 350)" style="fill:#000"/><path d="M0 0h100v100H0z" transform="matrix(.35 0 0 .35 945 350)" style="fill:#000"/><path d="M0 0h100v100H0z" transform="matrix(.35 0 0 .35 1015 350)" style="fill:#000"/><path d="M0 0h100v100H0z" transform="matrix(.35 0 0 .35 1050 350)" style="fill:#000"/><path d="M0 0h100v100H0z" transform="matrix(.35 0 0 .35 105 385)" style="fill:#000"/><path d="M0 0h100v100H0z" transform="matrix(.35 0 0 .35 140 385)" style="fill:#000"/><path d="M0 0h100v100H0z" transform="matrix(.35 0 0 .35 175 385)" style="fill:#000"/><path d="M0 0h100v100H0z" transform="matrix(.35 0 0 .35 210 385)" style="fill:#000"/><path d="M0 0h100v100H0z" transform="matrix(.35 0 0 .35 315 385)" style="fill:#000"/><path d="M0 0h100v100H0z" transform="matrix(.35 0 0 .35 385 385)" style="fill:#000"/><path d="M0 0h100v100H0z" transform="matrix(.35 0 0 .35 420 385)" style="fill:#000"/><path d="M0 0h100v100H0z" transform="matrix(.35 0 0 .35 490 385)" style="fill:#000"/><path d="M0 0h100v100H0z" transform="matrix(.35 0 0 .35 525 385)" style="fill:#000"/><path d="M0 0h100v100H0z" transform="matrix(.35 0 0 .35 560 385)" style="fill:#000"/><path d="M0 0h100v100H0z" transform="matrix(.35 0 0 .35 630 385)" style="fill:#000"/><path d="M0 0h100v100H0z" transform="matrix(.35 0 0 .35 665 385)" style="fill:#000"/><path d="M0 0h100v100H0z" transform="matrix(.35 0 0 .35 700 385)" style="fill:#000"/><path d="M0 0h100v100H0z" transform="matrix(.35 0 0 .35 735 385)" style="fill:#000"/><path d="M0 0h100v100H0z" transform="matrix(.35 0 0 .35 840 385)" style="fill:#000"/><path d="M0 0h100v100H0z" transform="matrix(.35 0 0 .35 875 385)" style="fill:#000"/><path d="M0 0h100v100H0z" transform="matrix(.35 0 0 .35 910 385)" style="fill:#000"/><path d="M0 0h100v100H0z" transform="matrix(.35 0 0 .35 1050 385)" style="fill:#000"/><path d="M0 0h100v100H0z" transform="matrix(.35 0 0 .35 70 420)" style="fill:#000"/><path d="M0 0h100v100H0z" transform="matrix(.35 0 0 .35 105 420)" style="fill:#000"/><path d="M0 0h100v100H0z" transform="matrix(.35 0 0 .35 175 420)" style="fill:#000"/><path d="M0 0h100v100H0z" transform="matrix(.35 0 0 .35 210 420)" style="fill:#000"/><path d="M0 0h100v100H0z" transform="matrix(.35 0 0 .35 280 420)" style="fill:#000"/><path d="M0 0h100v100H0z" transform="matrix(.35 0 0 .35 315 420)" style="fill:#000"/><path d="M0 0h100v100H0z" transform="matrix(.35 0 0 .35 350 420)" style="fill:#000"/><path d="M0 0h100v100H0z" transform="matrix(.35 0 0 .35 385 420)" style="fill:#000"/><path d="M0 0h100v100H0z" transform="matrix(.35 0 0 .35 525 420)" style="fill:#000"/><path d="M0 0h100v100H0z" transform="matrix(.35 0 0 .35 665 420)" style="fill:#000"/><path d="M0 0h100v100H0z" transform="matrix(.35 0 0 .35 770 420)" style="fill:#000"/><path d="M0 0h100v100H0z" transform="matrix(.35 0 0 .35 980 420)" style="fill:#000"/><path d="M0 0h100v100H0z" transform="matrix(.35 0 0 .35 1015 420)" style="fill:#000"/><path d="M0 0h100v100H0z" transform="matrix(.35 0 0 .35 70 455)" style="fill:#000"/><path d="M0 0h100v100H0z" transform="matrix(.35 0 0 .35 140 455)" style="fill:#000"/><path d="M0 0h100v100H0z" transform="matrix(.35 0 0 .35 210 455)" style="fill:#000"/><path d="M0 0h100v100H0z" transform="matrix(.35 0 0 .35 350 455)" style="fill:#000"/><path d="M0 0h100v100H0z" transform="matrix(.35 0 0 .35 420 455)" style="fill:#000"/><path d="M0 0h100v100H0z" transform="matrix(.35 0 0 .35 595 455)" style="fill:#000"/><path d="M0 0h100v100H0z" transform="matrix(.35 0 0 .35 630 455)" style="fill:#000"/><path d="M0 0h100v100H0z" transform="matrix(.35 0 0 .35 735 455)" style="fill:#000"/><path d="M0 0h100v100H0z" transform="matrix(.35 0 0 .35 805 455)" style="fill:#000"/><path d="M0 0h100v100H0z" transform="matrix(.35 0 0 .35 875 455)" style="fill:#000"/><path d="M0 0h100v100H0z" transform="matrix(.35 0 0 .35 1050 455)" style="fill:#000"/><path d="M0 0h100v100H0z" transform="matrix(.35 0 0 .35 140 490)" style="fill:#000"/><path d="M0 0h100v100H0z" transform="matrix(.35 0 0 .35 175 490)" style="fill:#000"/><path d="M0 0h100v100H0z" transform="matrix(.35 0 0 .35 245 490)" style="fill:#000"/><path d="M0 0h100v100H0z" transform="matrix(.35 0 0 .35 280 490)" style="fill:#000"/><path d="M0 0h100v100H0z" transform="matrix(.35 0 0 .35 315 490)" style="fill:#000"/><path d="M0 0h100v100H0z" transform="matrix(.35 0 0 .35 350 490)" style="fill:#000"/><path d="M0 0h100v100H0z" transform="matrix(.35 0 0 .35 385 490)" style="fill:#000"/><path d="M0 0h100v100H0z" transform="matrix(.35 0 0 .35 490 490)" style="fill:#000"/><path d="M0 0h100v100H0z" transform="matrix(.35 0 0 .35 560 490)" style="fill:#000"/><path d="M0 0h100v100H0z" transform="matrix(.35 0 0 .35 595 490)" style="fill:#000"/><path d="M0 0h100v100H0z" transform="matrix(.35 0 0 .35 630 490)" style="fill:#000"/><path d="M0 0h100v100H0z" transform="matrix(.35 0 0 .35 665 490)" style="fill:#000"/><path d="M0 0h100v100H0z" transform="matrix(.35 0 0 .35 770 490)" style="fill:#000"/><path d="M0 0h100v100H0z" transform="matrix(.35 0 0 .35 875 490)" style="fill:#000"/><path d="M0 0h100v100H0z" transform="matrix(.35 0 0 .35 945 490)" style="fill:#000"/><path d="M0 0h100v100H0z" transform="matrix(.35 0 0 .35 980 490)" style="fill:#000"/><path d="M0 0h100v100H0z" transform="matrix(.35 0 0 .35 140 525)" style="fill:#000"/><path d="M0 0h100v100H0z" transform="matrix(.35 0 0 .35 210 525)" style="fill:#000"/><path d="M0 0h100v100H0z" transform="matrix(.35 0 0 .35 315 525)" style="fill:#000"/><path d="M0 0h100v100H0z" transform="matrix(.35 0 0 .35 350 525)" style="fill:#000"/><path d="M0 0h100v100H0z" transform="matrix(.35 0 0 .35 420 525)" style="fill:#000"/><path d="M0 0h100v100H0z" transform="matrix(.35 0 0 .35 455 525)" style="fill:#000"/><path d="M0 0h100v100H0z" transform="matrix(.35 0 0 .35 560 525)" style="fill:#000"/><path d="M0 0h100v100H0z" transform="matrix(.35 0 0 .35 595 525)" style="fill:#000"/><path d="M0 0h100v100H0z" transform="matrix(.35 0 0 .35 630 525)" style="fill:#000"/><path d="M0 0h100v100H0z" transform="matrix(.35 0 0 .35 665 525)" style="fill:#000"/><path d="M0 0h100v100H0z" transform="matrix(.35 0 0 .35 700 525)" style="fill:#000"/><path d="M0 0h100v100H0z" transform="matrix(.35 0 0 .35 735 525)" style="fill:#000"/><path d="M0 0h100v100H0z" transform="matrix(.35 0 0 .35 840 525)" style="fill:#000"/><path d="M0 0h100v100H0z" transform="matrix(.35 0 0 .35 980 525)" style="fill:#000"/><path d="M0 0h100v100H0z" transform="matrix(.35 0 0 .35 1015 525)" style="fill:#000"/><path d="M0 0h100v100H0z" transform="matrix(.35 0 0 .35 1050 525)" style="fill:#000"/><path d="M0 0h100v100H0z" transform="matrix(.35 0 0 .35 70 560)" style="fill:#000"/><path d="M0 0h100v100H0z" transform="matrix(.35 0 0 .35 140 560)" style="fill:#000"/><path d="M0 0h100v100H0z" transform="matrix(.35 0 0 .35 280 560)" style="fill:#000"/><path d="M0 0h100v100H0z" transform="matrix(.35 0 0 .35 315 560)" style="fill:#000"/><path d="M0 0h100v100H0z" transform="matrix(.35 0 0 .35 385 560)" style="fill:#000"/><path d="M0 0h100v100H0z" transform="matrix(.35 0 0 .35 420 560)" style="fill:#000"/><path d="M0 0h100v100H0z" transform="matrix(.35 0 0 .35 490 560)" style="fill:#000"/><path d="M0 0h100v100H0z" transform="matrix(.35 0 0 .35 525 560)" style="fill:#000"/><path d="M0 0h100v100H0z" transform="matrix(.35 0 0 .35 700 560)" style="fill:#000"/><path d="M0 0h100v100H0z" transform="matrix(.35 0 0 .35 735 560)" style="fill:#000"/><path d="M0 0h100v100H0z" transform="matrix(.35 0 0 .35 770 560)" style="fill:#000"/><path d="M0 0h100v100H0z" transform="matrix(.35 0 0 .35 840 560)" style="fill:#000"/><path d="M0 0h100v100H0z" transform="matrix(.35 0 0 .35 910 560)" style="fill:#000"/><path d="M0 0h100v100H0z" transform="matrix(.35 0 0 .35 980 560)" style="fill:#000"/><path d="M0 0h100v100H0z" transform="matrix(.35 0 0 .35 1015 560)" style="fill:#000"/><path d="M0 0h100v100H0z" transform="matrix(.35 0 0 .35 1050 560)" style="fill:#000"/><path d="M0 0h100v100H0z" transform="matrix(.35 0 0 .35 105 595)" style="fill:#000"/><path d="M0 0h100v100H0z" transform="matrix(.35 0 0 .35 210 595)" style="fill:#000"/><path d="M0 0h100v100H0z" transform="matrix(.35 0 0 .35 385 595)" style="fill:#000"/><path d="M0 0h100v100H0z" transform="matrix(.35 0 0 .35 560 595)" style="fill:#000"/><path d="M0 0h100v100H0z" transform="matrix(.35 0 0 .35 595 595)" style="fill:#000"/><path d="M0 0h100v100H0z" transform="matrix(.35 0 0 .35 630 595)" style="fill:#000"/><path d="M0 0h100v100H0z" transform="matrix(.35 0 0 .35 735 595)" style="fill:#000"/><path d="M0 0h100v100H0z" transform="matrix(.35 0 0 .35 770 595)" style="fill:#000"/><path d="M0 0h100v100H0z" transform="matrix(.35 0 0 .35 910 595)" style="fill:#000"/><path d="M0 0h100v100H0z" transform="matrix(.35 0 0 .35 1015 595)" style="fill:#000"/><path d="M0 0h100v100H0z" transform="matrix(.35 0 0 .35 105 630)" style="fill:#000"/><path d="M0 0h100v100H0z" transform="matrix(.35 0 0 .35 175 630)" style="fill:#000"/><path d="M0 0h100v100H0z" transform="matrix(.35 0 0 .35 210 630)" style="fill:#000"/><path d="M0 0h100v100H0z" transform="matrix(.35 0 0 .35 245 630)" style="fill:#000"/><path d="M0 0h100v100H0z" transform="matrix(.35 0 0 .35 280 630)" style="fill:#000"/><path d="M0 0h100v100H0z" transform="matrix(.35 0 0 .35 455 630)" style="fill:#000"/><path d="M0 0h100v100H0z" transform="matrix(.35 0 0 .35 490 630)" style="fill:#000"/><path d="M0 0h100v100H0z" transform="matrix(.35 0 0 .35 560 630)" style="fill:#000"/><path d="M0 0h100v100H0z" transform="matrix(.35 0 0 .35 700 630)" style="fill:#000"/><path d="M0 0h100v100H0z" transform="matrix(.35 0 0 .35 805 630)" style="fill:#000"/><path d="M0 0h100v100H0z" transform="matrix(.35 0 0 .35 910 630)" style="fill:#000"/><path d="M0 0h100v100H0z" transform="matrix(.35 0 0 .35 945 630)" style="fill:#000"/><path d="M0 0h100v100H0z" transform="matrix(.35 0 0 .35 1015 630)" style="fill:#000"/><path d="M0 0h100v100H0z" transform="matrix(.35 0 0 .35 175 665)" style="fill:#000"/><path d="M0 0h100v100H0z" transform="matrix(.35 0 0 .35 210 665)" style="fill:#000"/><path d="M0 0h100v100H0z" transform="matrix(.35 0 0 .35 245 665)" style="fill:#000"/><path d="M0 0h100v100H0z" transform="matrix(.35 0 0 .35 350 665)" style="fill:#000"/><path d="M0 0h100v100H0z" transform="matrix(.35 0 0 .35 490 665)" style="fill:#000"/><path d="M0 0h100v100H0z" transform="matrix(.35 0 0 .35 560 665)" style="fill:#000"/><path d="M0 0h100v100H0z" transform="matrix(.35 0 0 .35 595 665)" style="fill:#000"/><path d="M0 0h100v100H0z" transform="matrix(.35 0 0 .35 770 665)" style="fill:#000"/><path d="M0 0h100v100H0z" transform="matrix(.35 0 0 .35 875 665)" style="fill:#000"/><path d="M0 0h100v100H0z" transform="matrix(.35 0 0 .35 945 665)" style="fill:#000"/><path d="M0 0h100v100H0z" transform="matrix(.35 0 0 .35 980 665)" style="fill:#000"/><path d="M0 0h100v100H0z" transform="matrix(.35 0 0 .35 1015 665)" style="fill:#000"/><path d="M0 0h100v100H0z" transform="matrix(.35 0 0 .35 70 700)" style="fill:#000"/><path d="M0 0h100v100H0z" transform="matrix(.35 0 0 .35 175 700)" style="fill:#000"/><path d="M0 0h100v100H0z" transform="matrix(.35 0 0 .35 210 700)" style="fill:#000"/><path d="M0 0h100v100H0z" transform="matrix(.35 0 0 .35 245 700)" style="fill:#000"/><path d="M0 0h100v100H0z" transform="matrix(.35 0 0 .35 280 700)" style="fill:#000"/><path d="M0 0h100v100H0z" transform="matrix(.35 0 0 .35 315 700)" style="fill:#000"/><path d="M0 0h100v100H0z" transform="matrix(.35 0 0 .35 350 700)" style="fill:#000"/><path d="M0 0h100v100H0z" transform="matrix(.35 0 0 .35 420 700)" style="fill:#000"/><path d="M0 0h100v100H0z" transform="matrix(.35 0 0 .35 455 700)" style="fill:#000"/><path d="M0 0h100v100H0z" transform="matrix(.35 0 0 .35 525 700)" style="fill:#000"/><path d="M0 0h100v100H0z" transform="matrix(.35 0 0 .35 560 700)" style="fill:#000"/><path d="M0 0h100v100H0z" transform="matrix(.35 0 0 .35 595 700)" style="fill:#000"/><path d="M0 0h100v100H0z" transform="matrix(.35 0 0 .35 665 700)" style="fill:#000"/><path d="M0 0h100v100H0z" transform="matrix(.35 0 0 .35 700 700)" style="fill:#000"/><path d="M0 0h100v100H0z" transform="matrix(.35 0 0 .35 770 700)" style="fill:#000"/><path d="M0 0h100v100H0z" transform="matrix(.35 0 0 .35 805 700)" style="fill:#000"/><path d="M0 0h100v100H0z" transform="matrix(.35 0 0 .35 840 700)" style="fill:#000"/><path d="M0 0h100v100H0z" transform="matrix(.35 0 0 .35 875 700)" style="fill:#000"/><path d="M0 0h100v100H0z" transform="matrix(.35 0 0 .35 910 700)" style="fill:#000"/><path d="M0 0h100v100H0z" transform="matrix(.35 0 0 .35 980 700)" style="fill:#000"/><path d="M0 0h100v100H0z" transform="matrix(.35 0 0 .35 140 735)" style="fill:#000"/><path d="M0 0h100v100H0z" transform="matrix(.35 0 0 .35 315 735)" style="fill:#000"/><path d="M0 0h100v100H0z" transform="matrix(.35 0 0 .35 420 735)" style="fill:#000"/><path d="M0 0h100v100H0z" transform="matrix(.35 0 0 .35 455 735)" style="fill:#000"/><path d="M0 0h100v100H0z" transform="matrix(.35 0 0 .35 525 735)" style="fill:#000"/><path d="M0 0h100v100H0z" transform="matrix(.35 0 0 .35 560 735)" style="fill:#000"/><path d="M0 0h100v100H0z" transform="matrix(.35 0 0 .35 665 735)" style="fill:#000"/><path d="M0 0h100v100H0z" transform="matrix(.35 0 0 .35 805 735)" style="fill:#000"/><path d="M0 0h100v100H0z" transform="matrix(.35 0 0 .35 840 735)" style="fill:#000"/><path d="M0 0h100v100H0z" transform="matrix(.35 0 0 .35 910 735)" style="fill:#000"/><path d="M0 0h100v100H0z" transform="matrix(.35 0 0 .35 980 735)" style="fill:#000"/><path d="M0 0h100v100H0z" transform="matrix(.35 0 0 .35 105 770)" style="fill:#000"/><path d="M0 0h100v100H0z" transform="matrix(.35 0 0 .35 175 770)" style="fill:#000"/><path d="M0 0h100v100H0z" transform="matrix(.35 0 0 .35 245 770)" style="fill:#000"/><path d="M0 0h100v100H0z" transform="matrix(.35 0 0 .35 280 770)" style="fill:#000"/><path d="M0 0h100v100H0z" transform="matrix(.35 0 0 .35 385 770)" style="fill:#000"/><path d="M0 0h100v100H0z" transform="matrix(.35 0 0 .35 420 770)" style="fill:#000"/><path d="M0 0h100v100H0z" transform="matrix(.35 0 0 .35 525 770)" style="fill:#000"/><path d="M0 0h100v100H0z" transform="matrix(.35 0 0 .35 560 770)" style="fill:#000"/><path d="M0 0h100v100H0z" transform="matrix(.35 0 0 .35 665 770)" style="fill:#000"/><path d="M0 0h100v100H0z" transform="matrix(.35 0 0 .35 770 770)" style="fill:#000"/><path d="M0 0h100v100H0z" transform="matrix(.35 0 0 .35 805 770)" style="fill:#000"/><path d="M0 0h100v100H0z" transform="matrix(.35 0 0 .35 840 770)" style="fill:#000"/><path d="M0 0h100v100H0z" transform="matrix(.35 0 0 .35 875 770)" style="fill:#000"/><path d="M0 0h100v100H0z" transform="matrix(.35 0 0 .35 910 770)" style="fill:#000"/><path d="M0 0h100v100H0z" transform="matrix(.35 0 0 .35 945 770)" style="fill:#000"/><path d="M0 0h100v100H0z" transform="matrix(.35 0 0 .35 980 770)" style="fill:#000"/><path d="M0 0h100v100H0z" transform="matrix(.35 0 0 .35 350 805)" style="fill:#000"/><path d="M0 0h100v100H0z" transform="matrix(.35 0 0 .35 420 805)" style="fill:#000"/><path d="M0 0h100v100H0z" transform="matrix(.35 0 0 .35 455 805)" style="fill:#000"/><path d="M0 0h100v100H0z" transform="matrix(.35 0 0 .35 490 805)" style="fill:#000"/><path d="M0 0h100v100H0z" transform="matrix(.35 0 0 .35 630 805)" style="fill:#000"/><path d="M0 0h100v100H0z" transform="matrix(.35 0 0 .35 665 805)" style="fill:#000"/><path d="M0 0h100v100H0z" transform="matrix(.35 0 0 .35 700 805)" style="fill:#000"/><path d="M0 0h100v100H0z" transform="matrix(.35 0 0 .35 770 805)" style="fill:#000"/><path d="M0 0h100v100H0z" transform="matrix(.35 0 0 .35 910 805)" style="fill:#000"/><path d="M0 0h100v100H0z" transform="matrix(.35 0 0 .35 945 805)" style="fill:#000"/><path d="M0 0h100v100H0z" transform="matrix(.35 0 0 .35 980 805)" style="fill:#000"/><path d="M0 0h100v100H0z" transform="matrix(.35 0 0 .35 1015 805)" style="fill:#000"/><path d="M0 0h100v100H0z" transform="matrix(.35 0 0 .35 1050 805)" style="fill:#000"/><path d="M0 0h100v100H0z" transform="matrix(.35 0 0 .35 350 840)" style="fill:#000"/><path d="M0 0h100v100H0z" transform="matrix(.35 0 0 .35 455 840)" style="fill:#000"/><path d="M0 0h100v100H0z" transform="matrix(.35 0 0 .35 560 840)" style="fill:#000"/><path d="M0 0h100v100H0z" transform="matrix(.35 0 0 .35 630 840)" style="fill:#000"/><path d="M0 0h100v100H0z" transform="matrix(.35 0 0 .35 700 840)" style="fill:#000"/><path d="M0 0h100v100H0z" transform="matrix(.35 0 0 .35 735 840)" style="fill:#000"/><path d="M0 0h100v100H0z" transform="matrix(.35 0 0 .35 770 840)" style="fill:#000"/><path d="M0 0h100v100H0z" transform="matrix(.35 0 0 .35 840 840)" style="fill:#000"/><path d="M0 0h100v100H0z" transform="matrix(.35 0 0 .35 910 840)" style="fill:#000"/><path d="M0 0h100v100H0z" transform="matrix(.35 0 0 .35 945 840)" style="fill:#000"/><path d="M0 0h100v100H0z" transform="matrix(.35 0 0 .35 1015 840)" style="fill:#000"/><path d="M0 0h100v100H0z" transform="matrix(.35 0 0 .35 350 875)" style="fill:#000"/><path d="M0 0h100v100H0z" transform="matrix(.35 0 0 .35 385 875)" style="fill:#000"/><path d="M0 0h100v100H0z" transform="matrix(.35 0 0 .35 420 875)" style="fill:#000"/><path d="M0 0h100v100H0z" transform="matrix(.35 0 0 .35 455 875)" style="fill:#000"/><path d="M0 0h100v100H0z" transform="matrix(.35 0 0 .35 490 875)" style="fill:#000"/><path d="M0 0h100v100H0z" transform="matrix(.35 0 0 .35 525 875)" style="fill:#000"/><path d="M0 0h100v100H0z" transform="matrix(.35 0 0 .35 560 875)" style="fill:#000"/><path d="M0 0h100v100H0z" transform="matrix(.35 0 0 .35 595 875)" style="fill:#000"/><path d="M0 0h100v100H0z" transform="matrix(.35 0 0 .35 735 875)" style="fill:#000"/><path d="M0 0h100v100H0z" transform="matrix(.35 0 0 .35 770 875)" style="fill:#000"/><path d="M0 0h100v100H0z" transform="matrix(.35 0 0 .35 910 875)" style="fill:#000"/><path d="M0 0h100v100H0z" transform="matrix(.35 0 0 .35 945 875)" style="fill:#000"/><path d="M0 0h100v100H0z" transform="matrix(.35 0 0 .35 1050 875)" style="fill:#000"/><path d="M0 0h100v100H0z" transform="matrix(.35 0 0 .35 420 910)" style="fill:#000"/><path d="M0 0h100v100H0z" transform="matrix(.35 0 0 .35 455 910)" style="fill:#000"/><path d="M0 0h100v100H0z" transform="matrix(.35 0 0 .35 665 910)" style="fill:#000"/><path d="M0 0h100v100H0z" transform="matrix(.35 0 0 .35 770 910)" style="fill:#000"/><path d="M0 0h100v100H0z" transform="matrix(.35 0 0 .35 805 910)" style="fill:#000"/><path d="M0 0h100v100H0z" transform="matrix(.35 0 0 .35 840 910)" style="fill:#000"/><path d="M0 0h100v100H0z" transform="matrix(.35 0 0 .35 875 910)" style="fill:#000"/><path d="M0 0h100v100H0z" transform="matrix(.35 0 0 .35 910 910)" style="fill:#000"/><path d="M0 0h100v100H0z" transform="matrix(.35 0 0 .35 980 910)" style="fill:#000"/><path d="M0 0h100v100H0z" transform="matrix(.35 0 0 .35 350 945)" style="fill:#000"/><path d="M0 0h100v100H0z" transform="matrix(.35 0 0 .35 420 945)" style="fill:#000"/><path d="M0 0h100v100H0z" transform="matrix(.35 0 0 .35 490 945)" style="fill:#000"/><path d="M0 0h100v100H0z" transform="matrix(.35 0 0 .35 595 945)" style="fill:#000"/><path d="M0 0h100v100H0z" transform="matrix(.35 0 0 .35 805 945)" style="fill:#000"/><path d="M0 0h100v100H0z" transform="matrix(.35 0 0 .35 875 945)" style="fill:#000"/><path d="M0 0h100v100H0z" transform="matrix(.35 0 0 .35 910 945)" style="fill:#000"/><path d="M0 0h100v100H0z" transform="matrix(.35 0 0 .35 945 945)" style="fill:#000"/><path d="M0 0h100v100H0z" transform="matrix(.35 0 0 .35 1050 945)" style="fill:#000"/><path d="M0 0h100v100H0z" transform="matrix(.35 0 0 .35 350 980)" style="fill:#000"/><path d="M0 0h100v100H0z" transform="matrix(.35 0 0 .35 385 980)" style="fill:#000"/><path d="M0 0h100v100H0z" transform="matrix(.35 0 0 .35 420 980)" style="fill:#000"/><path d="M0 0h100v100H0z" transform="matrix(.35 0 0 .35 525 980)" style="fill:#000"/><path d="M0 0h100v100H0z" transform="matrix(.35 0 0 .35 560 980)" style="fill:#000"/><path d="M0 0h100v100H0z" transform="matrix(.35 0 0 .35 980 980)" style="fill:#000"/><path d="M0 0h100v100H0z" transform="matrix(.35 0 0 .35 1050 980)" style="fill:#000"/><path d="M0 0h100v100H0z" transform="matrix(.35 0 0 .35 560 1015)" style="fill:#000"/><path d="M0 0h100v100H0z" transform="matrix(.35 0 0 .35 630 1015)" style="fill:#000"/><path d="M0 0h100v100H0z" transform="matrix(.35 0 0 .35 735 1015)" style="fill:#000"/><path d="M0 0h100v100H0z" transform="matrix(.35 0 0 .35 770 1015)" style="fill:#000"/><path d="M0 0h100v100H0z" transform="matrix(.35 0 0 .35 840 1015)" style="fill:#000"/><path d="M0 0h100v100H0z" transform="matrix(.35 0 0 .35 910 1015)" style="fill:#000"/><path d="M0 0h100v100H0z" transform="matrix(.35 0 0 .35 945 1015)" style="fill:#000"/><path d="M0 0h100v100H0z" transform="matrix(.35 0 0 .35 1015 1015)" style="fill:#000"/><path d="M0 0h100v100H0z" transform="matrix(.35 0 0 .35 350 1050)" style="fill:#000"/><path d="M0 0h100v100H0z" transform="matrix(.35 0 0 .35 385 1050)" style="fill:#000"/><path d="M0 0h100v100H0z" transform="matrix(.35 0 0 .35 595 1050)" style="fill:#000"/><path d="M0 0h100v100H0z" transform="matrix(.35 0 0 .35 700 1050)" style="fill:#000"/><path d="M0 0h100v100H0z" transform="matrix(.35 0 0 .35 735 1050)" style="fill:#000"/><path d="M0 0h100v100H0z" transform="matrix(.35 0 0 .35 770 1050)" style="fill:#000"/><path d="M0 0h100v100H0z" transform="matrix(.35 0 0 .35 805 1050)" style="fill:#000"/><path d="M0 0h100v100H0z" transform="matrix(.35 0 0 .35 840 1050)" style="fill:#000"/><path d="M0 0h100v100H0z" transform="matrix(.35 0 0 .35 1015 1050)" style="fill:#000"/><g style="fill:#000"><path style="fill:none" d="M15 15h70v70H15z" transform="matrix(2.45 0 0 2.45 70 70)"/><path d="M278.25 70H70v245h245V70h-36.75zm0 208.25h-171.5v-171.5h171.5v171.5z"/></g><g style="fill:#000"><path style="fill:none" d="M15 15h70v70H15z" transform="matrix(2.45 0 0 2.45 840 70)"/><path d="M1048.25 70H840v245h245V70h-36.75zm0 208.25h-171.5v-171.5h171.5v171.5z"/></g><g style="fill:#000"><path style="fill:none" d="M15 15h70v70H15z" transform="matrix(2.45 0 0 2.45 70 840)"/><path d="M278.25 840H70v245h245V840h-36.75zm0 208.25h-171.5v-171.5h171.5v171.5z"/></g><path d="M0 0h100v100H0z" transform="matrix(1.05 0 0 1.05 140 140)" style="fill:#000"/><path d="M0 0h100v100H0z" transform="matrix(1.05 0 0 1.05 910 140)" style="fill:#000"/><path d="M0 0h100v100H0z" transform="matrix(1.05 0 0 1.05 140 910)" style="fill:#000"/></svg>