<svg width="147" height="67" viewBox="0 0 147 67" fill="none" xmlns="http://www.w3.org/2000/svg">
<path d="M146.391 66.9747V0.444824H104.524L90.5057 22.8503V66.9747H101.284V10.4243H135.613V66.9747H146.391Z" fill="#2C2E32"/>
<path d="M97.4077 0.444824H83.7897L41.3477 66.9741H55.0965L97.4077 0.444824Z" fill="#7927E0"/>
<g clip-path="url(#clip0_547_19)">
<path d="M40.6569 31.7198C46.0944 29.3224 49.4047 24.5274 49.4047 17.8744C49.3688 7.49339 41.5412 0.444824 30.009 0.444824H0.0250854V66.9747H31.0965C32.1481 66.9747 33.1639 66.9028 34.1558 66.8069L50.5878 40.7463C49.7025 38.5978 48.3522 36.6734 46.6348 35.1123C44.9173 33.5513 42.8755 32.3925 40.6569 31.7198ZM10.1113 9.759H29.7341C35.5779 9.759 39.1511 13.6189 39.1511 18.8095C39.1511 24 35.566 27.8599 29.7341 27.8599H10.1113V9.759ZM30.7977 57.7084H10.1113V36.8984H30.7977C36.9044 36.8984 41.6727 40.7583 41.6727 47.2794C41.6727 53.8006 36.9044 57.6605 30.7977 57.6605V57.7084Z" fill="#2C2E32"/>
</g>
<defs>
<clipPath id="clip0_547_19">
<rect width="50.5627" height="66.5299" fill="white" transform="translate(0.0250854 0.444824)"/>
</clipPath>
</defs>
</svg>
