<svg width="1500" height="1559" viewBox="0 0 1500 1559" fill="none" xmlns="http://www.w3.org/2000/svg">
<g clip-path="url(#clip0_615_301)">
<rect width="1500" height="1559" fill="white"/>
<path d="M955.786 761.478L943.439 745.039H937.339V761.478H931.314V724.287H937.339V739.535H943.364L955.786 724.287H962.703L948.199 741.915L963.001 761.478H955.786Z" fill="#3E3E3F"/>
<path d="M888.312 724.287H894.337V752.701L913.9 724.287H919.999V761.478H913.974V733.064L894.412 761.478H888.312V724.287Z" fill="#3E3E3F"/>
<path d="M849.643 724.287H881.18V729.791H868.387V761.478H862.436V729.791H849.643V724.287Z" fill="#3E3E3F"/>
<path d="M839.417 761.478L827.069 745.039H820.97V761.478H814.945V724.287H820.97V739.535H826.995L839.417 724.287H846.334L831.83 741.915L846.632 761.478H839.417Z" fill="#3E3E3F"/>
<path d="M784.546 756.792C792.133 756.792 797.637 750.99 797.637 742.883C797.637 734.775 792.133 728.973 784.546 728.973C776.959 728.973 771.455 734.775 771.455 742.883C771.455 750.99 776.959 756.792 784.546 756.792ZM783.728 762.519C773.314 762.519 765.355 754.189 765.355 742.883C765.355 731.577 773.314 723.246 783.728 723.246C789.752 723.246 794.662 725.998 797.637 730.61V724.287H803.662V761.478H797.637V755.156C794.662 759.767 789.752 762.519 783.728 762.519Z" fill="#3E3E3F"/>
<path d="M739.198 756.866C746.859 756.866 752.14 750.916 752.14 742.883C752.14 734.85 746.859 728.899 739.198 728.899C731.536 728.899 726.255 734.85 726.255 742.883C726.255 750.916 731.536 756.866 739.198 756.866ZM740.016 762.519C734.065 762.519 729.231 759.767 726.255 755.156V776.354H720.23V724.287H726.255V730.61C729.231 725.998 734.065 723.246 740.016 723.246C750.355 723.246 758.239 731.577 758.239 742.883C758.239 754.189 750.355 762.519 740.016 762.519Z" fill="#3E3E3F"/>
<path d="M708.83 761.478V724.287H685.426L677.59 736.812V761.478H683.615V729.866H702.805V761.478H708.83Z" fill="#3E3E3F"/>
<path d="M578.866 739.238H602.891C602.593 733.213 597.833 728.825 591.287 728.825C584.816 728.825 580.205 732.99 578.866 739.238ZM591.659 762.519C580.205 762.519 572.395 754.337 572.395 743.031C572.395 731.577 580.428 723.246 591.436 723.246C601.849 723.246 609.064 730.61 609.064 741.246C609.064 742.362 608.99 743.478 608.841 744.593H578.568C579.238 752.032 584.295 756.866 591.734 756.866C596.42 756.866 600.064 754.932 602.742 750.767L607.502 754.337C603.783 759.693 598.428 762.519 591.659 762.519Z" fill="#3E3E3F"/>
<path d="M542.653 744.668V756.271H554.256C557.678 756.271 560.356 754.188 560.356 750.469C560.356 746.825 557.678 744.668 554.256 744.668H542.653ZM542.653 729.494V739.61H553.661C556.934 739.61 558.942 737.527 558.942 734.552C558.942 731.651 556.934 729.494 553.661 729.494H542.653ZM554.405 761.478H537V724.287H553.81C560.281 724.287 564.67 728.229 564.67 734.031C564.67 737.75 562.81 740.428 559.761 741.767C563.703 743.031 566.157 746.378 566.157 751.064C566.157 757.387 561.546 761.478 554.405 761.478Z" fill="#3E3E3F"/>
<path d="M680.708 723.955H673.076L649.287 761.481H656.993L680.708 723.955Z" fill="#7927E0"/>
<path d="M655.199 743.515C655.199 732.432 647.982 724.692 637.495 724.692C631.096 724.692 626.103 727.594 623.215 732.874C623.657 720.812 628.274 715.84 639.726 714.875L652.003 713.803L651.627 708L639.204 709.112C623.731 710.526 617.412 718.634 617.412 736.935V739.314C617.412 753.667 624.703 762.519 636.604 762.519C639.408 762.548 642.188 761.991 644.766 760.884L655.179 744.46C655.192 744.138 655.199 743.81 655.199 743.515ZM636.604 756.917C629.233 756.917 624.033 751.409 624.033 743.515C624.033 735.621 629.239 730.113 636.604 730.113C643.968 730.113 649.175 735.615 649.175 743.515C649.175 751.416 643.968 756.917 636.604 756.917Z" fill="#3E3E3F"/>
<path d="M575.59 893.621L575.59 880.261L509.59 838.621L509.59 852.11L575.59 893.621Z" fill="#7927E0"/>
<path d="M581.59 1325.62L581.59 1312.26L515.59 1270.62L515.59 1284.11L581.59 1325.62Z" fill="#7927E0"/>
<path d="M613.59 281.621L613.59 268.261L547.59 226.621L547.59 240.11L613.59 281.621Z" fill="#7927E0"/>
<path d="M586.912 1583.73L586.912 1570.37L520.912 1528.73L520.912 1542.22L586.912 1583.73Z" fill="#7927E0"/>
<path d="M698.59 942.621L698.59 929.018L633.59 886.621L633.59 900.355L698.59 942.621Z" fill="#7927E0"/>
<path d="M704.59 1374.62L704.59 1361.02L639.59 1318.62L639.59 1332.36L704.59 1374.62Z" fill="#7927E0"/>
<path d="M736.59 330.621L736.59 317.018L671.59 274.621L671.59 288.355L736.59 330.621Z" fill="#7927E0"/>
<path d="M948.59 621.621L948.59 608.261L882.59 566.621L882.59 580.11L948.59 621.621Z" fill="#7927E0"/>
<path d="M954.59 1053.62L954.59 1040.26L888.59 998.621L888.59 1012.11L954.59 1053.62Z" fill="#7927E0"/>
<path d="M986.59 9.6211L986.59 -3.73945L920.59 -45.3789L920.59 -31.8901L986.59 9.6211Z" fill="#7927E0"/>
<path d="M1150.59 834.621L1150.59 821.261L1085.59 779.621L1085.59 793.11L1150.59 834.621Z" fill="#7927E0"/>
<path d="M1156.59 1266.62L1156.59 1253.26L1091.59 1211.62L1091.59 1225.11L1156.59 1266.62Z" fill="#7927E0"/>
<path d="M1188.59 222.621L1188.59 209.261L1123.59 167.621L1123.59 181.11L1188.59 222.621Z" fill="#7927E0"/>
<path d="M1161.91 1524.73L1161.91 1511.37L1096.91 1469.73L1096.91 1483.22L1161.91 1524.73Z" fill="#7927E0"/>
<path d="M1193.91 480.73L1193.91 467.37L1128.91 425.73L1128.91 439.219L1193.91 480.73Z" fill="#7927E0"/>
<path d="M1223.59 754.621L1223.59 741.261L1158.59 699.621L1158.59 713.11L1223.59 754.621Z" fill="#7927E0"/>
<path d="M1229.59 1186.62L1229.59 1173.26L1164.59 1131.62L1164.59 1145.11L1229.59 1186.62Z" fill="#7927E0"/>
<path d="M1261.59 142.621L1261.59 129.261L1196.59 87.6211L1196.59 101.11L1261.59 142.621Z" fill="#7927E0"/>
<path d="M392.474 822.326L403.718 814.936L402.81 737.198L391.458 744.659L392.474 822.326Z" fill="#7927E0"/>
<path d="M398.474 1254.33L409.718 1246.94L408.81 1169.2L397.458 1176.66L398.474 1254.33Z" fill="#7927E0"/>
<path d="M430.474 210.326L441.718 202.936L440.81 125.198L429.458 132.659L430.474 210.326Z" fill="#7927E0"/>
<path d="M403.796 1512.44L415.041 1505.05L414.133 1427.31L402.78 1434.77L403.796 1512.44Z" fill="#7927E0"/>
<path d="M435.796 468.436L447.041 461.046L446.133 383.307L434.78 390.768L435.796 468.436Z" fill="#7927E0"/>
<path d="M1024.17 960.287L1035.41 952.897L1034.5 875.159L1023.15 882.62L1024.17 960.287Z" fill="#7927E0"/>
<path d="M1030.17 1392.29L1041.41 1384.9L1040.5 1307.16L1029.15 1314.62L1030.17 1392.29Z" fill="#7927E0"/>
<path d="M1062.17 348.287L1073.41 340.897L1072.5 263.159L1061.15 270.62L1062.17 348.287Z" fill="#7927E0"/>
<path d="M1144.46 960.287L1155.71 952.897L1154.8 875.159L1143.45 882.62L1144.46 960.287Z" fill="#7927E0"/>
<path d="M1150.46 1392.29L1161.71 1384.9L1160.8 1307.16L1149.45 1314.62L1150.46 1392.29Z" fill="#7927E0"/>
<path d="M1247.95 1596.13L1259.2 1588.74L1258.29 1511L1246.94 1518.46L1247.95 1596.13Z" fill="#7927E0"/>
<path d="M1182.46 348.287L1193.71 340.897L1192.8 263.159L1181.45 270.62L1182.46 348.287Z" fill="#7927E0"/>
<path d="M568.573 599.395L557.781 591.358L485.046 618.81L495.942 626.925L568.573 599.395Z" fill="#7927E0"/>
<path d="M574.573 1031.39L563.781 1023.36L491.046 1050.81L501.942 1058.92L574.573 1031.39Z" fill="#7927E0"/>
<path d="M606.573 -12.6051L595.781 -20.6424L523.046 6.81043L533.942 14.9249L606.573 -12.6051Z" fill="#7927E0"/>
<path d="M1133.68 587.086L1122.89 579.049L1050.15 606.502L1061.05 614.616L1133.68 587.086Z" fill="#7927E0"/>
<path d="M777.526 611.086L766.735 603.049L694 630.502L704.895 638.616L777.526 611.086Z" fill="#7927E0"/>
<path d="M1139.68 1019.09L1128.89 1011.05L1056.15 1038.5L1067.05 1046.62L1139.68 1019.09Z" fill="#7927E0"/>
<path d="M1171.68 -24.9137L1160.89 -32.951L1088.15 -5.49817L1099.05 2.6163L1171.68 -24.9137Z" fill="#7927E0"/>
<path d="M870.71 926.709L859.918 918.672L787.183 946.125L798.078 954.239L870.71 926.709Z" fill="#7927E0"/>
<path d="M876.71 1358.71L865.918 1350.67L793.183 1378.12L804.078 1386.24L876.71 1358.71Z" fill="#7927E0"/>
<path d="M908.71 314.709L897.918 306.672L825.183 334.125L836.078 342.239L908.71 314.709Z" fill="#7927E0"/>
<path d="M452.985 703.285L457.199 690.506L408.162 630.178L403.908 643.08L452.985 703.285Z" fill="#7927E0"/>
<path d="M458.985 1135.28L463.199 1122.51L414.162 1062.18L409.908 1075.08L458.985 1135.28Z" fill="#7927E0"/>
<path d="M490.985 91.285L495.199 78.5062L446.162 18.1782L441.908 31.0797L490.985 91.285Z" fill="#7927E0"/>
<path d="M814.823 893.435L819.037 880.657L770 820.329L765.746 833.23L814.823 893.435Z" fill="#7927E0"/>
<path d="M726.17 1330.11L730.384 1317.33L681.348 1257L677.093 1269.9L726.17 1330.11Z" fill="#7927E0"/>
<path d="M758.17 286.107L762.384 273.328L713.348 213L709.093 225.902L758.17 286.107Z" fill="#7927E0"/>
<path d="M731.492 1588.22L735.706 1575.44L686.67 1515.11L682.415 1528.01L731.492 1588.22Z" fill="#7927E0"/>
<path d="M763.492 544.217L767.706 531.438L718.67 471.11L714.415 484.011L763.492 544.217Z" fill="#7927E0"/>
<path d="M663.17 1117.11L667.384 1104.33L618.348 1044L614.093 1056.9L663.17 1117.11Z" fill="#7927E0"/>
<path d="M695.17 73.1073L699.384 60.3284L650.348 0.000453834L646.093 12.902L695.17 73.1073Z" fill="#7927E0"/>
<path d="M1033.03 768.664L1037.25 755.885L988.211 695.557L983.956 708.459L1033.03 768.664Z" fill="#7927E0"/>
<path d="M1039.03 1200.66L1043.25 1187.89L994.211 1127.56L989.956 1140.46L1039.03 1200.66Z" fill="#7927E0"/>
<path d="M1071.03 156.664L1075.25 143.885L1026.21 83.5571L1021.96 96.4586L1071.03 156.664Z" fill="#7927E0"/>
<path d="M339.17 960.015L343.384 947.237L294.348 886.909L290.093 899.81L339.17 960.015Z" fill="#7927E0"/>
<path d="M345.17 1392.02L349.384 1379.24L300.348 1318.91L296.093 1331.81L345.17 1392.02Z" fill="#7927E0"/>
<path d="M377.17 348.015L381.384 335.237L332.348 274.909L328.093 287.81L377.17 348.015Z" fill="#7927E0"/>
<path d="M591.17 533.107L595.384 520.328L546.348 460L542.093 472.902L591.17 533.107Z" fill="#7927E0"/>
<path d="M758.651 1065.26L762.865 1052.48L713.828 992.153L709.574 1005.05L758.651 1065.26Z" fill="#7927E0"/>
<path d="M790.651 21.2596L794.865 8.48078L745.828 -51.8472L741.574 -38.9457L790.651 21.2596Z" fill="#7927E0"/>
<path d="M467.858 960.015L472.072 947.237L423.035 886.909L418.781 899.81L467.858 960.015Z" fill="#7927E0"/>
<path d="M473.858 1392.02L478.072 1379.24L429.035 1318.91L424.781 1331.81L473.858 1392.02Z" fill="#7927E0"/>
<path d="M505.858 348.015L510.072 335.237L461.035 274.909L456.781 287.81L505.858 348.015Z" fill="#7927E0"/>
<path d="M970.86 900.707L975.074 887.928L926.037 827.6L921.783 840.502L970.86 900.707Z" fill="#7927E0"/>
<path d="M976.86 1332.71L981.074 1319.93L932.037 1259.6L927.783 1272.5L976.86 1332.71Z" fill="#7927E0"/>
<path d="M1008.86 288.707L1013.07 275.928L964.037 215.6L959.783 228.502L1008.86 288.707Z" fill="#7927E0"/>
<path d="M982.182 1590.82L986.396 1578.04L937.359 1517.71L933.105 1530.61L982.182 1590.82Z" fill="#7927E0"/>
<path d="M1014.18 546.816L1018.4 534.037L969.359 473.709L965.105 486.611L1014.18 546.816Z" fill="#7927E0"/>
<path d="M4 627.621L4 614.261L-61 572.621L-61 586.11L4 627.621Z" fill="#7927E0"/>
<path d="M10 1059.62L10 1046.26L-55 1004.62L-55 1018.11L10 1059.62Z" fill="#7927E0"/>
<path d="M42 15.6211L42 2.26055L-23 -39.3789L-23 -25.8901L42 15.6211Z" fill="#7927E0"/>
<path d="M207 840.621L207 827.261L142 785.621L142 799.11L207 840.621Z" fill="#7927E0"/>
<path d="M213 1272.62L213 1259.26L148 1217.62L148 1231.11L213 1272.62Z" fill="#7927E0"/>
<path d="M245 228.621L245 215.261L180 173.621L180 187.11L245 228.621Z" fill="#7927E0"/>
<path d="M218.322 1530.73L218.322 1517.37L153.322 1475.73L153.322 1489.22L218.322 1530.73Z" fill="#7927E0"/>
<path d="M250.322 486.73L250.322 473.37L185.322 431.73L185.322 445.219L250.322 486.73Z" fill="#7927E0"/>
<path d="M280 760.621L280 747.261L214 705.621L214 719.11L280 760.621Z" fill="#7927E0"/>
<path d="M286 1192.62L286 1179.26L220 1137.62L220 1151.11L286 1192.62Z" fill="#7927E0"/>
<path d="M318 148.621L318 135.261L252 93.6211L252 107.11L318 148.621Z" fill="#7927E0"/>
<path d="M80.1534 966.287L91.3981 958.897L90.4901 881.159L79.1375 888.62L80.1534 966.287Z" fill="#7927E0"/>
<path d="M86.1534 1398.29L97.3981 1390.9L96.4901 1313.16L85.1375 1320.62L86.1534 1398.29Z" fill="#7927E0"/>
<path d="M51.9523 1527.13L63.197 1519.74L62.289 1442L50.9363 1449.46L51.9523 1527.13Z" fill="#7927E0"/>
<path d="M118.153 354.287L129.398 346.897L128.49 269.159L117.137 276.62L118.153 354.287Z" fill="#7927E0"/>
<path d="M200.448 966.287L211.693 958.897L210.785 881.159L199.432 888.62L200.448 966.287Z" fill="#7927E0"/>
<path d="M206.448 1398.29L217.693 1390.9L216.785 1313.16L205.432 1320.62L206.448 1398.29Z" fill="#7927E0"/>
<path d="M314.952 1577.13L326.197 1569.74L325.289 1492L313.936 1499.46L314.952 1577.13Z" fill="#7927E0"/>
<path d="M238.448 354.287L249.693 346.897L248.785 269.159L237.432 276.62L238.448 354.287Z" fill="#7927E0"/>
<path d="M282.698 657.436L293.943 650.046L293.035 572.307L281.682 579.768L282.698 657.436Z" fill="#7927E0"/>
<path d="M346.952 565.129L358.197 557.739L357.289 480.001L345.936 487.462L346.952 565.129Z" fill="#7927E0"/>
<path d="M288.698 1089.44L299.943 1082.05L299.035 1004.31L287.682 1011.77L288.698 1089.44Z" fill="#7927E0"/>
<path d="M320.698 45.4356L331.943 38.0456L331.035 -39.6926L319.682 -32.2316L320.698 45.4356Z" fill="#7927E0"/>
<path d="M189.669 593.086L178.877 585.049L106.142 612.502L117.037 620.616L189.669 593.086Z" fill="#7927E0"/>
<path d="M195.669 1025.09L184.877 1017.05L112.142 1044.5L123.037 1052.62L195.669 1025.09Z" fill="#7927E0"/>
<path d="M251.526 15.0863L240.735 7.04903L168 34.5018L178.895 42.6163L251.526 15.0863Z" fill="#7927E0"/>
<path d="M68.3186 779.14L72.5326 766.362L23.4961 706.034L19.2416 718.935L68.3186 779.14Z" fill="#7927E0"/>
<path d="M74.3186 1211.14L78.5326 1198.36L29.4961 1138.03L25.2416 1150.94L74.3186 1211.14Z" fill="#7927E0"/>
<path d="M106.319 167.14L110.533 154.362L61.4961 94.0337L57.2416 106.935L106.319 167.14Z" fill="#7927E0"/>
<path d="M26.8479 906.707L31.0619 893.928L-17.9746 833.6L-22.2291 846.502L26.8479 906.707Z" fill="#7927E0"/>
<path d="M32.8479 1338.71L37.0619 1325.93L-11.9746 1265.6L-16.2291 1278.5L32.8479 1338.71Z" fill="#7927E0"/>
<path d="M64.8479 294.707L69.0619 281.928L20.0254 221.6L15.7709 234.502L64.8479 294.707Z" fill="#7927E0"/>
<path d="M38.1702 1596.82L42.3842 1584.04L-6.65234 1523.71L-10.9068 1536.61L38.1702 1596.82Z" fill="#7927E0"/>
<path d="M1496.83 898.314L1496.83 884.954L1431.83 843.314L1431.83 856.803L1496.83 898.314Z" fill="#7927E0"/>
<path d="M1502.83 1330.31L1502.83 1316.95L1437.83 1275.31L1437.83 1288.8L1502.83 1330.31Z" fill="#7927E0"/>
<path d="M1534.83 286.314L1534.83 272.954L1469.83 231.314L1469.83 244.803L1534.83 286.314Z" fill="#7927E0"/>
<path d="M1508.15 1588.42L1508.15 1575.06L1443.15 1533.42L1443.15 1546.91L1508.15 1588.42Z" fill="#7927E0"/>
<path d="M1332.14 813.02L1343.38 805.63L1342.48 727.891L1331.12 735.352L1332.14 813.02Z" fill="#7927E0"/>
<path d="M1334.95 573.129L1346.2 565.739L1345.29 488.001L1333.94 495.462L1334.95 573.129Z" fill="#7927E0"/>
<path d="M1338.14 1245.02L1349.38 1237.63L1348.48 1159.89L1337.12 1167.35L1338.14 1245.02Z" fill="#7927E0"/>
<path d="M1370.14 201.02L1381.38 193.63L1380.48 115.891L1369.12 123.352L1370.14 201.02Z" fill="#7927E0"/>
<path d="M1343.46 1503.13L1354.71 1495.74L1353.8 1418L1342.45 1425.46L1343.46 1503.13Z" fill="#7927E0"/>
<path d="M1375.46 459.129L1386.71 451.739L1385.8 374.001L1374.45 381.462L1375.46 459.129Z" fill="#7927E0"/>
<path d="M1226.95 642.129L1238.2 634.739L1237.29 557.001L1225.94 564.462L1226.95 642.129Z" fill="#7927E0"/>
<path d="M1232.95 1074.13L1244.2 1066.74L1243.29 989.001L1231.94 996.462L1232.95 1074.13Z" fill="#7927E0"/>
<path d="M1264.95 30.129L1276.2 22.7389L1275.29 -54.9992L1263.94 -47.5382L1264.95 30.129Z" fill="#7927E0"/>
<path d="M1508.24 590.088L1497.45 582.051L1424.71 609.504L1435.61 617.618L1508.24 590.088Z" fill="#7927E0"/>
<path d="M1514.24 1022.09L1503.45 1014.05L1430.71 1041.5L1441.61 1049.62L1514.24 1022.09Z" fill="#7927E0"/>
<path d="M1546.24 -21.9117L1535.45 -29.949L1462.71 -2.49621L1473.61 5.61826L1546.24 -21.9117Z" fill="#7927E0"/>
<path d="M1428.29 700.607L1432.51 687.828L1383.47 627.5L1379.22 640.402L1428.29 700.607Z" fill="#7927E0"/>
<path d="M1434.29 1132.61L1438.51 1119.83L1389.47 1059.5L1385.22 1072.4L1434.29 1132.61Z" fill="#7927E0"/>
<path d="M1466.29 88.6073L1470.51 75.8284L1421.47 15.5005L1417.22 28.402L1466.29 88.6073Z" fill="#7927E0"/>
<path d="M1278.84 950.709L1283.05 937.93L1234.01 877.602L1229.76 890.504L1278.84 950.709Z" fill="#7927E0"/>
<path d="M1522.17 499.107L1526.38 486.328L1477.35 426L1473.09 438.902L1522.17 499.107Z" fill="#7927E0"/>
<path d="M1284.84 1382.71L1289.05 1369.93L1240.01 1309.6L1235.76 1322.5L1284.84 1382.71Z" fill="#7927E0"/>
<path d="M1316.84 338.709L1321.05 325.93L1272.01 265.602L1267.76 278.504L1316.84 338.709Z" fill="#7927E0"/>
<path d="M1407.52 950.709L1411.74 937.93L1362.7 877.602L1358.45 890.504L1407.52 950.709Z" fill="#7927E0"/>
<path d="M91.1702 536.107L95.3842 523.328L46.3477 463L42.0932 475.902L91.1702 536.107Z" fill="#7927E0"/>
<path d="M1413.52 1382.71L1417.74 1369.93L1368.7 1309.6L1364.45 1322.5L1413.52 1382.71Z" fill="#7927E0"/>
<path d="M1445.52 338.709L1449.74 325.93L1400.7 265.602L1396.45 278.504L1445.52 338.709Z" fill="#7927E0"/>
<path d="M627 1232L627 1218.64L562 1177L562 1190.49L627 1232Z" fill="#7927E0"/>
<path d="M659 188L659 174.639L594 133L594 146.489L659 188Z" fill="#7927E0"/>
<path d="M632.322 1490.11L632.322 1476.75L567.322 1435.11L567.322 1448.6L632.322 1490.11Z" fill="#7927E0"/>
<path d="M1000 1492L1000 1478.64L935 1437L935 1450.49L1000 1492Z" fill="#7927E0"/>
<path d="M664.322 446.109L664.322 432.749L599.322 391.109L599.322 404.598L664.322 446.109Z" fill="#7927E0"/>
<path d="M878.526 1239.09L867.735 1231.05L795 1258.5L805.895 1266.62L878.526 1239.09Z" fill="#7927E0"/>
<path d="M910.526 195.086L899.735 187.049L827 214.502L837.895 222.616L910.526 195.086Z" fill="#7927E0"/>
<path d="M883.848 1497.2L873.057 1489.16L800.322 1516.61L811.217 1524.73L883.848 1497.2Z" fill="#7927E0"/>
<path d="M915.848 453.196L905.057 445.158L832.322 472.611L843.217 480.726L915.848 453.196Z" fill="#7927E0"/>
<path d="M827.17 1197.11L831.384 1184.33L782.348 1124L778.093 1136.9L827.17 1197.11Z" fill="#7927E0"/>
<path d="M859.17 153.107L863.384 140.328L814.348 80.0005L810.093 92.902L859.17 153.107Z" fill="#7927E0"/>
<path d="M930.272 1169.11L934.486 1156.33L885.449 1096L881.195 1108.9L930.272 1169.11Z" fill="#7927E0"/>
<path d="M962.272 125.107L966.486 112.328L917.449 52.0005L913.195 64.902L962.272 125.107Z" fill="#7927E0"/>
<path d="M1114.17 104.107L1118.38 91.3284L1069.35 31.0005L1065.09 43.902L1114.17 104.107Z" fill="#7927E0"/>
</g>
<defs>
<clipPath id="clip0_615_301">
<rect width="1500" height="1559" fill="white"/>
</clipPath>
</defs>
</svg>
