<?xml version="1.0" encoding="utf-8"?>
<!-- Generator: Adobe Illustrator 23.1.0, SVG Export Plug-In . SVG Version: 6.00 Build 0)  -->
<svg version="1.1" id="Layer_1" xmlns="http://www.w3.org/2000/svg" xmlns:xlink="http://www.w3.org/1999/xlink" x="0px" y="0px"
	 viewBox="0 0 2000 1220" style="enable-background:new 0 0 2000 1220;" xml:space="preserve">
<style type="text/css">
	.st0{fill:#CB002B;}
	.st1{fill:#EF0027;}
	.st2{fill:#EBD304;}
	.st3{fill:#D26224;}
	.st4{fill:#F7DA00;}
	.st5{fill:#F2611E;}
	.st6{fill:#FD9C2A;}
	.st7{fill:#680000;}
	.st8{fill:#FDFDFD;}
	.st9{fill:#F00027;}
</style>
<g>
	<path d="M1996.5,749.9c1.1-12.6,0.7-25.1-0.4-39.1c-16.9,21.8-34,41.4-58,56.2c30.9-85,31.1-167.5-9.6-248.9
		c-2.6,7.8-5.1,15.2-7.6,22.5c-6.9,20.1-13.1,40.5-23.9,59c-5.7,9.8-12.5,18.7-21.9,26c-0.5-1.8-0.9-3.1-1.2-4.4
		c-9.2-42.3-25-81.9-49-118.1c-19.8-29.9-43.6-56.7-65.3-85.2c-3.4-4.4-5.3,0.6-7.9,1.2c-2.9,0.6-3.1,2.5-2,5.3
		c8.4,22.3,14.6,45.2,17.7,68.9c1.5,11.6,2.4,23.3,2,36.4c-1.7-2.3-2.6-3.6-3.5-4.9c-17.4-25.8-35.4-51.2-55.3-75.2
		c-28.4-34.1-59.8-64.9-98.3-87.6c-10.5-6.2-21.5-11.4-33.5-17.3c3.2,5.4,5.8,9.6,8.3,13.9c14.6,24,28.2,48.6,36,75.9
		c12.1,42.4,2,75.3-32.5,102.5c-28.7,22.6-62.3,35.2-97.1,45c-21.2,5.9-42.6,3.2-63.9-0.4c-21.8-3.7-43.7-7.4-65.8-8.4
		c-38.8-1.7-76.6,4.2-113.9,14.6c-30.2,8.3-59.4,19.3-88,31.7c-3.1,1.3-4.6,0.9-6.4-1.7c-3.2-4.5-6.5-8.9-10.3-12.9
		c-7.1-7.6-9.8-16.8-10.4-26.8c-1.4-23.2,2.4-45.9,7.7-68.3c12.4-52.6,17.3-105.7,11.5-159.6c-5-46-17.5-89.8-40.1-130.2
		c-47.8-85.4-118.8-140.4-214.7-162.6c-29.4-6.8-57-3.1-83.5,11.3c-11,6-21.6,12.6-31.7,19.8c-4.2,3-8.2,3.3-12.7,2
		C755.5,86,742.2,76.9,728.8,68c-26.6-17.8-51.4-38-77.4-56.5c-4.4-3.1-9.1-5.3-14.3-6.8c-7.2-2.1-14.8-2-22-3.7c-8.3,0-16.7,0-25,0
		c-1.6,1.3-3.5,0.8-5.3,1c-15.3,1.7-30.2,4.7-44.1,11.8c-11,5.6-19.9,13.4-24.6,25.1c-2.2,5.6,1.4,11,7.4,11.2c10,0.4,20,0.8,30,1.1
		c2.3,0.1,4.6,0.3,6.8,1.4c24.7,12.9,47.5,28.2,65.7,49.6c10.2,12,18.2,25.3,23.3,41.2c-13.4-6.8-25.7-13.9-37.9-21.1
		c-7.6-4.5-5-4.7-10.7,1.9c-2.2,2.5-1.3,3.7,0.6,5.6c6.1,5.9,12.1,11.9,18.1,18c17.9,18.2,35.8,36.3,56.6,51.2
		c20.7,14.9,43.2,25.7,69.1,27.4c8,0.5,13.7,3.6,19.5,8.3c14.7,11.9,28.8,24.8,44.5,35.5c28,19,58.9,32,90.3,43.9
		c8.4,3.2,17.4,5.2,25.1,9.6c9.9,5.6,19,12.8,28.2,19.7c13.9,10.5,22.3,24.5,25.4,41.6c3.7,20.1,2.7,40.2-0.3,60.2
		c-3.7,24.1-14,45.2-32.2,61.6c-29.4,26.4-58,53.6-84.9,82.5c-4.3,4.6-8.6,9.2-12.9,13.8c-5.6-5.8-11.3-10.9-17.6-15.3
		c-23.6-16.7-50.4-22.6-78.7-23.4c-28.8-0.7-57.1,3.7-85.2,9.3c-34.6,6.9-68.7,15.6-103.4,22.1c-36.1,6.7-70.5,3.6-104-12.6
		c-58.5-28.2-88.1-84.3-76.5-148.2c4.6-25.1,15-47.8,30.9-67.9c1-1.3,3.1-2.1,2.3-4.4c-2.2-6-6.2-7.4-11.9-4.4
		c-37,19.6-67.8,46.8-95.5,77.8c-27.5,30.8-51.2,64.3-74,98.6c-1.1,1.7-2.3,3.3-4,5.8c-0.5-13.8,0.6-26.4,2.4-38.9
		c4.2-29.1,12.7-57.1,23.7-84.3c1.4-3.4,0.3-4.6-2.5-5.4c-2.5-0.7-4.6-5.1-7.7-0.3c-7.9,12.2-17.5,23-27.4,33.7
		c-12.3,13.3-24.9,26.4-35.9,40.9c-24.7,32.8-38.2,70.5-47.7,109.9c-2.1,8.8-4,17.7-6,26.8c-16.4-12.6-28.6-27.8-35.3-47.2
		c-5.8-16.8-9.2-34-11-51.6c-0.6-5.4-4.3-4.2-7.4-4.9c-3.1-0.7-4.3,0.7-5.1,3.6c-11.9,39-22.4,78.4-25.7,119.2
		c-2.4,29-0.6,57.5,9.1,85.3c4,11.4,9.1,22.3,14.4,34.3c-23.2-15.6-42.8-33.5-63-52c1.8,28.6,5.8,55.9,14.3,82.4
		c8.4,26.3,21.3,50.5,33.1,75.5C35.8,857.2,19.1,847,1.7,836.4c0.2,1.6,0.2,2.1,0.4,2.5c18.1,50.1,38.6,99,64.8,145.5
		c31.7,56.1,69.8,107.1,120.6,147.6c55.6,44.3,119.1,68.4,189.9,74.2c19.8,1.6,39.2-1,58.7-3.1c42.7-4.6,85.1-11.2,127.3-19.5
		c53.4-10.5,105.8-24.8,158.6-37.7c0.2-0.1,0.5-0.1,0.7-0.1c23.9-6.4,62.5-14.2,112.3-22.6l14.3-2.4c10.8,5.3,21.7,10.1,32.7,14.2
		c30.6,11.6,60.1,17.7,85.1,17.7c106.7,0,233.1-3.9,268.3-5c0.7-0.2,1.4-0.3,2.2-0.3c27.2-0.6,54.3,0.1,81.4,2.1
		c55.9,4.1,110.9,13.9,165.5,26.5c43.4,10,86.7,20.6,130.1,30.7c5.8,1.3,11.5,4,17.5,3.2c13.5-1.8,26.9-4.5,40.2-7.6
		c54.3-13.1,103.6-36.3,147.1-71.6c46.2-37.3,81.1-83.7,109.6-135.4c24.9-45.3,43.9-93.1,60-142.1c0.8-2.4,2.2-4.8,2.1-7.9
		c-14.5,7.9-28.6,15.6-42.7,23.3c5.6-12.1,12-23.3,18.4-34.6C1981.6,807.6,1993.8,780.4,1996.5,749.9z"/>
	<path d="M275.3,303c-2.5-16.3-7.1-31.1-14-45.2c-4-8.4-8.7-16.5-14.3-23.9c-3.4-4.4,1.4-5.6,2.7-8.1c1.2-2.3,2.7-2.6,5.2-1.2
		c35.5,20.1,63.8,47.3,81.1,84.7c8.2,17.8,4.3,36.7-10,50.2c-2,1.9-1.7,3.7-1.8,5.8c-0.4,15.3-6.8,27.7-19.1,36.6
		c-14.5,10.5-30.8,7.1-40.5-8c-4.9-7.6-7.3-16.1-8.3-24.8c-3.3-27.3-14-51.5-30.3-73.3c-2.9-3.9-1.3-5.8,0.9-8.7
		c2.2-2.9,4-3.2,7.4-1.7C247.5,291.3,261.4,295.9,275.3,303z"/>
	<path d="M1649.1,313.9c0.2-5.1,1.2-11.6,3.5-17.9c11.8-34,34.4-58.2,66.6-73.8c5.8-2.8,11.6-5.8,17.3-8.8c4.5-2.4,5,2.2,7.3,3.8
		c2,1.4,2.4,2.9,0.9,5.3c-10.6,16.6-19,34.2-22.1,54c-2,13.2-0.9,26.2,1.1,39.3c2,13.7,1.4,26.7-6.2,39
		c-11.7,18.9-30.7,22.3-47.7,7.9C1657.2,352,1649,333.3,1649.1,313.9z"/>
	<path d="M1481.2,368.4c20.7,6.3,40.2,12.1,58.7,20.7c12.7,5.9,24.6,13.1,34.9,22.8c20.6,19.4,29.5,43.8,30.1,71.5
		c0.2,7.9-4.7,14.1-10.4,19.2c-12.4,11.1-33.3,13-47.5,4.3c-9.1-5.6-14.4-13.7-14.1-24.7c0.6-32.2-8.8-60.9-29.8-85.6
		c-5.5-6.5-10.5-13.3-15.7-20C1485.5,374.1,1483.8,371.8,1481.2,368.4z"/>
	<path d="M443.8,513.1c-10.4-0.3-18.5-5.2-24.9-12.9c-12.1-14.8-14.9-30.9-7-48.9c11.3-25.9,31.4-42.3,56.7-53.2
		c4.1-1.8,8.4-3.3,12.2-5.5c4.2-2.5,5.1,1,7,3c1.8,1.9,3.4,3.4,1.1,6.6c-8,10.9-14.3,22.7-17.3,36.1c-2.7,11.9-0.9,23.5,0.9,35.2
		c2,12.9-2,23.7-11.1,32.6C456.5,510.8,450.7,513.4,443.8,513.1z"/>
	<path class="st0" d="M1981.3,773.4c2.7-10.4,4.7-20.9,4.8-33c-10.4,11-20.3,20.8-31.7,29c-11.4,8.2-23.5,15-37.2,22.3
		c16.5-39.9,28.6-79.4,31.7-121.1c3.2-41.9-3.2-82.2-19-122.6c-5.2,15.4-9.8,29.3-16,42.6c-9.6,21-22.4,39.3-43.1,51
		c-2.9,1.7-3.7,1.5-4.3-1.9c-2.9-15.7-6.6-31.2-11.1-46.5c-13.3-44.8-36.9-83.9-65.9-120.1c-6.6-8.2-13.2-16.4-19.7-24.6
		c-0.2,1.8,0.2,3.3,0.5,4.7c10.1,38,14.2,76.4,5.4,115.1c-14.9,64.8-54,107.9-117.9,127.4c-23.8,7.3-47.7,8.1-71.5-1.2
		c-15.2-5.9-30.7-10.8-46-16.5c-40.7-15.2-81.2-30.6-123.2-42.1c-24.6-6.7-49.4-12.3-75.1-12.5c-25.7-0.2-51.3,0.8-76.7,4.9
		c-25.7,4.1-51,10.1-74,22.9c-8.1,4.5-14.9,3.4-21.7-1.8c-2.9-2.2-5.6-4.8-8.1-7.4c-9-9.4-16.2-20.4-24.8-30
		c-9-10-12.3-21.8-12.9-34.8c-1-19.6,1.7-38.9,5.6-58c5.3-25.7,11.1-51.3,13.7-77.5c4-39.5,3.2-78.8-4.2-117.8
		c-13.5-71.2-45.8-132.3-99.5-181.5c-40.5-37.1-87.5-62.1-141.3-73.7c-13.7-2.9-27.4-5.3-41.5-2.8c-20.8,3.7-38.9,13.3-56.3,24.6
		c-2.3,1.5-2.4,2.5-0.3,4.4c8.7,7.8,15.6,17.1,17.8,28.8c4.6,23.7-1.4,45.2-15.5,64.5c-10.1,13.8-23.2,24.2-38.4,32.8
		c3.5,2.8,6.8,5.3,10,7.9c13.6,11,26.5,22.8,41,32.6c29.1,19.7,61.2,32.7,93.9,44.8c7,2.6,14.6,3.9,20.9,8
		c8.6,5.5,16.7,11.5,25,17.4c18.7,13.3,30.2,31,34.1,53.7c2.8,16.1,1.9,32.2,0.9,48.3c-1.9,28.3-11.6,53.6-30.8,74.7
		c-11.2,12.3-24.5,22.5-36.6,34c-42.3,40.2-82.1,82.8-118,128.9c-23.7,30.4-45.6,61.9-64.1,95.8c-0.5,0.9-0.9,1.8-1.2,2.7
		C733.5,782.6,709,844,709,937.5c0,106,161,204,258,204c126,0,277.5-5.3,277.5-5.3c14.6,0,28,0.1,41.5,0.6
		c24.5,0.8,48.9,2.6,73.2,5.5c42.5,5.2,84.5,12.9,126.1,22.6c44.8,10.5,89.6,21.2,134.4,31.7c4.2,1,8.3,2.8,12.7,2.2
		c37-5.7,72.8-15.6,106.9-31.3c65.3-30,115.4-77.4,155.1-136.5c30.8-45.9,53.5-95.8,72.5-147.5c1.8-4.9,3.5-9.9,5.6-16
		c-17,9.3-32.9,17.9-49.9,27.2c8.5-19.8,18-37.5,28.1-54.9C1963,818.6,1975.1,797.3,1981.3,773.4z"/>
	<path class="st0" d="M795.2,1088.2c-28.4-20.4-52.1-43.9-68.6-67.8c-19-27.5-28.6-55.4-28.6-82.8c0-93.3,23.5-154.9,31-172.1
		c0.4-1.2,1-2.5,1.8-3.9c17-31.2,37.7-62.1,65.1-97.3c8.9-11.4,18.1-22.7,27.6-33.9c-1.3-0.5-2.2-0.9-3.1-1.2
		c-32.6-9.7-65.8-16.1-99.9-18.3c-32.1-2.1-63.9-0.6-95.6,4.6c-44.4,7.2-86.8,21.3-128,39.1c-27.3,11.8-53.7,25.8-81.4,36.7
		c-9.7,3.8-19.5,7-30.1,5.6c-15.2-2-30.2-4.7-45-8.8c-28.7-8-55.4-20-77.4-40.7c-29.5-27.7-42-62.8-43.8-102.4
		c-1.3-27.7,3.1-54.7,10-81.4c1.6-6,3.3-11.9,5-17.8c-4.8,3.7-8.6,7.8-12.4,11.9c-15.3,16.3-30.4,32.7-42,52
		c-19.6,32.4-30,68-37.7,104.6c-2.1,10-3.9,20.1-5.9,30.8c-6.9-6.5-12.9-12.9-19.7-18.5c-18.9-15.7-30.6-35.8-36.6-59.3
		c-1.7-6.7-3.3-13.5-5.1-20.5c-0.4,0.6-0.6,0.8-0.7,1c-8.2,29.7-15.4,59.5-18.4,90.3c-2.4,24.7-1.8,49.2,4.4,73.4
		c4.5,17.5,12.3,33.7,19.9,50c4.4,9.6,8.7,19.2,13.6,30.1c-26.7-17.1-51.8-34-74.1-54.3c-1.2,0.8-0.8,1.5-0.7,2.1
		c3.3,26.9,10.7,52.8,21.7,77.5c10.8,24.2,24.1,47.1,35.3,71.1c1.2,2.5,2.2,5,3.9,8.8c-19.7-12-38.1-23.2-57.7-35.1
		c13,34,27,66,43.2,97c25.3,48.5,55.2,93.8,93.7,133.1c32.8,33.4,70.1,60.2,113.4,78.5c29.2,12.4,59.6,19.9,90.9,23.7
		c13,1.6,26.2,3.3,39.4,2c27.2-2.6,54.2-5.8,81.3-9.7c36.4-5.2,72.6-11.6,108.4-19.8c30-6.9,59.8-14.3,89.7-21.6
		c11.3-2.7,22.5-5.7,34.4-8.8c29.2-8.2,76.5-17,116.7-23.8C819.9,1104.9,807.2,1096.9,795.2,1088.2z"/>
	<path class="st1" d="M1608.9,373.6c9.3,4.3,17.4,10,25.2,15.9c33.8,25.5,61.5,57,86.9,90.5c14.5,19.1,28,38.9,41.5,58.8
		c4.3,6.3,5.5,13,4.2,19.9c-10.2,54.5-39.3,94.9-90.1,118.6c-17.7,8.2-36.4,12.7-56,13c-13.8,0.2-26.4-4.7-39.1-9.1
		c-45.5-15.8-90.2-34.1-136.2-48.5c-27.5-8.6-55.3-16.2-84-19.2c-19.6-2.1-39.3-1.1-58.9-0.1c-27.6,1.4-54.9,5.6-81.5,13.7
		c-12,3.7-23.7,8-34.5,14.3c-4.4,2.6-7.5,1.3-10.8-1.4c-0.5-0.4-1-0.9-1.4-1.4c-7.4-9.1-7.2-9.9,3.5-14.2
		c34.4-14.1,69.4-26.1,105.8-33.6c40.7-8.4,81.6-9.1,122.6-2.1c16.7,2.9,33.4,6,50.3,7.3c21.8,1.6,42.6-3.1,63-10.5
		c27.6-10,54.5-21.4,77.9-39.7c20.5-16.1,35.4-36,40.1-62.3c3.6-20.4,0.1-40.1-6.1-59.5c-5.1-15.7-12.1-30.6-19.9-45.1
		C1610.6,377,1609.7,375.3,1608.9,373.6z"/>
	<path class="st1" d="M391.1,377.7c-6,12.8-11.6,25.3-15.5,38.6c-21.8,75.5,10,144.7,81.6,177.7c24,11.1,49,18.1,75.8,16
		c20.4-1.6,40.6-5.1,60.6-9.4c33.5-7.2,66.7-15.8,100.6-21.1c28.2-4.4,56.5-6.9,85-1.5c22.1,4.2,41.7,13.5,57.8,29.4
		c2.5,2.5,3,3.9,0.6,7.2c-4.1,5.6-8,6.2-14.6,4.2c-45.3-14.1-91.8-20.8-139.2-19.8c-52.9,1.2-103.9,12.3-153.5,30.4
		c-33.5,12.2-65.4,27.9-97.8,42.7c-4.2,1.9-8.5,3.7-12.7,5.7c-15.1,7.3-30.6,9.7-47.5,6.2c-24.9-5.1-49.3-11.2-71.8-23.4
		c-31.9-17.3-54-42.7-64.4-77.8c-2.3-7.8,1-15.1,1.2-22.7c0.2-9.8,4.3-18,9.8-26c24.6-35.9,49.8-71.3,79.9-102.9
		c17.3-18.1,35.9-34.7,56.7-48.8C386.1,380.9,388.7,379.3,391.1,377.7z"/>
	<path class="st2" d="M527.9,39.8c3-6.3,7.4-10,12.3-13.2c11.8-7.7,25.2-11.1,39-13c18.1-2.5,36.2-2.6,54.2,1.3c4.8,1,9,3.2,13,6.1
		c25.2,18.1,49.3,37.5,74.9,54.9c11,7.5,22.1,14.8,34.4,20.2c10.2,4.5,20.6,9.1,32,3.2c1.6-0.8,2.5,0.5,3.4,1.3
		c19.4,16,21.9,36.4,13.4,58.1c-0.8,2.1-2,2.3-3.8,2.1c-33.5-2.6-65.1-11.2-92-32c-12.3-9.6-23-21.2-34.7-31.6
		c-18.8-16.9-38-33.4-59.9-46.5c-10.5-6.3-21.4-11.5-33.7-13.1c-5.4-0.7-10.7-0.4-15.8,1.1C552.5,42.3,540.5,38.9,527.9,39.8z"/>
	<path class="st3" d="M577.1,49.1c7.4,0,13.5,1.9,19.4,4.6c18.2,8.3,33.7,20.7,48.9,33.3c17.9,14.7,34.1,31.3,51.6,46.4
		c19.3,16.6,41.1,29.3,65.5,37.4c1.4,0.5,2.8,1,4.2,1.5c0.1,0,0.1,0.3,0.3,0.9c-37.3,3.3-71.7-4.5-103.1-25.1
		c-1.4-0.9-2.5-1.9-3-3.7c-10.4-35.9-34.2-61.4-64-82.2C590.7,57.7,584.2,53.8,577.1,49.1z"/>
	<path class="st4" d="M637.7,150.4c24.5,10.8,48.1,23.4,74.2,29.8c26.7,6.5,53.5,4.6,80.8,1.7c-0.9,2.9-2.9,4.6-4.6,6.5
		c-10.5,11.5-22.9,20.1-37,26.6c-2.7,1.2-5.2,0.9-7.8,0.6c-18.5-2.1-35.3-9-51.1-18.7C671.8,184.1,654.6,167.5,637.7,150.4z"/>
	<path class="st1" d="M243.3,301.4c23.7,8.9,46.7,18.4,61.6,40.3c10.6,15.6,11,30.8,1.2,44c-2.6,3.5-5.7,6.5-9.6,8.6
		c-8.4,4.8-16.2,3.1-21.9-4.7c-5.1-6.9-6.9-15-8-23.3C263.5,343,255.8,321.4,243.3,301.4z"/>
	<path class="st5" d="M268.6,246c7.3,4.8,13.8,10.6,20.2,16.6c15.2,14.4,28.1,30.6,36.8,49.9c5.9,13.1,4.5,26.1-4.1,36
		c-1.8-1.2-2-3.3-2.9-5c-6.4-12.4-15.5-22.4-26.9-30.3c-3.1-2.1-4.6-4.4-5.2-8.3c-2.7-19.9-8.6-38.9-17.9-56.7
		C268.3,247.6,267.8,247,268.6,246z"/>
	<path class="st6" d="M1727,231.2c-11.9,22.1-18,45.1-15.9,69.9c0.6,7.3,1.5,14.6,2.5,21.8c1.4,10.6-1,20.1-7.2,28.7
		c-7.3,10.1-17.1,11.8-27.2,4.4c-10.1-7.5-15.5-18-18.1-30c-2.2-10.2-0.7-20.1,2.9-29.8c11.4-30.2,32.4-51.3,61.3-65
		C1725.5,231.1,1725.9,231.2,1727,231.2z"/>
	<path class="st1" d="M1511.6,389.6c11.1,3.5,20.8,7.7,30.2,12.5c25,12.8,43.2,31.4,49.7,59.7c1,4.4,1.8,8.8,2.3,13.3
		c1.5,12.3-3.9,21-15.7,24.8c-7.1,2.3-14.4,2.3-21.5-0.4c-8-3.1-12.7-8.6-12.9-17.6c-0.4-19.7-2.2-39.2-10.5-57.5
		c-4.7-10.6-11-20.1-17.9-29.3C1514.2,393.4,1513.2,392,1511.6,389.6z"/>
	<path class="st5" d="M471.5,409c-4.6,8.9-8.2,17.2-10.3,26.2c-2.9,12.7-1.7,25.5,0.4,38.2c1.3,7.7,0.4,14.8-4.4,21.3
		c-6,8.1-14,9.9-22.7,4.8c-12.2-7.1-19.5-24.1-15-37.6C428.1,436.5,446,419.7,471.5,409z"/>
	<path d="M1630.1,768.2c-4.2,11.5-8.3,22.9-14.4,33.5c-10.3,17.8-24.2,30.8-45.2,34.7c-2.4,0.4-3.7,0.2-3.5-2.3
		c0.2-2.7-4-6.9,0.9-7.9c24.1-5,36-22.4,44.8-43c4.7-10.9,7.8-22.3,10.3-33.8c0.6-2.8,0.7-5.7,4.9-5.3c3.5,0.3,7.2-1.1,8.2,4.5
		c1,5.7,3.3,11.1,4.8,16.8c0.8,3.1,1.9,3.4,4.8,2.2c14.3-6.2,24.1-16.8,31.4-30.3c6.8-12.7,12-26,16.1-39.7c1.4-4.7,4.6-3.1,7.5-3.3
		c2.9-0.2,4.4,0.7,5,3.9c5,28.8,8.2,57.6,6.9,87.8c6.3-5.6,11.8-11.2,16.9-17.2c9.8-11.5,18.1-24,24.5-37.6c2.3-4.7,5.4-3.1,8.6-2.9
		c3.4,0.2,4.3,2.2,4.5,5.3c0.3,4,1.2,7.9,1.9,12.5c6.6-3.8,11.7-8.7,16.7-13.7c16.3-16.6,27.7-36.5,38.3-57c1.1-2.1,2.4-4.1,3.1-6.3
		c1.7-5.2,4.8-5.7,9.6-4.2c2.5,0.8,3.5,1.7,3.6,4.3c0.9,19.1,1.8,38.3,2.9,57.4c1.1,19.5,0.9,38.9-1.1,58.4
		c-3,29.1-11.1,56.4-27.7,80.8c-0.4,0.5-0.7,1.1-0.5,2.4c3.8-2.2,7.7-4.3,11.4-6.6c10.1-6.3,19.4-13.6,27.5-22.3
		c3.6-3.8,5.7-1,8.5,0.5c2.9,1.5,3.4,3.1,2.2,6.3c-8.8,24.2-16.3,48.9-27,72.4c-7.3,16-16.1,31-27,44.8c-0.8,1-1.9,1.8-2,3.7
		c13.8-5.2,22.1-17,32.9-25.6c0.3,0.3,0.6,0.5,0.6,0.7c-7.7,40.7-21,79.1-48.3,111.3c-19,22.5-42.4,39.3-68.4,52.8
		c-28.4,14.8-58.5,25.5-87.7,38.6c-4.1,1.8-4.8-1.1-6.4-3.2c-1.7-2.3-3.4-4.1-0.3-7.1c16.2-15.9,32.3-31.8,47.5-48.6
		c14.3-15.8,27.7-32.4,38.8-50.7c0.5-0.8,1.3-1.5,1-3.2c-16.1,1.5-32.3,2.7-49.2,0.6c41.7-25.6,67.7-64.1,88.6-106.8
		c-1.5-1.3-2.5,0.1-3.6,0.6c-14.1,6.5-28.8,11.2-43.7,15.4c-2.7,0.8-4.5,0.6-5.5-2.2c-1-2.8-4.6-4.9-0.8-8.6
		c29.6-28.6,43.1-65,49.9-104.4c3.8-22,5.7-44.2,6.2-66.6c0.1-3.9,0.5-8-1.4-12.4c-5.5,8.8-10.8,17.1-17.1,24.8
		c-7.9,9.7-16.6,18.6-26.4,26.4c-1.9,1.5-3.1,3.1-3.4,5.7c-2.7,20.1-7.7,39.5-17.2,57.5c-16.5,31.5-42.4,52-75.4,64.1
		c-0.6,0.2-1.3,0.5-1.9,0.6c-1.9,0.4-3.9,2.7-5.5,1c-2-2.2-3.2-5-4.4-7.7c-0.5-1.2,1.1-1.9,1.9-2.7c17-16.2,24.3-37,27.7-59.5
		c3.2-21.5,2.5-43.2,0.9-64.8C1636.2,784.2,1632.6,776.5,1630.1,768.2z"/>
	<path d="M1464.5,1085.5c6.3-4.4,11.6-8,16.9-11.7c18-12.4,35.7-25.1,50.9-40.9c15.7-16.4,27.4-35.1,32-57.7
		c1.4-7.1,2.4-14.3,3.7-22c-3.4,1.9-5.1,4.7-7.2,7.1c-11.9,13.4-25,24.9-43.1,29.1c-10.2,2.4-20.4,2.3-30.8,1.6
		c-2.4-0.2-3-1.2-3-3.5c0.2-7.4,0.8-7.9,8-7.1c24.4,2.7,43.3-7.2,58.8-25.2c6-6.9,12.4-13.5,18.4-20.4c2.4-2.7,4.5-2,7-0.5
		c2.5,1.5,5.4,2.1,4.4,6.5c-1.5,6.6-1.5,13.6-2.9,20.2c-1,4.8,0.7,5.2,4.7,4.9c15.7-1,30.5-4.8,43.7-13.8c6.4-4.4,12.7-9.1,19-13.8
		c8.9-6.7,18.5-12.1,29.2-17.4c-4.4,14.4-8.9,27.9-14.2,41.1c-10.5,26.2-23.3,51.2-41.3,73.2c-23.9,29.2-53.9,47.5-91.6,52.5
		c-18,2.4-35.9,1-53.8-1.2C1470.9,1086.3,1468.4,1086,1464.5,1085.5z"/>
	<path d="M888,155c-9.3,6.8-19.4,6.6-29.3,2.3c-7.9-3.4-10.5-10.9-10.7-18.9c-0.3-11.7,4.4-19,15.5-22.9c16.4-5.7,32.9-7.2,48.5,2.5
		c11.4,7.1,18.5,18,24.6,29.6c3.3,6.2,6,12.6,8.8,19c3.4,7.7,10.7,8.7,16,2c1.1-1.4,2-3.1,2.4-4.9c1-3.8,4.1-3,6-2.3
		c2.4,0.8,0.1,2.8-0.4,4c-0.8,2.2-2.1,4.2-3.3,6.1c-6.6,10.4-12.8,11.9-23.2,5.5c-6.2-2.8-9.7-8.3-13.7-13.4
		c-7.3-9.1-13.7-18.8-21.9-27.1c-2.6-2.6-5.5-4.7-8.8-6.4c-2.9-1.5-4.2-1-4.3,2.6c0,5.4,0.7,10.9-1.4,16.3
		C891.9,151.6,890.7,153.8,888,155z"/>
	<path class="st7" d="M888,155c5.6-6.1,5.1-13.7,5-21.2c-0.1-7.5,0.5-7.9,7.2-4.2c8.9,4.9,14.3,13.1,20.4,20.8
		c7.2,9,13.5,18.8,22.3,26.6c-15.7-6.3-31.4-12.7-47-19C893.3,156.9,890.7,156,888,155z"/>
	<path d="M143.9,932.1c11.4,9.8,20.2,21.5,34.1,26.7c-5.2-7.5-10.6-14.8-15.4-22.5c-14.5-23.4-23.7-49.1-32.5-74.9
		c-2.7-7.9-5.1-15.9-8.3-23.5c-1.8-4.3,1.2-5.1,3.5-6.8c2.4-1.7,4.4-2.9,7.2,0.1c10,10.6,21.5,19.4,34.3,26.5
		c1.4,0.8,2.9,1.5,5.6,2.9c-2-3.4-3.4-5.7-4.8-7.9c-13.5-21.6-20.6-45.3-23.7-70.4c-3.8-30.6-2.1-61.2-0.3-91.8
		c0.5-9,1.2-18,1.2-26.9c0-4.7,1.8-6.1,6-7.1c4.2-1,5.5,0.8,7.1,3.9c8.7,17.6,18,34.9,30.1,50.6c8,10.3,16.9,19.7,28.4,27.4
		c0.8-4.8,1.8-9.1,2.1-13.5c0.2-3.6,2.4-4.3,5.2-4.6c2.8-0.2,5.6-1.3,7.5,2.6c7,14.1,15.5,27.2,25.8,39.1c4.8,5.5,9.9,10.6,16,16.2
		c0-2.5,0-3.9,0-5.3c-0.9-27.9,2.2-55.5,7-82.9c0.5-2.8,1.8-3.8,4.3-3.5c2.9,0.3,6.5-2.1,8.1,3.1c4.8,15.6,10.5,30.9,19.1,44.9
		c6.7,11,15.6,19.3,27.3,24.8c3.7,1.7,4.7,0.9,5.6-2.7c1.4-5.8,3.6-11.4,5-17.2c0.9-3.6,3.2-3.2,5.7-2.9c2.5,0.3,5.6-1.2,6.5,3.3
		c2.6,12.9,6.2,25.5,11.5,37.6c5.4,12.4,12.2,23.7,23.1,32c5.9,4.6,12.7,7.2,19.9,8.8c6.5,1.4,1.8,5.4,2,8.2
		c0.2,3.5-2.1,2.8-4.4,2.3c-23.3-4.8-37.4-20.4-47.5-40.5c-4.4-8.8-7.6-18-10.9-28.5c-2.9,7-5.1,13.2-5.8,19.6
		c-3,30.4-4.2,60.8,4.6,90.7c4.4,15,11.3,28.5,23,39.1c4.2,3.8,0.2,6.1-0.8,9c-0.8,2.3-2.2,2.8-4.7,2
		c-29.4-10.2-54.3-26.6-71.9-52.8c-14-20.9-21.3-44.2-24.5-69c-0.3-2.6-0.8-4.8-3-6.5c-17.6-14.1-32-31-43.3-50.5
		c-0.2-0.4-0.7-0.6-1.2-1c-3,9.9-0.9,19.6-0.3,29.3c1.2,22.1,3.7,44.1,8.7,65.7c7.8,33.8,21.8,64.2,47.1,88.7
		c3.7,3.6-0.7,5.5-1.3,8.1c-0.6,2.6-2.4,3-5,2.3c-14.7-4.2-29.3-8.8-43.3-15.1c-1.3-0.6-2.4-1.8-4.5-1.2
		c20.9,43.1,47.1,81.5,88.8,107.4c-16.9,1.4-33.2,0.7-50.3-1.2c4.5,8.6,9.7,15.8,15,23c17,23.2,37,43.7,57.2,64
		c5.5,5.6,11,11.2,16.7,16.6c2.1,2,1.4,3.6-0.2,5c-2,1.7-1.7,6.7-6.2,4.8c-36.2-15.8-73.8-28.8-107.8-49.6
		c-50.5-30.9-80-76.3-93.2-133.3C147.4,947.1,145.7,940,143.9,932.1z"/>
	<path d="M417.9,943.9c1.6,35.5,16.4,64.1,41.8,87.6c17.7,16.4,37.6,29.7,57.3,43.3c0.9,0.6,1.8,1.4,3.6,2.8
		c-10.1,1.1-19.2,2.4-28.3,3.1c-54.9,3.8-98.7-16.5-131.4-60.8c-21.2-28.8-35-61.1-45.8-94.8c-1.1-3.6-2.9-7-3.2-11.5
		c10.3,4.9,19.6,10.2,28.2,16.7c9.3,7,18.3,14.4,28.9,19.5c11,5.3,22.6,7.6,34.7,8.3c4.3,0.2,4.5-1.6,4-5
		c-1.1-7.4-1.8-14.9-3.1-22.2c-0.9-4.9,3.5-4.4,5.6-6.2c2.1-1.7,3.8-1.2,5.5,0.8c5.8,6.6,11.8,13.1,17.8,19.6
		c5.1,5.5,10.3,10.9,16.4,15.4c12.7,9.4,27.2,12.2,42.5,11c8.2-0.6,7.9-0.9,8.7,6.8c0.4,3.4-1.2,3.4-3.6,3.7
		c-29.4,3.5-53.2-6.8-71.9-29.4c-1.1-1.3-2.2-2.5-3.3-3.7C421.1,947.4,419.8,945.9,417.9,943.9z"/>
	<path class="st1" d="M1775.6,983.5c11.1-2.2,21.9-4.2,32.7-5.6c5.2-0.7,9.5-3.8,14.6-6.5c-4.6,16.2-10.6,31.3-18.4,45.6
		c-18.3,33.5-45.5,57.8-78.6,76c-21.9,12.1-45.1,21.4-68.1,30.9c-0.3,0.1-0.6-0.1-1.7-0.2c31.4-31.6,61.3-63.7,81.3-104.6
		c-12.4,0.2-24,3.1-37.4,2.9c39.9-34.2,60.6-79.7,83.4-125.5c-10.7,5.7-19.6,12.5-29.5,17.3c-9.9,4.8-19.9,9.1-30.6,12.1
		c-0.4-1.8,1-2.5,1.7-3.4c19.7-25.4,30.7-54.6,36.9-85.9c4.9-24.4,6.9-49.1,7.9-73.9c0.1-3.3,1.2-4.9,3.9-6.7
		c19.4-12.7,33.4-30.3,45.4-49.8c3.7-6,7.2-12.2,11.3-19.4c0.5,7.8,0.9,14.6,1.2,21.3c1.5,29,2.8,57.9-1.7,86.8
		c-4.8,30.7-16.2,58.3-37.7,81.1c-3.9,4.2,0,6,1.1,8.8c1.3,3.2,3.3,2.6,6,1.6c16.8-6.6,32.6-15.1,47.5-27.1
		C1832.1,906.7,1814,950.8,1775.6,983.5z"/>
	<path class="st1" d="M1629.5,908.4c9.1-14.5,14.2-30.5,16.9-47.3c3-18.3,3.2-36.8,2.2-55.3c-0.4-8.1-1.2-16.3-2-24.4
		c-0.2-1.7,0-2.8,1.8-3.5c25.4-10.1,37.8-31.3,47.3-55c0.5-1.3,1.1-2.7,2.2-5.1c3.5,24.1,5.2,47,3.7,70.1
		c-1.4,20.5-5,40.5-13.1,59.6c-11.5,26.9-30.3,47-56.2,60.4C1631.4,908.4,1630.8,909.1,1629.5,908.4z"/>
	<path class="st1" d="M1653.4,945.8c-2.6,11.4-7,21.6-11.7,31.7c-12,25.5-26.6,49.2-47.8,68.3c-23.4,21-50.9,31.6-82.2,32.3
		c-4,0.1-8,0-12,0c-1.2,0-2.3,0-3.9,0c0.9-2.1,2.7-2.8,4-3.8c19-13.7,37.1-28.2,51.6-46.9c10.8-13.9,18.6-29.1,22.7-46.2
		c0.6-2.5,1.1-4.4,4.6-4.4c24,0,45.3-8,64-23C1646.2,951.1,1649.8,948.5,1653.4,945.8z"/>
	<path class="st8" d="M868,128.7c5.4,0,9.8,4.3,9.9,9.8c0.1,5.5-4.7,10.4-10.1,10.3c-5.2-0.1-9.7-4.9-9.6-10.2
		C858.2,133.1,862.5,128.7,868,128.7z"/>
	<path class="st1" d="M138.5,851.4c15.2,12.3,31.1,20.6,47.8,27.3c3.4,1.3,4.8,0.1,6.2-2.5c1.3-2.6,4.1-4.3,0.7-7.9
		c-20.5-21.9-32.1-48.3-37.1-77.6c-4.8-28.1-4.1-56.4-2.4-84.7c0.5-8.6,0.9-17.2,1.4-27.2c6.4,11.6,12.3,21.9,19.1,31.6
		c10.6,15.1,22.9,28.6,38.7,38.5c3.1,2,2.7,4.8,2.8,7.4c0.5,14.7,1.6,29.3,3.4,43.8c4.3,36.2,12.7,71.1,32.8,102.2
		c3.4,5.2,7.1,10.2,11.1,15.9c-22.2-6-41.2-17.1-60.3-29.7c13.2,28.8,44.3,95.9,82.3,125.6c-12.7,0.1-24.5-2.4-37-3.2
		c19.9,41,49.9,73.2,80.5,105.4c-8.2-3.4-16.5-6.7-24.7-10.2c-26.1-11.1-51.6-23.2-74.2-40.6c-29.9-22.9-50.1-52.6-62.4-87.9
		c-1.5-4.3-3.4-8.6-4.1-14.1c14.3,10.1,31.4,6.8,46.8,12.2C171.5,943,153.4,899,138.5,851.4z"/>
	<path class="st1" d="M288.5,712.1c3.8,8.7,7.5,17.4,12.2,25.6c8.2,14.1,19.2,25,34.3,31.5c3,1.3,3.9,2.7,3.6,6.3
		c-2.9,32.1-4.4,64.2,4.4,95.7c2.9,10.3,7.1,20,13,29.4c-2.2,0.5-3.5-0.9-5-1.7c-33.7-18.2-53.1-47-61.9-83.6
		c-6.1-25.4-6.4-51.1-4.5-77c0.6-8.7,1.7-17.4,2.6-26.1C287.6,712.2,288.1,712.1,288.5,712.1z"/>
	<path class="st1" d="M490.2,1069.8c-50.4,3.6-89.5-15.2-119.2-54.4c-17.7-23.4-30.1-49.7-39.4-77.9c1.7,1.3,3.5,2.6,5.2,3.9
		c1.7,1.3,3.5,2.5,5.2,3.9c19,15.4,40.6,23.7,65.3,23.7c1.7,0,3.2-0.2,3.8,2.2c8.1,36.2,31.3,61.7,59.4,83.7
		C476.7,1059.7,483.1,1064.4,490.2,1069.8z"/>
</g>
<g>
	<path d="M1273.6,1052.6c33-42.9,53.5-83.1,62.5-122.7l-8-5.9l-51.8,29.6c37.5-72,25-155.3-35.2-226.5l-9.4,2.4
		c-12.1,56.6-38.3,108.7-63.2,127.1c-28-115.6-76.9-215.6-207.5-244.3l-4.4,9.7c87.3,64,73.8,125.2,37.2,188
		c-7.8-15.3-17.6-30.4-29.5-45.5l-9.6,2.8c-1,10.9,0.1,22.2,1.2,33.2c2.8,27.6,5.2,51.6-22,67.9c-16.8-21.5-27.2-46-30.2-71.8
		c-4.2-37.3,7.9-74.6,33.3-102.4l-7.2-8l-5.8,4.3c-47.4,35-96.3,71.2-116.1,176.9c-46.6-34.2-71.8-79.8-81.1-146.8l-10.2-1.6
		c-37.3,76.8-78.8,182.7-25.4,242c-13.4-4.6-26.2-14-39.6-23.9c-4-2.9-7.9-5.9-11.9-8.6l-7.9,7c6.4,11.8,11.7,24.4,16.9,36.6
		c11.1,26,22.4,52.7,44.7,74.7c-9.2-1.6-19.3-2.5-27.8-1.4l-4.3,7.5c56.9,134.8,161,185.2,327.6,158.8c25,5.4,48.8,8.1,71.6,8.1
		c102.4,0,183-54.9,245.1-166.3l-6.1-7.9L1273.6,1052.6z"/>
	<g>
		<path class="st9" d="M950.2,886.4c1.3,1.3,2.7,2.5,4,3.7c6,5.4,12.5,10.6,19.5,15.4c11.2,8.1,21.3,15.5,30.6,22.4
			c4.4-32.6,0.5-64-11.8-94.9c-0.8-2-1.7-4.1-2.5-6.1c-0.9-2-1.8-3.9-2.7-5.9c-5.9-12.4-13.1-24.7-21.8-37c0.3,5,0.8,10.2,1.3,15.5
			c2.7,27.1,5.8,57.5-25.7,77.4c1.7,1.9,3.4,3.8,5.2,5.6C947.5,883.8,948.8,885.1,950.2,886.4z"/>
		<path class="st9" d="M1255,1058.6c34.3-41.8,56.4-80.8,67.4-118.8l-58.3,33.3l-7.2-7.7c45.8-69.9,39.5-150.6-17-222.8
			c-12,47.9-36.5,103.3-66.5,123.9c0.2,4.6,0.4,9,0.5,13.3c0.3,9.5,0.3,18.5,0,26.9c-0.2,7.8-0.7,15.2-1.3,22.2
			c-5.7,61.5-26.4,91-46.8,119.3c-0.3,0.4-0.6,0.8-0.9,1.2l-3.4,4.8l-9.1-0.5l-4.7-8.5c-0.8-1.5-1.6-2.9-2.4-4.3
			c-17.7-31.7-29.6-48.3-137.9-126.5c-6.8-4.7-13.2-9.8-19.2-15.1c-1.4-1.2-2.7-2.5-4.1-3.7c-1.3-1.3-2.7-2.5-4-3.8
			c-26.7-26.6-43.2-59-47.1-93.8c-3.2-28.6,2.4-57.3,15.8-82.3c-40.5,31.7-76.3,70.2-91.6,162c-5.6,39.7,1.2,83.1,7.7,125.1
			l2.2,14.3l-2.5,0.4c5.4,3.6,11.5,6.4,18.3,8.2l3.6-25.6l10.7-0.4c11.1,51.5,31.6,58.6,53.2,66.1c4.8,1.7,9.8,3.4,14.8,5.6
			l-4.4,9.9c-4.5-2-9-3.6-13.8-5.2c-19.6-6.8-39.8-13.7-53.2-49.2l-0.8,5.5l0.2,0.2c-4.1,75.8,11.2,93.7,29,114.3
			c4.7,5.4,9.5,11,14.1,17.9l-6.1,8.2c-119-36.2-125.5-139.4-120.1-213.8l10.2-2.1l1.9,3.6c9.8,18.6,19.3,36.6,32.9,49.3l-0.8-5.5
			c-6.2-39.7-13.1-84.6-8.2-125c-47.8-33.4-75.1-77.2-87.1-140c-36.2,77.5-70.2,177.9-7.4,225.7l-3.3,6.8l0,2.9
			c-21,0.6-39.5-11.7-57.2-24.6c2.7,5.9,5.2,11.9,7.7,17.7c13.7,32.3,26.7,62.8,59.2,85.1l-4.6,9.7c-5.8-1.7-23.9-6.7-38.9-6.8
			c35.5,80.4,107.8,178.1,313.9,145l2,0.1c130.4,28.6,225.9-16.4,299.5-141.5l-29.4,7.7L1255,1058.6z"/>
		<path class="st5" d="M1014.1,935.3c77.1,57.8,85.6,73.3,103,104.7l0.5,1c24.8-34.5,47.8-68.4,45.4-159.5
			c-24.8-113.7-65.9-215.3-179.8-251.8c73.9,65.7,54,129.7,16.2,192.2C1015.8,858.5,1020.6,896.1,1014.1,935.3z"/>
		<path class="st5" d="M779.9,979.3c-2.9,94.3,27.3,150,96.3,177.4c-0.8-0.9-1.5-1.8-2.3-2.7c-18.1-21.1-35.3-41-31.8-117.3
			C811,1029.3,794.2,1005.2,779.9,979.3z"/>
	</g>
</g>
</svg>
