<svg width="800" height="800" viewBox="0 0 100 100" xmlns="http://www.w3.org/2000/svg"><path style="fill:#f76f31;stroke:none;stroke-width:1" d="M66 14h60l14 16 10-2 10 10v10l14 20-18 70a20 20 0 0 1-8 10l-40 30a20 20 0 0 1-24 0l-40-30a20 20 0 0 1-8-10L18 68l14-20V38l10-10 10 2z" transform="scale(.521)"/><path style="fill:#fff;stroke:none" d="m56 42 14 4a20 20 0 0 0 8 0l14-4a20 20 0 0 1 8 0l14 4a20 20 0 0 0 8 0l14-4 20 28a10 10 0 0 1 0 8l-22 22 3 8a20 15 0 0 1 0 8 25 25 0 0 1-8 8 8 8 0 0 1-6 0 40 40 0 0 1-20-14 4 4 0 0 1 0-4l12-12a4 4 0 0 0 0-4l-4-12a10 10 0 0 1 2-7 40 40 0 0 1 24-10 60 60 0 0 0-30 6l4 24a40 40 0 0 1-30 0l4-24a60 60 0 0 0-30-6 40 40 0 0 1 24 10 10 10 0 0 1 2 7l-4 12a4 4 0 0 0 0 4l12 12a4 4 0 0 1 0 4 40 40 0 0 1-20 14 8 8 0 0 1-6 0 25 25 0 0 1-8-8 20 15 0 0 1 0-8l3-8-22-22a10 10 0 0 1 0-8z" transform="scale(.521)"/><path style="fill:#fff;stroke:none" d="M92 120a10 10 0 0 1 8 0l20 10-24 20-24-20z" transform="scale(.521)"/></svg>